<?xml version="1.0" standalone="no"?>
<!DOCTYPE svg PUBLIC "-//W3C//DTD SVG 20010904//EN"
 "http://www.w3.org/TR/2001/REC-SVG-20010904/DTD/svg10.dtd">
<svg version="1.0" xmlns="http://www.w3.org/2000/svg"
 width="1280.000000pt" height="905.000000pt" viewBox="0 0 1280.000000 905.000000"
 preserveAspectRatio="xMidYMid meet">
<metadata>
Created by potrace 1.15, written by Peter Selinger 2001-2017
</metadata>
<g transform="translate(0.000000,905.000000) scale(0.100000,-0.100000)"
fill="#000000" stroke="none">
<path d="M3310 9030 c-32 -59 -154 -127 -830 -463 -1068 -530 -2417 -1226
-2379 -1227 22 0 201 86 654 315 569 288 1021 508 1042 508 7 0 13 5 13 10 0
6 3 8 6 5 7 -7 88 30 508 234 182 88 419 201 526 250 107 50 258 119 334 154
77 36 145 63 152 60 8 -3 16 0 20 6 5 7 11 5 20 -6 11 -16 14 -15 28 11 l15
28 7 -32 c9 -45 22 -41 35 11 6 25 19 52 30 61 17 16 19 16 42 -9 l25 -26 11
45 c8 34 19 48 41 60 17 9 30 18 30 20 0 3 -72 5 -160 5 -149 0 -160 -1 -170
-20z"/>
<path d="M5060 9019 c0 -41 29 -101 52 -107 10 -2 18 -8 18 -13 0 -19 19 -8
38 23 l20 32 12 -43 c6 -23 15 -39 21 -36 5 4 12 -1 15 -9 8 -21 34 -21 34 0
0 11 6 13 19 9 11 -3 23 0 28 7 17 28 90 12 181 -40 24 -14 56 -26 71 -28 42
-5 1039 -408 1019 -412 -36 -7 -16 -29 60 -70 93 -49 112 -80 115 -185 2 -59
0 -68 -18 -73 -11 -4 -74 -31 -140 -61 -66 -30 -165 -73 -220 -95 -179 -71
-366 -151 -362 -155 2 -2 21 4 42 12 103 44 -1 -27 -115 -78 l-55 -24 50 3
c31 1 145 35 300 88 138 47 260 86 272 86 43 0 279 99 295 124 5 7 8 5 8 -6 0
-9 -5 -18 -12 -20 -8 -3 -11 -29 -10 -80 1 -44 -2 -79 -8 -83 -6 -3 -17 -21
-25 -38 -24 -51 -82 -127 -122 -158 -80 -62 -238 -162 -298 -189 -146 -65
-272 -98 -485 -124 -313 -38 -459 -50 -484 -38 -11 6 -75 13 -141 16 -66 2
-133 8 -148 13 -27 8 -24 10 60 60 48 29 135 73 193 99 121 54 144 70 85 59
-22 -4 -60 -9 -85 -10 -25 -2 -72 -13 -105 -25 -148 -52 -915 -231 -1600 -374
-835 -174 -3094 -608 -3417 -657 l-218 -33 0 -293 0 -294 35 -20 c33 -20 35
-24 35 -75 0 -39 -7 -68 -26 -104 -14 -28 -30 -53 -35 -56 -5 -3 -9 -392 -9
-910 l0 -906 39 7 c24 4 41 2 46 -4 3 -6 9 -9 13 -7 4 2 8 -7 8 -20 2 -29 6
-29 -56 -4 l-50 20 0 -98 0 -97 93 -23 c119 -29 221 -78 277 -133 36 -35 57
-72 106 -184 62 -141 75 -173 159 -390 25 -66 61 -154 80 -195 18 -41 106
-253 195 -470 197 -481 362 -871 367 -866 2 2 -60 167 -138 367 -169 437 -268
699 -342 914 -31 88 -72 202 -92 254 -40 106 -43 146 -7 91 l23 -35 -7 30 c-7
33 -61 224 -71 252 -4 12 1 9 14 -7 23 -27 35 -23 38 13 1 19 8 22 47 25 l46
3 7 -39 c3 -22 3 -57 -1 -78 l-6 -39 20 22 c12 12 26 41 32 65 6 24 19 49 29
55 16 10 15 4 -5 -53 -32 -87 -19 -84 43 11 34 52 49 62 88 60 45 -3 155 -78
199 -135 20 -26 179 -285 354 -576 420 -698 715 -1166 758 -1200 7 -6 60 -71
116 -146 108 -142 156 -200 177 -212 17 -11 -27 58 -152 235 -195 277 -534
801 -749 1159 -152 252 -338 579 -338 594 0 6 20 -18 45 -52 25 -34 47 -62 50
-62 3 0 -26 63 -65 140 -38 77 -70 142 -70 145 0 8 41 -15 63 -36 11 -9 25
-15 32 -12 21 8 87 -66 150 -168 76 -124 166 -251 172 -245 3 3 -24 67 -61
142 -66 135 -75 161 -56 149 16 -10 12 10 -14 70 -14 30 -21 55 -17 55 5 0 37
-9 72 -19 35 -11 93 -27 129 -35 252 -58 637 -214 810 -328 59 -39 114 -66
163 -82 12 -4 17 -16 17 -46 0 -35 3 -40 18 -36 21 7 36 -3 46 -29 7 -20 8
-20 24 1 9 12 22 29 27 38 9 14 15 15 42 4 37 -14 52 -6 32 18 -12 15 -11 16
11 9 70 -21 139 -84 164 -149 11 -29 21 -43 26 -36 12 20 36 -30 54 -115 36
-167 85 -287 72 -175 -4 35 -3 50 3 41 16 -24 24 71 12 129 -6 28 -11 72 -11
98 0 26 -6 73 -14 105 -7 31 -11 57 -7 57 24 0 177 -34 267 -60 323 -93 394
-115 394 -122 0 -21 -377 -568 -659 -956 -97 -133 -187 -262 -199 -285 l-24
-42 47 49 c109 115 844 1099 913 1223 6 10 22 9 77 -3 109 -24 613 -167 885
-251 135 -41 371 -113 525 -160 1336 -404 1445 -440 1833 -605 131 -55 145
-64 173 -104 17 -24 41 -51 54 -60 14 -9 57 -71 97 -137 40 -67 93 -149 118
-182 97 -127 412 -641 446 -727 l19 -48 82 0 c97 0 97 -21 0 180 -64 133 -72
154 -121 335 -31 116 -29 194 8 267 l27 53 67 -1 c61 0 73 -4 139 -45 59 -36
96 -72 204 -199 300 -350 369 -434 369 -449 0 -9 18 -44 40 -78 31 -49 45 -63
64 -63 43 0 30 40 -56 168 -40 60 -45 71 -26 61 12 -6 -15 26 -62 72 -133 130
-436 486 -425 498 3 2 -2 15 -11 29 -8 13 -13 26 -10 29 9 9 174 -34 527 -136
528 -154 499 -133 -88 64 -210 70 -380 131 -378 135 4 7 -85 50 -133 65 -22 6
-22 7 -5 21 17 13 17 13 -4 14 -31 0 -29 12 5 33 15 9 41 28 57 42 l30 26 -30
-7 -30 -7 24 20 25 20 155 -75 c193 -92 485 -227 873 -402 164 -74 296 -135
294 -137 -1 -2 -79 17 -171 42 -93 25 -174 45 -180 45 -21 -1 177 -73 455
-164 364 -120 621 -214 885 -326 244 -102 324 -130 374 -129 l36 0 -40 20 -40
19 34 -5 c19 -3 32 -3 30 0 -3 2 -246 101 -540 219 -821 329 -1315 537 -1785
752 -100 45 -221 99 -269 120 l-88 38 59 54 c32 29 48 48 34 41 -21 -10 -19
-6 14 32 21 24 48 53 60 64 12 11 57 58 101 105 77 81 79 91 6 26 -22 -20 -14
-7 22 37 32 37 57 71 57 75 0 4 -55 -50 -123 -121 -67 -70 -128 -127 -135
-127 -7 0 -49 -34 -92 -75 -43 -41 -82 -75 -86 -75 -4 0 -85 39 -181 86 l-173
86 -83 131 c-142 225 -186 302 -233 409 -65 145 -86 200 -74 193 6 -3 1 18
-11 47 -46 114 -47 100 18 180 33 40 72 92 89 114 16 23 126 168 244 323 270
353 341 446 493 651 122 165 202 260 219 260 4 0 26 11 48 25 25 16 57 26 87
28 27 1 50 5 53 9 16 21 688 -249 856 -343 86 -49 202 -145 252 -209 23 -30
101 -143 173 -250 73 -107 155 -224 184 -260 94 -118 538 -788 590 -891 13
-25 93 -160 178 -300 152 -251 236 -397 236 -412 2 -37 60 -169 81 -182 17
-10 11 -20 -13 -21 -12 -1 -68 -20 -124 -42 -115 -46 -240 -82 -493 -142 -96
-23 -296 -70 -445 -105 -325 -77 -357 -87 -260 -79 39 3 81 8 94 11 15 4 22 2
18 -4 -10 -16 93 -24 154 -13 30 5 137 30 239 55 235 57 761 172 810 177 14 1
32 -2 40 -7 8 -5 41 -9 72 -8 l57 1 29 -46 c16 -26 43 -73 61 -105 l32 -58
-31 -50 c-52 -85 -206 -292 -244 -328 -20 -19 -43 -36 -53 -37 -20 -3 -113
-94 -95 -94 7 0 33 21 57 47 25 26 45 40 45 33 0 -9 10 -5 27 11 26 24 26 24
-4 -21 -42 -64 -45 -70 -35 -70 5 0 38 35 73 78 34 42 106 122 159 177 128
135 170 184 101 120 l-54 -50 44 57 c24 32 47 58 52 58 9 0 67 -90 171 -265
86 -145 112 -182 120 -174 8 8 -93 221 -153 323 -59 101 -83 146 -77 146 3 0
17 -20 31 -44 14 -24 32 -50 40 -56 22 -18 20 17 -5 79 l-19 50 22 3 c16 2 23
12 27 38 7 43 12 51 68 116 33 39 66 62 137 97 51 26 117 52 146 58 64 14 215
16 357 5 l102 -9 0 115 0 115 -69 23 c-102 33 -247 147 -227 179 4 5 1 13 -4
16 -6 4 -15 17 -21 28 -12 30 -32 60 -44 70 -12 9 94 -1 148 -14 51 -13 47
-23 -8 -17 -25 3 -45 4 -45 2 0 -2 15 -10 33 -18 41 -19 237 -33 237 -17 0 6
-10 11 -22 11 -19 0 -131 47 -168 70 -8 5 -41 25 -73 43 -32 19 -58 37 -58 41
1 3 1 9 0 14 -1 4 0 19 1 34 1 14 -6 41 -15 58 -9 18 -15 43 -12 56 2 13 1 24
-4 24 -4 0 -6 15 -4 32 15 123 15 160 -1 154 -13 -5 -14 1 -9 37 11 72 -24
235 -48 220 -6 -3 -7 -1 -3 6 4 6 2 19 -6 28 -12 15 -11 15 12 3 l25 -13 -19
22 c-11 11 -16 21 -12 21 4 0 -6 19 -23 42 -17 23 -31 47 -31 53 0 33 -65 203
-89 234 -39 49 -91 184 -98 254 -4 37 -9 54 -14 45 -7 -11 -9 -11 -9 0 0 8
-10 27 -21 44 -21 28 -21 30 -3 25 10 -3 57 -11 104 -17 47 -6 130 -20 184
-31 55 -10 101 -17 104 -15 2 2 -11 7 -28 11 -17 4 -29 9 -27 11 4 4 122 -16
325 -55 41 -8 42 -8 42 19 0 27 -2 28 -62 35 -35 4 -106 19 -158 35 -52 15
-138 40 -190 55 -86 24 -172 66 -207 101 -8 8 -19 14 -24 14 -6 0 -17 7 -25
15 -9 8 -29 15 -46 15 -24 0 -28 3 -19 13 8 10 -4 25 -56 66 -36 29 -71 55
-79 58 -7 2 -38 30 -68 60 -53 53 -68 71 -47 59 5 -4 17 -3 27 1 13 5 1 14
-47 39 -86 44 -59 43 38 -2 43 -20 113 -51 155 -70 161 -69 557 -267 552 -275
-3 -5 3 -6 12 -2 12 4 15 3 10 -5 -5 -8 -1 -10 10 -5 13 5 15 3 9 -7 -5 -8 -4
-11 3 -6 6 4 34 -5 61 -19 28 -14 73 -34 101 -45 47 -18 50 -19 50 -2 0 9 -9
23 -20 30 -12 7 -18 17 -15 21 3 5 -16 17 -42 28 -106 41 -272 137 -259 150 2
3 17 -2 33 -10 15 -8 45 -17 65 -21 21 -4 40 -12 44 -18 5 -7 3 -8 -6 -3 -8 5
-11 3 -8 -6 3 -8 11 -13 17 -11 6 1 10 -4 9 -10 -2 -8 23 -16 77 -23 44 -5 86
-14 93 -18 9 -6 12 43 12 237 0 231 -1 246 -18 246 -24 0 -299 144 -337 176
-23 20 -25 23 -7 14 28 -14 40 -6 26 18 -14 22 -127 108 -236 179 -48 31 -86
58 -85 59 5 6 214 -27 364 -56 168 -33 185 -35 133 -15 -45 17 -34 17 73 1
l87 -13 0 43 0 43 -57 5 c-123 13 -453 86 -1034 230 -191 47 -359 86 -374 86
-47 0 -22 -23 71 -65 259 -117 628 -336 971 -577 142 -100 158 -113 128 -102
-20 7 -20 7 -1 -14 11 -12 15 -22 9 -22 -39 0 -652 165 -1082 291 -300 89
-415 131 -761 281 -364 158 -439 206 -670 424 -43 41 -129 141 -113 131 10 -6
12 8 11 55 -2 118 -16 113 140 47 178 -76 713 -281 719 -275 2 2 -23 14 -56
27 -33 13 -58 25 -57 27 2 1 43 -9 91 -23 49 -14 90 -23 93 -21 2 3 -25 20
-61 37 -36 18 -64 36 -62 40 3 4 -46 29 -108 57 -252 113 -423 196 -463 227
-23 18 -77 47 -120 65 -44 18 -80 34 -82 35 -2 2 10 34 26 72 16 37 37 89 47
115 11 29 22 45 30 42 7 -3 26 7 43 21 17 14 55 34 84 44 29 10 89 36 133 58
77 39 591 241 785 308 52 19 136 52 185 75 50 23 173 77 275 120 102 43 224
96 272 118 53 25 88 36 91 29 2 -6 21 2 48 19 56 38 100 58 120 55 9 -1 72 13
140 32 147 40 254 44 303 12 22 -15 31 -16 34 -7 3 10 8 10 25 -1 12 -8 49
-24 81 -36 46 -17 61 -19 67 -10 6 10 13 10 34 1 14 -7 30 -12 36 -12 6 0 9
37 7 96 l-3 96 -85 22 c-96 24 -163 68 -267 177 -91 95 -92 98 -66 169 12 33
18 58 12 55 -5 -4 -9 -1 -9 5 0 6 -5 8 -12 4 -8 -5 -9 5 -5 39 7 50 6 52 -23
37 -16 -9 -19 -5 -25 28 -7 41 -30 53 -41 20 -9 -28 -20 -21 -33 21 -14 49
-73 112 -132 143 -24 12 -66 37 -94 55 -28 19 -57 31 -66 28 -10 -3 -20 -1
-23 4 -8 12 12 18 92 29 66 9 112 5 547 -53 252 -33 235 -35 235 19 l0 43 -77
6 c-43 3 -211 29 -373 56 -252 43 -500 80 -543 81 -7 0 -4 5 6 11 9 6 26 8 36
4 11 -3 22 -1 26 4 3 7 0 8 -9 5 -29 -11 -16 14 38 78 53 61 67 90 26 53 -11
-10 -23 -15 -26 -12 -7 7 -114 -79 -150 -120 l-20 -23 -110 15 c-367 50 -1092
125 -1216 125 -54 0 -174 5 -266 10 -92 6 -270 14 -395 19 -125 4 -230 11
-233 14 -5 5 -33 223 -34 263 0 17 12 26 58 42 1446 522 2071 759 2587 982
353 153 573 239 635 249 l35 6 3 84 3 84 -63 -7 c-34 -3 -67 -11 -72 -16 -7
-7 -6 -10 3 -10 7 0 9 -4 6 -10 -3 -5 -15 -10 -26 -10 -24 0 -25 -17 -1 -23 9
-3 -1 -5 -23 -6 -22 0 -56 -9 -75 -19 -19 -11 -48 -22 -64 -26 -15 -4 -45 -20
-65 -36 -55 -44 -514 -251 -939 -424 -390 -159 -1018 -390 -1033 -381 -5 4 -9
2 -9 -4 0 -6 -6 -8 -14 -5 -7 3 -121 -31 -252 -75 -293 -98 -709 -231 -722
-231 -6 0 -8 9 -5 19 3 10 -7 57 -21 104 -14 47 -26 90 -26 97 0 12 -167 386
-227 507 -19 39 -46 82 -60 95 l-26 23 6 -23 c3 -12 2 -20 -2 -17 -12 7 -64
85 -60 89 2 2 56 27 119 56 63 29 172 81 242 117 71 35 133 61 139 57 8 -5 9
-3 4 6 -6 10 -4 12 9 7 9 -4 15 -3 12 2 -3 4 41 33 98 62 58 30 103 55 101 57
-9 9 -142 -36 -234 -78 -58 -27 -200 -86 -315 -130 -224 -87 -301 -104 -456
-99 -70 3 -141 -6 -168 -20 -9 -4 -23 -6 -29 -4 -7 3 -37 -9 -67 -27 -30 -17
-77 -37 -105 -46 -28 -8 -51 -20 -51 -27 0 -7 -28 -27 -63 -44 -71 -35 -127
-78 -127 -98 0 -7 -37 -39 -82 -71 -46 -31 -126 -90 -178 -130 -119 -90 -150
-98 -276 -73 -49 10 -120 30 -159 45 -38 14 -90 32 -115 39 -79 22 -382 136
-470 176 -47 22 -90 48 -95 58 -6 11 -36 54 -69 97 -32 43 -68 94 -79 113 -11
20 -67 109 -126 198 -70 107 -112 163 -123 163 -20 0 -24 -15 -7 -26 8 -5 8
-8 0 -13 -7 -5 11 -43 51 -109 35 -56 88 -145 118 -198 30 -53 74 -125 97
-160 23 -35 37 -64 31 -64 -31 0 -567 204 -848 323 -238 100 -324 143 -338
166 -7 11 -31 34 -54 51 l-41 30 -159 0 -158 0 0 -31z m3810 -513 c117 -28
189 -85 280 -224 58 -88 153 -321 145 -355 -3 -12 8 -62 25 -111 16 -50 30
-91 30 -92 0 -12 -97 -26 -210 -30 -126 -6 -142 -4 -240 21 -57 16 -149 47
-205 70 -55 23 -160 63 -232 90 -73 26 -133 52 -133 56 0 5 5 9 10 9 6 0 10 5
10 11 0 8 -14 10 -44 6 -35 -5 -68 2 -164 33 -65 22 -132 44 -148 50 l-28 11
32 19 c17 10 38 31 48 45 9 14 71 56 139 94 168 96 594 311 614 311 9 -1 41
-7 71 -14z m-280 -31 c0 -3 -37 -23 -82 -45 -46 -23 -76 -35 -67 -28 21 18 30
46 16 52 -7 2 6 5 28 6 22 1 51 6 65 10 32 10 40 11 40 5z m-276 -94 c-76 -48
-104 -63 -104 -56 0 12 126 95 145 95 13 0 0 -13 -41 -39z m-1289 -116 c83
-30 220 -81 305 -114 147 -57 153 -60 108 -61 -27 0 -48 -4 -48 -9 0 -10 159
-91 180 -91 45 -1 -179 -127 -360 -203 -85 -35 -181 -76 -212 -91 l-58 -26 0
33 c0 25 3 29 11 17 19 -27 -4 152 -35 280 -6 24 -1 28 94 69 56 25 104 49
107 54 4 6 0 8 -8 5 -8 -3 -25 -9 -39 -13 -25 -8 -25 -8 -6 14 19 21 19 21 0
21 -10 0 -53 -11 -95 -23 l-76 -24 -13 51 c-7 28 -15 57 -18 65 -3 9 -1 12 6
7 15 -9 -1 35 -23 67 -8 12 -15 25 -15 30 0 10 8 8 195 -58z m1450 -510 c98
-35 122 -63 50 -57 -22 2 -38 1 -35 -2 3 -2 62 -25 130 -49 69 -24 138 -51
155 -59 l30 -16 -45 -11 c-75 -18 -323 -101 -363 -121 -59 -29 -125 -48 -207
-60 -41 -6 -91 -16 -110 -22 -46 -15 -822 -18 -788 -3 13 6 57 46 98 90 96
102 106 110 220 177 136 81 147 85 340 127 151 32 193 38 305 38 122 1 135 -1
220 -32z m-1237 -80 c-66 -34 -159 -73 -288 -121 -59 -22 -63 -22 -40 -4 63
50 315 158 370 159 18 0 7 -9 -42 -34z m-327 -18 c-13 -13 -26 -3 -16 12 3 6
11 8 17 5 6 -4 6 -10 -1 -17z m2513 -170 c8 -39 19 -94 25 -121 l9 -49 -121 7
c-67 4 -143 9 -169 13 -42 5 -45 7 -32 21 23 22 6 31 -76 38 -118 11 -122 16
-33 47 61 22 89 26 121 21 45 -7 56 1 20 15 -21 8 -20 9 15 19 29 8 49 7 85
-4 60 -18 62 -17 32 6 -14 10 -23 20 -20 23 12 9 116 44 122 41 4 -3 14 -37
22 -77z m-2315 69 c-9 -9 -172 -66 -176 -62 -2 2 33 18 79 34 79 30 107 37 97
28z m186 -23 c-10 -16 -47 -60 -82 -100 -53 -59 -61 -73 -48 -80 24 -14 -225
-3 -260 11 l-30 13 55 18 c44 15 51 20 35 26 -13 5 -15 8 -5 9 8 0 89 30 180
65 91 35 167 64 169 65 2 0 -5 -12 -14 -27z m1825 -248 c151 -3 291 -9 310
-13 l34 -8 17 -104 c16 -95 36 -341 23 -280 -13 60 -19 29 -21 -108 l-1 -147
-70 -195 c-38 -107 -104 -289 -145 -405 -104 -292 -147 -405 -207 -542 -52
-116 -211 -465 -216 -471 -4 -6 -189 138 -273 214 -81 72 -188 144 -214 144
-7 0 -47 20 -89 44 -115 65 -201 96 -182 64 5 -7 2 -9 -8 -5 -77 29 -139 33
-123 7 8 -13 -1 -13 -87 5 -40 9 -131 26 -203 39 -127 23 -137 27 -410 156
-302 143 -681 316 -783 358 -41 17 -61 30 -58 39 3 7 64 96 136 198 232 327
252 338 1325 755 328 127 585 208 753 236 81 13 152 26 157 28 6 2 21 2 35 0
14 -2 149 -6 300 -9z m-1551 -2 c-21 -5 -31 -39 -15 -52 6 -6 43 -11 81 -13
l70 -3 -49 -23 c-27 -12 -106 -36 -175 -53 -105 -26 -327 -94 -406 -125 -21
-9 0 25 119 183 48 65 67 82 91 86 40 5 304 6 284 0z m-510 -70 c-28 -38 -103
-121 -167 -186 -105 -105 -129 -124 -227 -177 -163 -87 -581 -233 -789 -274
-74 -15 -113 -16 -67 -1 18 6 19 12 15 98 -3 51 -9 96 -14 100 -4 5 -20 1 -34
-8 -15 -10 -29 -15 -32 -13 -5 6 401 266 551 353 143 82 246 116 367 120 53 2
106 9 118 15 23 12 113 3 105 -10 -6 -10 93 -33 106 -24 15 9 10 22 -8 27 -11
3 -8 5 9 6 16 1 32 9 38 21 8 14 21 20 45 20 l34 0 -50 -67z m2791 32 c91 -8
230 -19 310 -25 80 -6 210 -20 290 -30 80 -11 255 -31 390 -45 214 -22 344
-39 469 -61 25 -4 31 -8 20 -14 -19 -12 33 -33 129 -53 41 -9 76 -18 78 -20 3
-2 -36 -42 -86 -88 -51 -46 -268 -259 -484 -474 -278 -276 -430 -435 -520
-545 -70 -85 -148 -179 -173 -208 -25 -29 -115 -146 -200 -260 -123 -164 -159
-206 -175 -204 -11 2 -32 -7 -47 -21 -16 -16 -85 -45 -186 -80 -88 -31 -180
-62 -204 -71 -43 -16 -43 -16 -38 7 17 66 61 324 86 505 24 175 29 248 32 472
6 443 -1 997 -15 1124 l-13 118 86 -6 c47 -4 160 -13 251 -21z m-5493 -81 c-3
-3 -12 -4 -19 -1 -8 3 -5 6 6 6 11 1 17 -2 13 -5z m-122 -25 c-49 -11 -94 -18
-100 -16 -12 4 131 35 165 35 14 0 -15 -9 -65 -19z m-122 -26 c-7 -2 -19 -2
-25 0 -7 3 -2 5 12 5 14 0 19 -2 13 -5z m-56 -9 c-3 -3 -12 -4 -19 -1 -8 3 -5
6 6 6 11 1 17 -2 13 -5z m-50 -10 c-3 -3 -12 -4 -19 -1 -8 3 -5 6 6 6 11 1 17
-2 13 -5z m-50 -10 c-3 -3 -12 -4 -19 -1 -8 3 -5 6 6 6 11 1 17 -2 13 -5z
m-140 -30 c-3 -3 -12 -4 -19 -1 -8 3 -5 6 6 6 11 1 17 -2 13 -5z m-50 -10 c-3
-3 -12 -4 -19 -1 -8 3 -5 6 6 6 11 1 17 -2 13 -5z m-212 -53 c-99 -27 -243
-66 -320 -87 l-140 -39 63 -3 c35 -2 118 6 184 18 67 11 123 18 126 15 3 -3
-1 -5 -9 -5 -24 0 -245 -112 -231 -117 8 -3 -6 -17 -32 -33 -50 -32 -120 -103
-105 -108 17 -7 9 -22 -12 -22 -15 0 -19 -4 -14 -19 3 -11 1 -22 -5 -26 -5 -3
-10 -21 -10 -38 0 -25 -13 -48 -57 -99 -94 -107 -32 -86 -1343 -466 -847 -247
-830 -242 -865 -243 -16 -1 -71 -8 -121 -16 -126 -20 -168 -7 -272 83 -93 81
-109 104 -187 261 l-60 122 22 21 c13 12 23 30 24 39 3 62 14 71 149 115 153
50 125 44 900 191 1058 200 1577 305 2040 409 228 52 424 94 435 94 11 0 -61
-21 -160 -47z m8305 -36 c0 -9 -6 -12 -16 -8 -13 5 -13 7 -2 14 17 11 18 11
18 -6z m-7560 -20 c0 -15 -60 -56 -101 -70 -25 -9 -54 -23 -65 -33 -10 -10
-49 -39 -86 -66 -38 -26 -68 -52 -68 -56 0 -5 -26 -23 -57 -40 -51 -27 -72
-32 -173 -39 -63 -5 -124 -11 -135 -14 -11 -3 -35 -10 -53 -16 -22 -6 -42 -7
-59 0 -13 5 -30 6 -35 3 -8 -5 -9 1 -5 17 4 13 7 29 7 36 0 24 64 84 126 119
83 46 297 112 404 125 67 7 250 31 293 38 4 0 7 -1 7 -4z m1538 -12 c-13 -16
-22 -17 -12 -1 5 8 2 9 -10 5 -9 -4 -15 -3 -11 2 3 6 14 9 25 8 14 -1 16 -4 8
-14z m-1338 -35 c32 -19 39 -28 42 -61 4 -46 3 -47 -38 -47 -19 0 -95 -13
-171 -30 -75 -16 -139 -30 -141 -30 -2 0 8 15 23 33 24 28 216 154 238 156 4
1 25 -9 47 -21z m7220 -53 c0 -6 5 -16 11 -22 6 -6 12 -29 13 -51 3 -58 7 -62
187 -175 69 -43 141 -119 152 -158 12 -47 -9 -173 -37 -217 -47 -74 -98 -113
-320 -247 -220 -133 -548 -282 -1081 -492 -196 -77 -577 -214 -582 -209 -1 1
12 34 31 72 51 107 469 654 499 654 6 0 132 121 281 268 265 262 399 382 427
382 8 0 51 28 95 63 132 105 223 168 251 176 20 5 33 2 50 -13 13 -11 23 -25
23 -31z m-7024 -135 c21 -10 35 -20 29 -20 -5 -1 0 -5 13 -10 32 -14 28 -24
-25 -52 -54 -29 -108 -45 -99 -29 6 9 -9 6 -137 -33 l-49 -15 19 21 c10 11 37
31 60 45 24 14 43 26 43 28 0 2 -22 -5 -49 -16 l-49 -18 4 27 c3 15 5 32 6 39
1 11 136 50 179 52 8 1 33 -8 55 -19z m-279 -56 c-21 -14 -35 -29 -32 -34 3
-6 -1 -7 -9 -4 -9 3 -16 2 -16 -3 0 -5 -13 -17 -30 -26 -16 -10 -30 -14 -30
-8 0 5 6 12 13 14 6 3 -14 6 -45 6 -56 1 -83 -11 -52 -23 9 -3 30 -6 47 -6
l32 -1 -29 -16 c-16 -8 -45 -22 -63 -30 -31 -13 -34 -12 -31 4 2 10 -4 19 -16
21 -10 2 -16 0 -13 -5 3 -4 -17 -8 -43 -9 l-49 -1 17 23 c9 12 38 32 63 44 49
23 257 78 299 79 23 1 22 -1 -13 -25z m5120 -106 c-3 -8 -6 -5 -6 6 -1 11 2
17 5 13 3 -3 4 -12 1 -19z m-4765 -103 c-2 -32 0 -55 6 -55 6 0 8 -9 5 -19 -4
-15 -13 -18 -41 -16 -38 2 -207 -18 -252 -30 -56 -15 -56 -15 -40 -26 12 -9
11 -10 -4 -5 -11 4 -45 2 -75 -4 -31 -6 -67 -13 -81 -15 -14 -3 54 35 150 85
96 49 184 89 195 90 11 0 45 12 75 25 30 13 57 24 60 25 3 0 3 -25 2 -55z
m4743 -174 c-9 -244 -58 -651 -99 -840 -19 -86 -38 -173 -42 -194 -3 -21 -17
-48 -30 -60 -24 -23 -64 -114 -64 -147 0 -11 -6 -20 -14 -20 -8 0 -29 -12 -46
-26 -25 -22 -35 -25 -53 -17 -15 7 -40 6 -82 -4 -60 -14 -116 -11 -166 8 l-26
10 33 87 c18 48 70 173 117 277 101 229 214 500 337 810 120 304 121 305 132
299 6 -4 7 -73 3 -183z m-3045 114 c0 -21 -15 -57 -73 -172 -28 -57 -55 -103
-59 -103 -4 0 -40 14 -78 32 l-71 31 27 28 c15 15 30 27 34 26 4 -1 51 37 104
86 97 87 116 99 116 72z m-158 -52 c-17 -21 -57 -64 -89 -95 l-58 -57 -35 20
c-23 13 -27 18 -11 13 16 -4 21 -3 17 5 -5 7 2 11 16 11 19 0 15 5 -21 26 -32
20 -40 29 -30 35 8 5 21 7 29 4 8 -2 58 14 110 35 52 21 97 38 98 39 2 1 -10
-16 -26 -36z m-2 -46 c0 -2 -15 -16 -32 -33 l-33 -29 29 33 c28 30 36 37 36
29z m-477 -60 c15 0 27 -1 27 -2 0 -1 -62 -36 -137 -77 -112 -61 -367 -209
-538 -312 -24 -14 -26 -15 -10 -1 26 22 430 274 475 297 19 9 30 17 24 18 -24
0 -95 -30 -194 -84 -57 -31 -104 -55 -106 -53 -3 2 153 131 190 156 21 15 21
14 2 -7 -11 -12 -16 -25 -12 -29 9 -9 105 23 141 48 l30 20 -37 -3 c-21 -2
-38 -1 -38 3 0 12 59 29 65 18 4 -5 13 -9 22 -9 13 0 14 2 2 17 -13 15 -11 16
26 8 22 -4 52 -8 68 -8z m-1488 -38 c-38 -10 -130 -30 -202 -45 -73 -15 -130
-31 -127 -35 8 -13 52 -11 82 5 15 7 68 16 117 19 l90 6 -145 -35 c-178 -41
-179 -41 -176 -8 3 29 25 46 65 50 14 1 55 10 91 18 109 27 203 44 240 44 27
0 20 -4 -35 -19z m1856 -84 l117 -47 -57 -87 c-32 -47 -75 -115 -97 -151 -44
-73 -153 -232 -164 -240 -4 -3 -42 -54 -85 -115 -43 -60 -121 -168 -174 -240
-52 -71 -96 -132 -98 -134 -6 -8 -345 131 -433 177 -237 123 -270 144 -270
172 0 15 -9 35 -20 45 -11 10 -20 24 -20 30 0 7 44 51 98 99 116 103 420 304
716 474 l210 120 80 -28 c45 -15 133 -49 197 -75z m-3420 81 c-9 -11 -5 -15
24 -20 34 -7 35 -7 19 -31 -9 -14 -38 -41 -65 -61 -40 -29 -60 -37 -107 -40
-135 -10 -269 -45 -308 -80 -18 -18 -75 -34 -246 -73 -217 -48 -718 -181 -835
-220 -32 -11 -85 -33 -117 -50 -32 -17 -66 -31 -75 -31 -9 0 -79 -14 -155 -30
-129 -28 -176 -31 -176 -10 0 5 10 12 23 16 12 4 45 17 72 29 28 13 119 37
203 55 169 34 282 65 382 104 67 26 72 34 10 16 -19 -6 -69 -17 -110 -26 -41
-8 -140 -33 -220 -54 -155 -41 -293 -64 -350 -59 -27 3 7 16 155 58 105 29
204 61 220 71 31 18 307 100 360 107 16 2 232 59 480 128 367 101 655 176 800
208 11 3 22 5 24 6 2 0 -2 -5 -8 -13z m1685 -133 c-1 -15 9 -19 54 -23 64 -6
61 6 34 -142 -3 -16 -12 -28 -19 -28 -7 0 -43 -20 -79 -44 -36 -24 -75 -46
-88 -50 -43 -11 -53 -22 -38 -41 12 -15 11 -16 -16 -9 -16 4 -42 16 -57 27
-16 10 -47 29 -71 42 -87 46 -125 75 -120 89 3 8 1 17 -5 20 -6 4 -8 13 -5 20
3 8 -5 21 -17 30 -28 19 -37 16 200 77 210 54 229 57 227 32z m2216 -152 c350
-154 555 -249 821 -382 l197 -99 -16 -24 c-8 -14 -26 -32 -39 -40 -13 -9 -36
-36 -50 -61 -15 -25 -31 -45 -36 -45 -5 0 -32 -46 -60 -102 -28 -57 -71 -134
-95 -171 -73 -113 -151 -283 -141 -309 3 -8 9 -1 16 16 6 16 13 27 16 25 2 -2
-10 -43 -27 -91 l-30 -86 -50 14 c-71 22 -571 190 -788 267 -303 106 -401 144
-413 161 -14 18 -211 96 -241 96 -17 0 -18 -2 -6 -10 13 -8 12 -10 -4 -10 -24
0 -19 12 42 102 26 40 86 134 132 208 46 74 100 158 120 185 20 28 94 133 165
235 70 101 134 190 141 198 8 7 19 22 24 33 6 10 15 19 20 19 4 0 140 -58 302
-129z m-4307 49 c-3 -5 -14 -10 -23 -9 -14 0 -13 2 3 9 27 11 27 11 20 0z
m1440 -204 c77 -38 169 -86 205 -107 88 -52 172 -139 215 -224 45 -86 97 -281
83 -309 -7 -12 -6 -22 0 -28 11 -11 -5 -58 -20 -58 -4 0 -8 -15 -7 -32 1 -49
-16 -124 -47 -208 -39 -105 -91 -154 -247 -231 -66 -32 -127 -59 -137 -59 -9
0 -84 -25 -165 -56 l-147 -55 -22 20 c-12 12 -33 21 -47 21 -13 0 -30 4 -37 9
-15 9 -33 119 -22 126 4 3 11 22 15 42 8 42 38 107 107 228 80 140 118 224
118 256 0 27 -2 30 -15 19 -20 -16 -20 -5 1 72 18 70 14 96 -8 53 -9 -16 -31
-45 -48 -64 -18 -18 -61 -93 -97 -165 -35 -72 -88 -165 -118 -206 -30 -41 -72
-104 -94 -140 -22 -36 -53 -73 -69 -82 -16 -10 -47 -37 -70 -62 -43 -46 -198
-135 -237 -135 -11 0 -57 0 -102 0 -46 0 -84 -5 -88 -11 -9 -15 -222 -12 -343
5 -121 17 -212 52 -303 118 -115 82 -159 146 -159 232 0 47 4 54 48 100 26 28
73 68 104 90 31 22 112 82 180 133 129 99 173 128 543 369 211 138 356 228
445 280 19 11 53 26 75 33 22 7 78 29 125 48 60 26 107 38 160 42 41 4 77 6
80 6 3 -1 68 -32 145 -70z m-1695 -55 c0 -4 -12 -6 -27 -3 -22 4 -25 2 -20
-12 4 -10 7 -22 7 -28 0 -7 20 -8 57 -3 l58 7 -20 -22 c-11 -12 -19 -30 -17
-39 1 -9 -13 -26 -33 -39 -38 -24 -44 -45 -17 -61 16 -10 16 -12 0 -24 -10 -8
-14 -18 -10 -22 4 -5 2 -5 -4 -2 -14 8 -66 -31 -58 -44 3 -5 0 -8 -8 -7 -7 2
-12 -5 -12 -14 1 -10 -3 -15 -8 -12 -14 9 -67 -57 -68 -85 0 -13 -3 -22 -6
-19 -8 9 -80 -73 -76 -86 2 -6 0 -8 -3 -4 -11 10 -47 -11 -40 -23 4 -5 3 -9
-2 -8 -4 2 -32 -20 -61 -48 -40 -39 -47 -50 -30 -46 17 3 14 -1 -12 -17 -19
-13 -46 -30 -60 -39 -64 -43 -216 -91 -292 -91 -41 0 -197 62 -244 97 -17 13
-46 51 -64 84 -18 33 -50 87 -71 119 -21 33 -39 64 -39 70 0 5 -4 10 -9 10
-12 0 -20 59 -9 66 5 3 6 10 2 15 -8 13 13 29 101 78 70 39 251 99 547 180
154 43 184 48 158 30 -20 -14 61 -4 215 26 132 25 175 29 175 16z m-343 -27
c-3 -3 -12 -4 -19 -1 -8 3 -5 6 6 6 11 1 17 -2 13 -5z m6462 -510 c285 -144
361 -191 361 -220 0 -18 37 -93 58 -117 9 -10 12 -21 6 -26 -18 -15 -159 -61
-190 -61 -36 0 -98 -23 -88 -33 4 -3 -5 -11 -19 -16 -50 -19 -346 -88 -341
-79 3 5 -27 46 -68 91 -158 177 -241 267 -245 263 -6 -5 91 -145 179 -258 73
-94 86 -119 38 -73 -34 32 -37 28 -15 -15 17 -32 25 -36 42 -19 12 12 45 9 43
-5 -1 -5 4 -12 11 -17 16 -9 -144 -59 -192 -59 -18 0 -74 -7 -124 -16 -97 -17
-157 -14 -267 14 -56 14 -68 20 -68 37 0 36 40 166 74 239 18 39 46 104 62
145 16 40 42 85 57 100 15 14 43 51 62 81 73 116 211 204 307 194 15 -1 158
-69 317 -150z m22 116 c40 -16 86 -42 102 -58 25 -25 15 -22 -80 25 -59 30
-110 57 -112 59 -12 11 24 1 90 -26z m-3031 -133 c157 -63 303 -120 325 -127
22 -7 43 -14 47 -17 4 -2 -11 -22 -32 -43 -22 -22 -40 -46 -40 -54 0 -7 -11
-25 -25 -41 -14 -15 -36 -48 -49 -74 -12 -25 -37 -71 -55 -101 -19 -30 -37
-64 -42 -75 -17 -42 -179 -279 -173 -253 11 51 -6 52 -55 5 -47 -46 -51 -48
-182 -63 -44 -6 -48 -4 -121 55 -79 64 -149 140 -187 206 -27 47 -81 199 -81
230 0 15 29 42 112 100 62 43 118 78 125 78 6 0 11 5 10 11 -1 6 7 11 18 11
11 1 19 7 17 14 -2 9 3 11 13 7 9 -3 14 -2 11 3 -4 5 39 41 94 81 55 40 100
74 100 77 0 2 -55 -33 -122 -80 -68 -46 -141 -94 -163 -107 -34 -21 -38 -21
-25 -5 15 19 14 19 -10 4 -14 -9 -62 -39 -107 -68 l-83 -51 0 67 c0 95 20 161
70 229 48 67 83 100 123 118 53 24 176 -11 487 -137z m3047 60 c95 -48 176
-87 179 -87 4 0 0 8 -7 18 -13 15 -12 16 4 3 9 -8 15 -16 12 -19 -2 -3 3 -11
13 -18 9 -8 -37 11 -102 42 -128 59 -286 142 -286 151 0 6 -17 14 187 -90z
m1586 -184 c-19 -49 -36 -89 -37 -90 -2 -2 -36 8 -76 22 -83 28 -105 26 -39
-5 47 -22 46 -22 -67 13 -41 12 -74 25 -74 28 0 4 62 28 138 54 75 26 144 51
152 56 37 21 37 6 3 -78z m-1328 49 c-3 -3 -11 0 -18 7 -9 10 -8 11 6 5 10 -3
15 -9 12 -12z m-2630 -182 c116 -43 392 -145 615 -225 223 -81 480 -174 572
-207 98 -36 165 -65 162 -72 -2 -6 -18 -92 -35 -191 -26 -155 -31 -212 -35
-410 -2 -126 -7 -328 -10 -449 -5 -161 -4 -217 5 -212 7 5 11 -5 11 -29 0 -22
-6 -38 -15 -41 -8 -4 -15 -10 -15 -15 0 -4 6 -6 14 -3 10 4 15 -12 20 -63 3
-37 8 -81 11 -98 4 -26 4 -27 -3 -5 -8 24 -8 24 -15 -9 -4 -18 -7 -57 -7 -85
0 -29 -4 -56 -9 -62 -6 -5 -17 -25 -25 -45 -15 -36 -15 -37 4 -32 11 3 20 10
20 15 0 5 5 6 10 3 6 -3 10 -34 10 -68 0 -94 58 -537 85 -648 3 -15 -2 -36
-15 -56 l-20 -33 -47 29 c-49 28 -260 158 -653 400 -243 150 -382 242 -375
249 2 3 15 -2 27 -10 114 -73 96 -55 -42 44 -58 41 -181 130 -275 198 -93 67
-161 113 -150 101 53 -60 724 -562 770 -577 31 -10 158 -94 178 -117 10 -12
16 -16 12 -9 -6 11 -3 12 11 4 11 -6 28 -18 39 -27 19 -16 18 -16 -10 0 -75
41 24 -29 262 -185 214 -141 251 -168 246 -185 -5 -17 -4 -18 10 -7 12 10 21
11 36 2 12 -6 20 -14 19 -18 -4 -19 16 -82 31 -99 10 -11 26 -44 36 -74 26
-77 83 -212 93 -218 11 -7 45 -71 38 -71 -14 0 -557 205 -596 225 -25 13 -142
62 -260 110 -118 48 -351 145 -517 216 -166 71 -308 129 -315 129 -24 0 11
-23 138 -89 70 -36 126 -70 125 -74 -1 -5 6 -15 16 -22 23 -18 40 -22 -303 71
-707 190 -1335 380 -1617 489 l-97 38 27 46 c14 25 77 125 138 221 61 96 134
213 162 260 28 47 88 147 133 223 44 75 86 137 91 137 6 0 7 5 3 12 -4 6 -3 8
3 5 7 -4 64 77 138 194 70 110 131 197 135 192 4 -4 46 -59 94 -120 84 -109
115 -142 79 -85 -9 15 56 -48 146 -140 90 -92 167 -166 171 -165 5 1 52 -38
107 -87 76 -69 62 -53 -65 75 -89 91 -160 167 -157 170 3 3 -7 16 -23 30 l-27
24 25 -30 25 -30 -27 24 c-15 13 -25 28 -22 32 3 5 -41 57 -97 116 -104 111
-159 181 -159 205 0 7 -7 24 -16 36 -15 22 -13 27 48 128 34 57 72 116 83 130
l21 26 109 -26 c61 -15 176 -40 256 -56 81 -16 159 -34 173 -40 14 -5 32 -7
39 -4 8 3 99 -15 203 -40 261 -62 394 -86 467 -86 l62 1 -65 30 c-42 20 -209
67 -468 132 -222 55 -399 103 -393 106 6 4 -60 32 -147 62 -100 35 -158 60
-160 70 -3 15 165 302 239 409 120 174 249 387 245 403 -3 14 0 17 12 12 9 -3
112 -42 227 -85z m3650 69 c-4 -5 -16 -9 -28 -9 -20 0 -20 0 -2 14 21 15 40
12 30 -5z m-89 -28 c-9 -14 20 -21 89 -21 47 0 73 -6 106 -24 24 -13 68 -32
98 -41 49 -16 53 -19 47 -44 -44 -203 -54 -271 -40 -271 3 0 13 9 23 21 l17
21 14 -26 c7 -14 19 -26 25 -26 17 0 56 -75 49 -94 -7 -18 -15 -20 -29 -8 -6
5 -26 15 -45 21 -83 31 -249 115 -243 124 4 6 0 8 -11 4 -9 -4 -15 -3 -12 2 5
7 -64 55 -176 124 -26 16 -26 17 -14 70 7 30 24 69 39 88 14 19 30 46 36 62 6
15 15 27 21 27 6 0 9 -4 6 -9z m-5201 -348 c0 -6 -31 -28 -70 -48 -96 -51
-102 -59 -20 -32 l70 24 -30 -61 c-16 -34 -48 -83 -70 -109 l-39 -47 -127 0
c-69 0 -147 3 -172 6 l-46 7 29 41 c15 23 47 54 69 69 44 29 380 168 396 163
6 -1 10 -8 10 -13z m4243 -46 c-17 -21 -41 -46 -55 -55 -14 -9 -34 -27 -45
-38 -16 -18 -26 -20 -53 -14 -19 4 -37 5 -41 1 -4 -3 -4 -1 0 6 9 16 -32 28
-48 13 -11 -8 -21 -5 -42 15 -16 14 -24 24 -19 23 15 -4 58 29 51 40 -10 16
142 50 216 49 l66 -1 -30 -39z m302 -22 c30 -31 33 -38 22 -55 -6 -11 -12 -27
-12 -35 0 -9 -9 -15 -21 -15 -12 0 -23 -8 -26 -20 -7 -25 -21 -26 -30 -2 -4 9
-15 26 -25 36 -10 11 -14 22 -10 25 14 11 15 81 0 82 -7 1 3 5 22 9 19 4 37 8
41 9 3 0 20 -15 39 -34z m639 -1 c2 -2 -10 -4 -27 -4 -18 0 -32 5 -32 10 0 9
47 4 59 -6z m198 -134 c316 -154 295 -154 -79 -2 -21 8 -38 19 -38 24 0 5 6 6
13 2 9 -6 9 -4 0 6 -7 8 -33 22 -59 31 -40 16 -45 16 -40 2 5 -13 4 -14 -8 -4
-13 11 -29 51 -20 51 3 0 106 -50 231 -110z m-97 100 c8 -5 11 -10 5 -10 -5 0
-17 5 -25 10 -8 5 -10 10 -5 10 6 0 17 -5 25 -10z m-1425 -20 c17 -19 17 -19
-9 -7 -14 7 -26 15 -26 20 0 13 17 7 35 -13z m-176 -44 c-2 -2 -22 -6 -44 -9
l-40 -6 40 13 c35 12 56 13 44 2z m-418 -111 c188 -68 526 -203 598 -239 l43
-23 -30 -12 c-21 -9 -40 -30 -57 -64 -45 -86 -217 -288 -342 -402 -160 -146
-227 -201 -276 -226 -23 -12 -65 -46 -94 -76 -34 -35 -55 -49 -58 -41 -37 99
-57 175 -61 228 -3 36 -14 98 -25 139 -18 66 -18 85 -9 180 21 202 41 346 55
388 8 23 22 83 31 133 14 76 19 90 33 85 9 -4 95 -35 192 -70z m2088 -26 c157
-47 254 -86 481 -197 254 -123 320 -162 645 -378 246 -163 398 -273 263 -189
-58 36 -74 42 -63 26 3 -5 1 -12 -4 -16 -6 -3 -8 3 -6 15 2 11 0 20 -5 20 -15
0 -22 -40 -10 -55 8 -10 8 -14 -1 -17 -9 -3 -6 -11 9 -26 12 -12 22 -24 21
-27 -2 -11 25 -71 40 -89 15 -18 14 -19 -24 -12 -45 9 -373 106 -551 165 -113
36 -409 165 -416 180 -2 3 -41 33 -87 66 -46 33 -110 90 -141 126 -70 81 -186
258 -182 277 2 8 0 12 -5 9 -4 -3 -9 5 -9 18 -1 12 -18 48 -38 79 -20 31 -33
56 -30 56 4 0 54 -14 113 -31z m-264 -45 c54 -42 125 -145 125 -183 0 -30 45
-127 88 -191 17 -24 30 -46 28 -47 -3 -4 -336 109 -389 131 -21 9 -35 21 -32
26 3 6 3 10 -2 10 -17 0 -105 88 -95 94 6 3 16 32 23 62 10 46 17 58 39 65 14
5 52 22 85 38 33 16 65 30 71 30 6 1 32 -15 59 -35z m-7536 -139 c414 -27 522
-32 622 -28 148 7 252 -8 360 -49 122 -46 192 -116 234 -231 15 -39 17 -66 11
-165 -9 -157 -20 -239 -39 -289 -8 -23 -13 -51 -10 -62 8 -33 -99 -251 -149
-300 -60 -61 -86 -71 -173 -71 -72 0 -81 3 -148 42 -94 54 -379 241 -400 263
-10 9 -115 86 -235 172 -271 194 -300 217 -320 262 -9 20 -33 56 -53 81 -52
65 -69 103 -69 157 0 54 10 72 90 154 74 76 84 81 154 74 32 -4 88 -8 125 -10z
m2610 -73 c108 -37 203 -87 233 -122 11 -13 18 -16 20 -8 3 7 14 -8 26 -33 12
-25 42 -66 67 -91 25 -26 45 -51 45 -55 0 -12 -207 -363 -330 -558 -109 -175
-467 -724 -484 -742 -9 -10 -16 -9 -36 2 -42 24 -72 35 -155 61 -51 16 -66 23
-40 19 32 -4 35 -3 17 5 -13 5 -80 18 -150 28 -107 16 -143 27 -231 66 -133
60 -155 84 -199 211 l-35 100 6 168 c11 311 62 420 316 671 l130 130 110 -47
c61 -26 115 -47 121 -47 27 0 -15 42 -75 75 -36 20 -67 40 -70 45 -7 12 160
93 245 120 197 61 297 61 469 2z m3937 -92 c73 -46 98 -94 110 -205 15 -140
-70 -304 -450 -865 -125 -186 -369 -519 -375 -514 -2 2 0 9 6 16 5 7 15 27 21
43 l12 30 -29 -32 -30 -32 -35 92 c-117 300 -192 523 -184 540 32 64 463 614
524 669 11 9 68 62 129 118 60 55 121 103 135 106 47 10 85 28 98 46 17 23 13
23 68 -12z m4231 -26 c-3 -3 -12 -4 -19 -1 -8 3 -5 6 6 6 11 1 17 -2 13 -5z
m-1582 -304 c10 -11 16 -20 13 -20 -3 0 -13 9 -23 20 -10 11 -16 20 -13 20 3
0 13 -9 23 -20z m-9485 -20 c6 -11 8 -20 6 -20 -3 0 -10 9 -16 20 -6 11 -8 20
-6 20 3 0 10 -9 16 -20z m9531 -17 c13 -16 12 -17 -3 -4 -10 7 -18 15 -18 17
0 8 8 3 21 -13z m941 -47 c46 -13 117 -27 158 -30 72 -7 335 -72 412 -103 21
-8 36 -19 33 -23 -3 -4 4 -19 15 -32 l19 -25 -47 15 c-26 8 -99 36 -162 63
-100 42 -225 89 -237 89 -2 0 -3 -15 -1 -32 3 -28 11 -38 61 -66 31 -18 57
-35 57 -38 0 -9 -75 8 -170 38 -101 33 -180 66 -180 74 0 3 5 2 10 -1 27 -17
4 7 -46 49 -51 42 -54 46 -30 46 14 0 63 -11 108 -24z m-427 -64 c-21 -5 -45
5 -45 17 0 5 13 4 31 -2 21 -8 26 -13 14 -15z m887 -5 c76 -18 144 -39 150
-46 11 -10 7 -11 -17 -6 -49 11 -280 76 -284 81 -8 8 16 3 151 -29z m-1374
-33 c31 -31 37 -40 17 -26 -34 22 -82 72 -71 72 4 0 28 -21 54 -46z m-748
-104 c37 -38 66 -70 63 -70 -22 0 -156 123 -146 134 11 10 14 8 83 -64z m2348
-50 c13 -8 5 -9 -33 -4 -73 10 -103 26 -37 20 28 -3 60 -10 70 -16z m-7322
-72 l29 -33 -32 29 c-18 17 -33 31 -33 33 0 8 8 1 36 -29z m5038 -101 c50 -52
68 -67 51 -42 l-28 40 44 -40 c105 -96 107 -94 17 10 -53 60 -95 111 -93 113
14 15 569 -258 760 -372 327 -197 623 -415 717 -528 24 -28 69 -79 100 -113
31 -33 84 -108 116 -166 l60 -104 11 -124 c6 -68 10 -125 9 -127 -2 -1 -48 26
-103 60 -55 35 -122 75 -149 91 -46 27 -48 27 -35 6 8 -13 74 -66 147 -118
144 -104 142 -100 118 -189 -22 -83 -73 -167 -153 -253 -109 -118 -147 -141
-236 -143 -40 0 -102 2 -139 7 l-67 8 -51 65 c-27 36 -50 73 -50 81 0 19 -35
74 -44 69 -6 -3 -21 17 -60 85 -16 26 -25 47 -22 47 3 0 20 -25 37 -55 17 -30
32 -55 34 -55 12 0 -40 106 -111 223 l-85 142 86 -85 c86 -86 111 -101 53 -33
-18 21 -3 10 34 -24 123 -117 84 -64 -67 89 -83 83 -141 145 -130 138 24 -17
10 0 -121 145 -49 55 -125 151 -169 213 -74 107 -111 152 -85 102 7 -12 8 -20
2 -16 -13 8 -259 388 -271 418 -5 12 -52 92 -105 177 -53 85 -96 158 -96 163
0 13 16 9 30 -7 32 -39 17 4 -41 111 l-62 118 34 -23 c19 -13 69 -60 113 -104z
m-3049 93 c-3 -5 -11 -10 -16 -10 -6 0 -7 5 -4 10 3 6 11 10 16 10 6 0 7 -4 4
-10z m36 -19 c-12 -16 -21 -35 -21 -43 -1 -8 -6 -6 -15 7 -14 17 -13 21 12 42
39 31 48 29 24 -6z m3547 -118 c176 -106 602 -401 602 -419 0 -6 5 -9 -135 79
-280 178 -390 245 -518 319 -143 82 -202 104 -77 28 38 -23 70 -44 70 -46 0
-2 -68 30 -151 72 -83 41 -149 77 -146 80 2 3 37 1 76 -4 59 -7 71 -6 67 5 -6
15 18 2 212 -114z m1110 -4 c34 -11 62 -25 62 -31 0 -10 -28 -4 -76 18 -17 7
-42 18 -55 23 -47 19 8 11 69 -10z m-4768 -64 c0 -8 -4 -17 -10 -20 -6 -4 -10
5 -10 20 0 15 4 24 10 20 6 -3 10 -12 10 -20z m173 -300 c47 -121 97 -250 112
-286 l27 -66 -118 -152 c-78 -101 -120 -148 -125 -139 -16 30 -89 397 -89 448
0 13 1 13 10 0 7 -10 10 30 8 131 -3 124 -1 148 13 162 9 9 22 40 29 69 13 52
28 75 41 60 4 -4 45 -106 92 -227z m4523 -326 c14 -29 14 -29 -5 -17 -11 6
-17 16 -14 20 2 5 -1 16 -9 25 -9 12 -10 15 0 9 6 -4 19 -21 28 -37z m-4386
-93 c0 -2 -8 -10 -17 -17 -16 -13 -17 -12 -4 4 13 16 21 21 21 13z m145 -266
c54 -127 100 -229 102 -227 2 2 -4 20 -12 40 -27 66 -6 39 36 -45 23 -46 65
-119 94 -163 61 -94 97 -165 83 -165 -16 0 -271 130 -428 218 l-145 82 -32 85
-32 85 47 64 c26 35 79 107 117 159 39 53 70 96 71 97 0 0 45 -104 99 -230z
m-870 65 c44 -28 132 -82 195 -119 160 -95 162 -97 157 -103 -3 -3 -54 25
-114 62 -201 125 -343 217 -343 222 0 5 3 3 105 -62z m415 -210 c-7 -8 -17
-12 -22 -9 -5 3 -1 15 9 26 20 22 32 6 13 -17z m-20 -35 c0 -5 -7 -7 -15 -4
-8 4 -12 10 -9 15 6 11 24 2 24 -11z m331 -176 c57 -31 188 -98 290 -149 l186
-94 91 -148 90 -148 -46 -12 c-45 -11 -54 -9 -187 34 -77 25 -151 52 -164 60
-13 8 -64 32 -115 52 l-91 37 -68 137 c-43 86 -72 158 -77 193 -5 31 -12 64
-15 75 -4 10 -5 19 -2 19 2 0 50 -25 108 -56z m4869 -242 c-25 -4 -35 2 -26
17 5 7 13 7 27 -2 20 -12 20 -12 -1 -15z m-4019 -196 c-1 -7 -88 -55 -122 -68
-16 -6 -81 74 -152 188 l-26 42 150 -78 c83 -42 150 -80 150 -84z m-669 -40
c90 -35 279 -132 271 -140 -10 -10 -73 -6 -140 8 -64 14 -141 66 -135 92 1 7
-6 15 -16 18 -19 6 -61 46 -49 46 4 0 35 -11 69 -24z m648 -156 c8 -5 11 -10
5 -10 -5 0 -17 5 -25 10 -8 5 -10 10 -5 10 6 0 17 -5 25 -10z m13 -134 c3 3
11 -5 18 -17 12 -23 12 -23 -14 -6 -15 9 -34 17 -44 17 -15 0 -16 2 -3 10 9 5
19 5 26 0 6 -6 13 -7 17 -4z"/>
<path d="M4583 6660 c-13 -5 -23 -11 -23 -13 0 -8 50 5 56 14 6 11 -4 11 -33
-1z"/>
<path d="M6069 6062 c-90 -94 -99 -113 -14 -30 44 43 77 80 74 82 -3 3 -30
-20 -60 -52z"/>
<path d="M5520 5543 l-55 -58 58 55 c53 50 62 60 54 60 -1 0 -27 -26 -57 -57z"/>
<path d="M5439 5473 c-13 -16 -12 -17 4 -4 9 7 17 15 17 17 0 8 -8 3 -21 -13z"/>
<path d="M1690 5825 c-117 -33 -212 -66 -172 -59 53 9 299 83 277 83 -11 0
-58 -11 -105 -24z"/>
<path d="M5490 4897 c-60 -58 -68 -64 -27 -20 31 34 57 65 57 70 -1 4 -35 -28
-76 -71 -51 -55 -71 -83 -64 -90 7 -7 40 19 107 86 54 54 95 99 92 102 -3 3
-43 -32 -89 -77z m-80 -81 c0 -2 -8 -10 -17 -17 -16 -13 -17 -12 -4 4 13 16
21 21 21 13z"/>
<path d="M7046 2975 c-27 -18 -54 -39 -60 -46 -6 -6 17 7 52 30 34 23 62 44
62 46 0 7 -1 7 -54 -30z"/>
<path d="M7093 2979 c-58 -41 -54 -46 7 -8 28 17 50 33 50 35 0 9 -18 1 -57
-27z"/>
<path d="M7403 4303 c9 -2 23 -2 30 0 6 3 -1 5 -18 5 -16 0 -22 -2 -12 -5z"/>
<path d="M10980 2507 c0 -2 15 -16 33 -33 l32 -29 -29 33 c-28 30 -36 37 -36
29z"/>
<path d="M11060 2437 c0 -2 15 -16 33 -33 l32 -29 -29 33 c-28 30 -36 37 -36
29z"/>
<path d="M11440 2106 c0 -5 190 -144 235 -171 46 -29 18 -4 -65 57 -107 77
-170 120 -170 114z"/>
<path d="M9675 8946 c-60 -30 -107 -55 -104 -55 4 -1 58 23 120 53 63 30 110
55 104 55 -5 1 -59 -24 -120 -53z"/>
<path d="M10780 4420 c8 -5 20 -10 25 -10 6 0 3 5 -5 10 -8 5 -19 10 -25 10
-5 0 -3 -5 5 -10z"/>
<path d="M766 3009 c-4 -9 -6 -51 -4 -95 l3 -79 14 74 c9 51 10 80 3 95 -8 18
-11 18 -16 5z"/>
<path d="M730 2830 c0 -25 20 -89 30 -95 6 -4 7 7 3 27 -7 38 -32 90 -33 68z"/>
</g>
</svg>
