<?xml version="1.0" encoding="UTF-8" standalone="no"?>
<!-- Created with Inkscape (http://www.inkscape.org/) -->

<svg
   xmlns:dc="http://purl.org/dc/elements/1.1/"
   xmlns:cc="http://creativecommons.org/ns#"
   xmlns:rdf="http://www.w3.org/1999/02/22-rdf-syntax-ns#"
   xmlns:svg="http://www.w3.org/2000/svg"
   xmlns="http://www.w3.org/2000/svg"
   xmlns:sodipodi="http://sodipodi.sourceforge.net/DTD/sodipodi-0.dtd"
   xmlns:inkscape="http://www.inkscape.org/namespaces/inkscape"
   version="1.1"
   id="svg1446"
   xml:space="preserve"
   width="816"
   height="816"
   viewBox="0 0 816 816"
   sodipodi:docname="feather--publicdomainvectors-image [Converted].svg"
   inkscape:version="0.92.4 (5da689c313, 2019-01-14)"><metadata
     id="metadata1452"><rdf:RDF><cc:Work
         rdf:about=""><dc:format>image/svg+xml</dc:format><dc:type
           rdf:resource="http://purl.org/dc/dcmitype/StillImage" /><dc:title></dc:title></cc:Work></rdf:RDF></metadata><defs
     id="defs1450"><clipPath
       clipPathUnits="userSpaceOnUse"
       id="clipPath1462"><path
         d="M 0,612 H 612 V 0 H 0 Z"
         id="path1460"
         inkscape:connector-curvature="0" /></clipPath></defs><sodipodi:namedview
     pagecolor="#ffffff"
     bordercolor="#666666"
     borderopacity="1"
     objecttolerance="10"
     gridtolerance="10"
     guidetolerance="10"
     inkscape:pageopacity="0"
     inkscape:pageshadow="2"
     inkscape:window-width="1920"
     inkscape:window-height="1018"
     id="namedview1448"
     showgrid="false"
     inkscape:zoom="0.87694328"
     inkscape:cx="452.94915"
     inkscape:cy="359.59322"
     inkscape:window-x="-8"
     inkscape:window-y="-8"
     inkscape:window-maximized="1"
     inkscape:current-layer="g1454" /><g
     id="g1454"
     inkscape:groupmode="layer"
     inkscape:label="feather--publicdomainvectors-image [Converted]"
     transform="matrix(1.3333333,0,0,-1.3333333,0,816)"><g
       id="g1456"><g
         id="g1458"
         clip-path="url(#clipPath1462)"><path
           d="m 327.602,536.322 c 7.914,15.538 15.072,31.502 18.959,44.003 1.945,6.241 3.046,11.616 3.195,15.433 0.039,0.833 0.029,1.573 -0.006,2.243 -3.777,-14.318 -18.789,-39.086 -33.309,-58.908 l 3.774,-16.819 c 2.482,4.578 4.969,9.294 7.387,14.048 m 1.06,-0.528 c -7.656,-15.717 -16.066,-31.055 -22.723,-42.364 -3.328,-5.655 -6.221,-10.302 -8.333,-13.514 -1.057,-1.609 -1.906,-2.852 -2.516,-3.707 -0.23,-0.32 -0.405,-0.563 -0.55,-0.765 5.668,-10.525 12.391,-19.211 16.421,-21.156 3.324,6.127 7.744,15.066 9.332,29.005 0.646,1.63 -5.018,3.311 -4.318,5.016 0.802,1.962 6.406,1.033 7.261,3.088 15.405,19.235 28.321,63.947 26.621,104.662 -0.002,-0.106 0.004,-0.198 0,-0.304 -0.082,-3.834 -1.097,-9.246 -2.943,-15.536 -3.684,-12.603 -10.586,-28.723 -18.252,-44.425 m -60.423,-85.039 c 0.752,-3.781 1.898,-7.539 3.237,-11.215 1.317,-3.689 2.987,-7.243 4.694,-10.697 0.348,-0.662 0.7,-1.315 1.053,-1.969 l 17.621,39.994 c -5.431,12.073 -9.939,24.574 -11.265,34.716 l 1.186,1.03 c 1.007,-7.722 4.402,-16.71 8.556,-24.85 0.588,0.799 1.399,1.948 2.398,3.414 2.139,3.137 5.094,7.706 8.505,13.282 3.522,5.757 7.534,12.59 11.678,19.988 l -4.48,17.962 c -1.967,-2.549 -3.901,-4.978 -5.765,-7.229 -1.037,-1.251 -0.617,-6.574 -1.617,-7.742 -0.797,-0.932 -2.079,3.101 -3.04,2.446 -7.039,-4.81 -12.065,-10.09 -15.317,-13.96 -3.879,-4.617 -15.686,-21.543 -18.915,-41.692 0.001,-0.746 0.005,-1.495 0.022,-2.252 0.238,-3.67 0.594,-7.46 1.449,-11.226 m 0.515,-77.704 c 0.637,-2.235 -3.201,-3 -2.909,-3.925 4.78,-15.148 8.967,-24.587 8.967,-24.587 6.031,13.955 15.872,28.025 26.907,41.08 -0.035,0.052 -0.062,0.092 -0.099,0.147 -0.523,0.742 -1.25,1.738 -2.316,3.119 -0.901,1.173 -2.005,2.575 -3.248,4.16 l -37.598,-4.819 c 1.111,-3.489 2.486,-6.751 4.367,-11.321 0.302,-0.731 5.354,-1.836 5.929,-3.854 m -13.134,28.278 31.609,3.417 c -2.687,3.777 -5.496,7.991 -8.182,12.59 -1.91,3.244 -3.705,6.703 -5.406,10.273 -1.62,3.609 -3.193,7.315 -4.407,11.154 -1.234,3.825 -2.263,7.724 -2.891,11.633 -0.384,2.044 -0.622,4.089 -0.782,6.115 -11.23,-18.129 -12.076,-35.644 -11.701,-40.47 0.631,-6.116 1.191,-10.846 1.76,-14.712 m 63.734,119.365 -3.842,17.13 c -1.063,-1.436 -2.119,-2.842 -3.166,-4.214 l 4.4,-17.648 c 0.865,1.555 1.736,3.135 2.608,4.732 m -30.529,-118.162 -32.843,-3.549 c 0.552,-3.361 1.125,-6.031 1.792,-8.453 l 36.584,4.689 c -1.203,1.547 -2.505,3.238 -3.874,5.064 -0.543,0.727 -1.099,1.482 -1.659,2.249 m 17.414,33.62 c -1.191,2.105 -0.473,8.871 -1.666,11.085 -1.448,2.687 -2.916,5.51 -4.373,8.407 l -17.275,-38.329 c 3.611,-5.507 7.352,-10.409 10.718,-14.574 3.721,-4.593 6.964,-8.314 9.207,-11.021 0.774,-0.929 1.452,-1.773 1.992,-2.462 7.049,8.063 14.469,15.687 21.629,22.583 0,0 -10.35,19.914 -15.834,26.96 -1.596,2.05 -3.028,-5.07 -4.398,-2.649 m -27.572,-11.883 c 0.886,-1.564 1.796,-3.089 2.731,-4.572 l 17.438,38.693 c -0.903,1.841 -1.798,3.703 -2.673,5.587 z m 52.921,-160.24 -56.091,61.167 c -0.018,-3.402 1.203,-8.771 0.451,-10.849 -0.709,-1.96 -3.046,-1.204 -4.601,-1.669 9.345,-9.715 41.991,-43.79 56.299,-60.567 1.342,3.952 2.657,7.928 3.942,11.918 M 325.85,246.88 c -12.397,14.928 -45.785,49.869 -56.81,61.349 -3.475,-11.133 -6.002,-21.877 -7.601,-31.98 -0.51,-3.222 6.824,-9.061 9.408,-13.221 l 45.987,-40.824 c 3.066,8.014 6.094,16.273 9.016,24.676 m -64.13,9.596 c -0.632,-12.699 -0.169,-24.68 1.06,-35.741 0.246,-2.215 4.991,-8.411 6.693,-11.806 l 30.66,-27.219 c 4.844,10.9 9.894,22.977 14.877,35.769 L 268.913,258.4 c -2.914,-0.212 -7.053,0.898 -7.193,-1.924 m 69.471,-8.644 c 0.067,-0.082 0.135,-0.168 0.2,-0.248 l -0.389,-0.309 c -4.336,-12.571 -8.916,-24.851 -13.527,-36.482 9.33,2.117 26.339,6.348 34.714,8.444 1.844,6.143 3.395,12.48 4.668,18.935 0.452,2.295 -6.361,0.226 -5.976,2.548 0.39,2.355 6.037,5.823 6.359,8.196 1.489,5.737 2.879,12.641 3.99,20.16 -3.416,-0.863 -15.404,-3.869 -24.962,-5.983 -1.641,-5.117 -3.338,-10.211 -5.077,-15.261 m 5.914,17.878 c 10.903,2.446 24.225,5.838 24.487,5.903 0.263,1.942 0.51,3.916 0.732,5.921 -2.912,-0.736 -13.885,-3.494 -23.283,-5.614 -0.637,-2.072 -1.281,-4.143 -1.936,-6.21 M 313.35,200.578 c 9.597,2.178 27.396,6.61 35.488,8.638 0.894,2.418 1.736,4.876 2.527,7.37 -9.314,-2.328 -26.513,-6.592 -34.951,-8.461 -1.021,-2.554 -2.043,-5.064 -3.064,-7.547 m 22.035,75.605 c 4.76,15.756 8.515,30.313 11.277,43.553 l -48.329,52.705 c -9.028,-14.882 -16.42,-29.837 -22.237,-44.387 l 56.326,-61.425 c 1.01,3.18 2,6.365 2.963,9.554 m -41.831,-119.716 -0.084,0.032 c -0.127,-0.332 -0.27,-0.678 -0.408,-1.018 -11.333,-24.397 -33.558,-56.212 -42.315,-68.187 1.179,4.942 1.739,9.61 1.703,14.134 15.554,18.849 24.937,33.566 30.495,43.778 3.29,6.045 5.246,10.519 6.335,13.319 3.097,6.243 6.408,13.268 9.84,20.913 l -29.998,26.63 c -1.53,-0.306 -4.302,0.562 -3.942,-1.332 4.503,-23.678 12.317,-41.702 19.182,-51.465 -4.672,-9.797 -14.49,-27.056 -34.017,-50.667 l -0.279,-0.338 0.007,-0.438 c 0.104,-6.264 -0.998,-12.84 -3.369,-20.1 l -2.202,-6.741 4.275,5.658 c 0.347,0.459 32.858,43.618 44.931,70.306 26.37,7.419 43.599,28.731 54.105,55.564 -9.211,-2.305 -27.002,-6.721 -35.569,-8.615 -6.542,-15.754 -12.977,-29.912 -18.69,-41.433 m 62.96,187.38 c -0.139,1.248 -0.317,2.449 -0.494,3.649 -2.551,-23.501 -9.231,-49.964 -16.094,-72.684 -0.028,-0.093 -0.059,-0.186 -0.086,-0.279 10.551,2.408 22.502,5.452 22.637,5.487 l 0.082,-0.32 c 2.265,22.274 1.638,47.521 -6.045,64.147 m -8.696,-18.353 -46.896,51.141 c 7.199,11.459 15.361,22.847 24.557,33.94 l 0.992,1.266 c 11.271,-18.898 20.498,-32.333 25.82,-48.504 -0.215,-10.782 -1.713,-23.464 -4.473,-37.843"
           style="fill:#231f20;fill-opacity:1;fill-rule:nonzero;stroke:none"
           id="path1464"
           inkscape:connector-curvature="0" /></g></g></g></svg>