<?xml version="1.0" encoding="UTF-8" standalone="no"?>
<!-- Created with Inkscape (http://www.inkscape.org/) -->

<svg
   xmlns:dc="http://purl.org/dc/elements/1.1/"
   xmlns:cc="http://creativecommons.org/ns#"
   xmlns:rdf="http://www.w3.org/1999/02/22-rdf-syntax-ns#"
   xmlns:svg="http://www.w3.org/2000/svg"
   xmlns="http://www.w3.org/2000/svg"
   xmlns:sodipodi="http://sodipodi.sourceforge.net/DTD/sodipodi-0.dtd"
   xmlns:inkscape="http://www.inkscape.org/namespaces/inkscape"
   version="1.1"
   id="svg1670"
   xml:space="preserve"
   width="816"
   height="816"
   viewBox="0 0 816 816"
   sodipodi:docname="coffee-cigarettes-publicdomainvectors.org [Converted].svg"
   inkscape:version="0.92.4 (5da689c313, 2019-01-14)"><metadata
     id="metadata1676"><rdf:RDF><cc:Work
         rdf:about=""><dc:format>image/svg+xml</dc:format><dc:type
           rdf:resource="http://purl.org/dc/dcmitype/StillImage" /><dc:title></dc:title></cc:Work></rdf:RDF></metadata><defs
     id="defs1674"><clipPath
       clipPathUnits="userSpaceOnUse"
       id="clipPath1686"><path
         d="M 0,612 H 612 V 0 H 0 Z"
         id="path1684"
         inkscape:connector-curvature="0" /></clipPath></defs><sodipodi:namedview
     pagecolor="#ffffff"
     bordercolor="#666666"
     borderopacity="1"
     objecttolerance="10"
     gridtolerance="10"
     guidetolerance="10"
     inkscape:pageopacity="0"
     inkscape:pageshadow="2"
     inkscape:window-width="1920"
     inkscape:window-height="1018"
     id="namedview1672"
     showgrid="false"
     inkscape:zoom="0.88325222"
     inkscape:cx="432.20339"
     inkscape:cy="394.16949"
     inkscape:window-x="-8"
     inkscape:window-y="-8"
     inkscape:window-maximized="1"
     inkscape:current-layer="g1678" /><g
     id="g1678"
     inkscape:groupmode="layer"
     inkscape:label="coffee-cigarettes-publicdomainvectors.org [Converted]"
     transform="matrix(1.3333333,0,0,-1.3333333,0,816)"><g
       id="g1680"><g
         id="g1682"
         clip-path="url(#clipPath1686)"><path
           d="m 259.094,207.826 c -0.593,0.324 -1.091,0.781 -1.468,1.285 -0.377,0.522 -0.48,1.178 -0.399,1.696 0.071,0.529 0.281,0.931 0.458,1.238 0.177,0.305 0.351,0.531 0.455,0.676 0.107,0.142 0.165,0.217 0.165,0.217 0.118,0.158 0.341,0.189 0.499,0.072 0.156,-0.119 0.189,-0.344 0.071,-0.5 -0.003,-0.002 -0.005,-0.008 -0.008,-0.01 0,0 -0.059,-0.074 -0.172,-0.213 -0.109,-0.141 -0.261,-0.328 -0.424,-0.594 -0.164,-0.261 -0.343,-0.593 -0.405,-0.986 -0.066,-0.387 -0.022,-0.84 0.263,-1.266 0.296,-0.41 0.708,-0.832 1.257,-1.15 0.256,-0.186 0.549,-0.33 0.85,-0.48 0.294,-0.161 0.613,-0.291 0.94,-0.422 0.644,-0.282 1.349,-0.485 2.055,-0.715 0.722,-0.197 1.454,-0.395 2.187,-0.594 1.472,-0.392 2.942,-0.787 4.321,-1.154 1.379,-0.365 2.644,-0.803 3.739,-1.127 1.097,-0.319 1.978,-0.686 2.609,-0.897 0.316,-0.107 0.556,-0.213 0.722,-0.279 0.165,-0.068 0.253,-0.103 0.253,-0.103 0,0 -0.089,0.033 -0.257,0.095 -0.167,0.063 -0.409,0.16 -0.728,0.258 -0.637,0.193 -1.526,0.533 -2.632,0.818 -1.104,0.293 -2.372,0.692 -3.761,1.016 -1.39,0.328 -2.871,0.678 -4.353,1.027 -0.742,0.18 -1.484,0.358 -2.214,0.532 -0.724,0.214 -1.446,0.398 -2.119,0.672 -0.341,0.121 -0.673,0.246 -0.988,0.406 -0.32,0.146 -0.632,0.293 -0.916,0.482 m 90.529,95.252 c 0.824,2.117 3.365,7.197 5.891,11.932 1.591,-0.744 3.404,-1.119 5.398,-1.119 7.534,0 16.402,5.386 21.741,9.855 -8.082,-11.545 -26.878,-18.601 -33.03,-20.668 m -116.94,67.421 c 2.166,0 3.921,-1.756 3.921,-3.922 0,-2.165 -1.755,-3.921 -3.921,-3.921 -2.165,0 -3.921,1.756 -3.921,3.921 0,2.166 1.756,3.922 3.921,3.922 M 175.361,221.018 c 0,-2.498 -2.026,-4.524 -4.523,-4.524 -2.497,0 -4.523,2.026 -4.523,4.524 0,2.496 2.026,4.521 4.523,4.521 2.497,0 4.523,-2.025 4.523,-4.521 m -9.535,16.837 c 0,-1.265 -1.029,-2.292 -2.295,-2.292 -1.267,0 -2.295,1.027 -2.295,2.292 0,1.268 1.028,2.295 2.295,2.295 1.266,0 2.295,-1.027 2.295,-2.295 m 253.439,33.272 c 0,-1.266 -1.029,-2.293 -2.295,-2.293 -1.267,0 -2.294,1.027 -2.294,2.293 0,1.268 1.027,2.295 2.294,2.295 1.266,0 2.295,-1.027 2.295,-2.295 m -12.81,17.668 c 0,-1.969 -1.596,-3.565 -3.564,-3.565 -1.97,0 -3.566,1.596 -3.566,3.565 0,1.969 1.596,3.564 3.566,3.564 1.968,0 3.564,-1.595 3.564,-3.564 m -56.075,96.92 c -0.214,-0.037 -0.453,-0.084 -0.714,-0.136 0.199,-11.944 -1.646,-31.146 -6.151,-51.416 -4.155,-18.692 -11.692,-43.425 -24.579,-60.419 l 1.853,-4.621 c 0,0 -0.803,-0.213 -2.206,-0.586 -0.699,-0.182 -1.524,-0.316 -2.478,-0.514 -0.953,-0.203 -2.007,-0.316 -3.162,-0.5 -1.151,-0.152 -2.389,-0.271 -3.696,-0.402 -1.308,-0.082 -2.678,-0.225 -4.095,-0.262 -0.707,-0.029 -1.424,-0.058 -2.152,-0.088 -0.727,-0.007 -1.46,-0.017 -2.2,-0.027 -1.478,-0.035 -2.982,0.024 -4.474,0.041 -1.499,0.067 -2.989,0.106 -4.457,0.221 -1.467,0.101 -2.906,0.217 -4.296,0.381 -1.388,0.127 -2.728,0.345 -3.991,0.519 -1.265,0.199 -2.454,0.432 -3.545,0.643 -1.09,0.267 -2.081,0.461 -2.957,0.722 -0.872,0.27 -1.633,0.469 -2.235,0.692 -1.199,0.463 -1.883,0.728 -1.883,0.728 0,0 0.724,-0.127 1.99,-0.345 0.635,-0.1 1.41,-0.143 2.282,-0.233 0.872,-0.082 1.885,-0.078 2.964,-0.125 1.09,0.008 2.265,0.012 3.507,0.065 1.247,0.076 2.551,0.121 3.903,0.265 1.35,0.108 2.741,0.274 4.15,0.455 1.409,0.17 2.835,0.416 4.255,0.635 1.417,0.268 2.835,0.492 4.214,0.805 0.689,0.146 1.373,0.293 2.048,0.437 0.669,0.163 1.33,0.323 1.982,0.481 1.304,0.295 2.53,0.682 3.705,0.99 0.063,0.02 0.124,0.037 0.188,0.057 1.704,1.822 3.332,3.816 4.887,5.955 -0.697,-0.072 -1.417,-0.145 -2.156,-0.194 -1.509,-0.109 -3.096,-0.228 -4.734,-0.275 -1.637,-0.086 -3.328,-0.098 -5.04,-0.117 -1.712,-0.008 -3.451,0.023 -5.184,0.07 -1.735,0.074 -3.465,0.125 -5.167,0.264 -1.699,0.098 -3.369,0.269 -4.982,0.437 -1.61,0.157 -3.165,0.405 -4.631,0.596 -1.466,0.268 -2.848,0.463 -4.114,0.748 -1.264,0.297 -2.42,0.498 -3.437,0.815 -1.01,0.298 -1.903,0.5 -2.6,0.767 -1.405,0.506 -2.208,0.793 -2.208,0.793 0,0 0.841,-0.148 2.312,-0.408 0.734,-0.149 1.639,-0.191 2.657,-0.315 1.011,-0.134 2.192,-0.138 3.45,-0.214 1.263,-0.067 2.644,-0.024 4.089,-0.041 1.453,0.058 2.977,0.076 4.555,0.189 1.579,0.106 3.204,0.217 4.853,0.402 1.648,0.145 3.318,0.383 4.982,0.594 1.662,0.24 3.322,0.494 4.945,0.779 1.621,0.299 3.216,0.582 4.74,0.926 1.532,0.309 2.991,0.676 4.371,1.016 1.382,0.334 2.655,0.728 3.841,1.049 1.154,0.379 2.23,0.699 3.141,1.027 0.899,0.342 1.698,0.623 2.321,0.881 0.051,0.021 0.094,0.043 0.143,0.062 0.657,1.217 1.296,2.461 1.921,3.729 -1.134,-0.164 -2.38,-0.338 -3.73,-0.498 -1.503,-0.139 -3.129,-0.348 -4.842,-0.442 -0.855,-0.058 -1.734,-0.117 -2.633,-0.179 -0.896,-0.035 -1.812,-0.073 -2.744,-0.112 -1.859,-0.097 -3.782,-0.078 -5.727,-0.117 -1.95,0.03 -3.923,0.012 -5.898,0.102 -0.985,0.037 -1.97,0.076 -2.951,0.113 -0.981,0.063 -1.957,0.125 -2.926,0.186 -1.935,0.101 -3.838,0.326 -5.671,0.49 -1.834,0.217 -3.603,0.432 -5.273,0.685 -1.668,0.295 -3.245,0.497 -4.686,0.834 -1.441,0.311 -2.759,0.563 -3.917,0.903 -1.153,0.326 -2.172,0.541 -2.968,0.845 -1.613,0.549 -2.534,0.862 -2.534,0.862 0,0 0.958,-0.174 2.635,-0.477 0.835,-0.183 1.868,-0.242 3.032,-0.39 1.158,-0.161 2.493,-0.215 3.936,-0.305 1.439,-0.119 3.018,-0.084 4.669,-0.129 1.657,-0.004 3.404,0.047 5.207,0.104 1.805,0.107 3.663,0.164 5.552,0.349 0.943,0.078 1.893,0.16 2.846,0.242 0.952,0.106 1.907,0.211 2.862,0.319 1.907,0.195 3.806,0.5 5.674,0.75 1.859,0.318 3.693,0.574 5.447,0.933 0.877,0.168 1.739,0.332 2.584,0.496 0.836,0.184 1.654,0.364 2.451,0.539 1.598,0.329 3.067,0.75 4.438,1.084 1.352,0.371 2.575,0.739 3.653,1.061 1.046,0.361 1.956,0.674 2.708,0.932 1.408,0.576 2.213,0.906 2.213,0.906 l 0.49,-1.379 c 0.629,1.545 1.237,3.113 1.826,4.699 -0.777,-0.135 -1.644,-0.287 -2.602,-0.453 -1.376,-0.17 -2.93,-0.414 -4.613,-0.58 -1.681,-0.16 -3.5,-0.359 -5.417,-0.465 -1.917,-0.146 -3.935,-0.23 -6.02,-0.307 -2.084,-0.084 -4.237,-0.085 -6.418,-0.111 -2.186,0.033 -4.397,0.018 -6.61,0.121 -1.106,0.045 -2.21,0.071 -3.31,0.129 -1.099,0.068 -2.194,0.137 -3.281,0.205 -2.17,0.119 -4.303,0.369 -6.36,0.541 -2.057,0.272 -4.044,0.459 -5.916,0.774 -1.873,0.304 -3.641,0.554 -5.259,0.918 -0.807,0.164 -1.582,0.324 -2.319,0.474 -0.736,0.149 -1.429,0.356 -2.08,0.514 -1.3,0.346 -2.437,0.598 -3.338,0.922 -1.819,0.594 -2.858,0.931 -2.858,0.931 0,0 1.075,-0.199 2.957,-0.544 0.937,-0.206 2.095,-0.303 3.406,-0.469 0.658,-0.071 1.347,-0.18 2.089,-0.233 0.741,-0.048 1.52,-0.103 2.334,-0.16 1.619,-0.144 3.388,-0.158 5.248,-0.213 1.859,-0.062 3.831,0.014 5.856,0.018 2.033,0.098 4.125,0.131 6.252,0.297 1.062,0.074 2.132,0.15 3.206,0.224 1.074,0.086 2.149,0.203 3.225,0.305 2.15,0.184 4.293,0.484 6.399,0.732 2.101,0.305 4.169,0.582 6.154,0.93 1.986,0.34 3.9,0.676 5.697,1.059 1.807,0.34 3.482,0.756 5.032,1.113 1.548,0.365 2.925,0.777 4.161,1.098 1.198,0.377 2.241,0.705 3.098,0.974 1.617,0.616 2.543,0.963 2.543,0.963 l 1.045,-3.111 c 0.713,2.172 1.39,4.365 2.032,6.572 -0.079,-0.017 -0.148,-0.033 -0.228,-0.049 -1.104,-0.183 -2.447,-0.429 -3.974,-0.66 -1.52,-0.178 -3.237,-0.451 -5.096,-0.611 -1.861,-0.182 -3.872,-0.373 -5.994,-0.488 -2.122,-0.165 -4.357,-0.231 -6.664,-0.325 -2.31,-0.064 -4.692,-0.103 -7.111,-0.103 -2.419,0.021 -4.871,0.029 -7.324,0.137 -2.45,0.058 -4.899,0.22 -7.305,0.365 -1.202,0.056 -2.395,0.189 -3.571,0.285 -1.177,0.111 -2.339,0.191 -3.479,0.322 -1.139,0.137 -2.26,0.27 -3.356,0.401 -0.547,0.066 -1.089,0.132 -1.624,0.197 -0.533,0.082 -1.06,0.164 -1.58,0.244 -1.038,0.162 -2.047,0.318 -3.023,0.471 -0.975,0.144 -1.91,0.365 -2.81,0.531 -0.897,0.178 -1.757,0.35 -2.574,0.51 -0.816,0.185 -1.586,0.39 -2.309,0.566 -1.444,0.365 -2.703,0.65 -3.707,1 -2.026,0.637 -3.183,1 -3.183,1 0,0 1.192,-0.223 3.28,-0.615 1.039,-0.229 2.323,-0.36 3.779,-0.547 0.73,-0.086 1.5,-0.195 2.318,-0.281 0.822,-0.063 1.687,-0.129 2.591,-0.198 0.903,-0.056 1.836,-0.164 2.812,-0.189 0.973,-0.035 1.981,-0.07 3.016,-0.105 0.516,-0.02 1.04,-0.038 1.57,-0.055 0.532,-0.002 1.069,-0.002 1.614,-0.002 1.085,0 2.194,0.002 3.322,0.002 1.127,0.006 2.276,0.064 3.435,0.094 1.16,0.043 2.332,0.052 3.514,0.138 2.365,0.143 4.761,0.268 7.154,0.498 2.393,0.18 4.78,0.459 7.123,0.721 2.343,0.279 4.643,0.596 6.859,0.924 2.212,0.357 4.35,0.678 6.356,1.076 2.017,0.355 3.896,0.766 5.625,1.147 1.739,0.361 3.279,0.802 4.666,1.134 1.362,0.377 2.522,0.739 3.487,1.016 1.83,0.646 2.875,1.014 2.875,1.014 l 1.162,-3.623 c 0.615,2.351 1.194,4.709 1.737,7.057 -0.164,-0.034 -0.321,-0.067 -0.495,-0.1 -1.207,-0.19 -2.678,-0.459 -4.348,-0.692 -1.665,-0.187 -3.547,-0.482 -5.582,-0.64 -1.019,-0.092 -2.08,-0.19 -3.178,-0.291 -1.095,-0.073 -2.228,-0.147 -3.393,-0.223 -2.327,-0.178 -4.778,-0.231 -7.312,-0.34 -1.265,-0.041 -2.552,-0.045 -3.855,-0.07 -1.301,-0.022 -2.617,-0.049 -3.945,-0.026 -1.327,0.012 -2.665,0.022 -4.006,0.034 -1.342,0.019 -2.689,0.08 -4.034,0.117 -2.69,0.056 -5.379,0.256 -8.02,0.396 -1.321,0.076 -2.629,0.215 -3.921,0.317 -1.293,0.123 -2.569,0.191 -3.821,0.355 -2.504,0.303 -4.923,0.529 -7.204,0.913 -1.139,0.172 -2.249,0.34 -3.321,0.502 -1.069,0.178 -2.098,0.397 -3.087,0.581 -0.985,0.19 -1.932,0.373 -2.83,0.547 -0.893,0.217 -1.741,0.421 -2.537,0.615 -1.589,0.385 -2.97,0.703 -4.078,1.075 -2.231,0.683 -3.507,1.071 -3.507,1.071 0,0 1.31,-0.248 3.603,-0.684 1.143,-0.251 2.55,-0.417 4.152,-0.623 0.799,-0.105 1.65,-0.215 2.547,-0.332 0.905,-0.074 1.856,-0.153 2.849,-0.234 0.991,-0.075 2.02,-0.179 3.091,-0.239 1.07,-0.046 2.177,-0.092 3.316,-0.14 2.269,-0.132 4.678,-0.092 7.155,-0.124 1.238,-0.027 2.504,0.043 3.779,0.06 1.277,0.039 2.567,0.042 3.868,0.11 2.602,0.144 5.239,0.235 7.875,0.467 1.317,0.107 2.634,0.189 3.943,0.314 1.309,0.131 2.611,0.263 3.903,0.393 1.294,0.118 2.572,0.285 3.832,0.442 1.261,0.163 2.509,0.303 3.73,0.477 2.439,0.375 4.803,0.683 7.016,1.098 1.107,0.194 2.185,0.383 3.228,0.567 1.033,0.211 2.031,0.412 2.99,0.607 1.926,0.361 3.631,0.829 5.168,1.171 1.518,0.38 2.801,0.769 3.873,1.056 1.045,0.322 1.828,0.607 2.377,0.784 0.545,0.181 0.834,0.277 0.834,0.277 l 0.836,-2.725 c 0.408,2.015 0.793,4.015 1.151,5.991 -0.006,0 -0.01,-10e-4 -0.016,-0.003 -1.311,-0.196 -2.908,-0.489 -4.721,-0.72 -1.81,-0.206 -3.853,-0.5 -6.069,-0.67 -1.109,-0.099 -2.261,-0.201 -3.456,-0.308 -1.194,-0.076 -2.425,-0.153 -3.692,-0.232 -2.532,-0.191 -5.203,-0.232 -7.957,-0.357 -1.379,-0.022 -2.78,-0.046 -4.199,-0.068 -1.417,-0.031 -2.849,-0.043 -4.297,-0.021 -1.443,0.011 -2.9,0.021 -4.361,0.031 -1.461,0.045 -2.926,0.088 -4.394,0.133 -2.928,0.056 -5.858,0.287 -8.735,0.429 -1.436,0.115 -2.863,0.231 -4.271,0.344 -1.409,0.121 -2.799,0.216 -4.163,0.388 -2.728,0.314 -5.363,0.576 -7.849,0.982 -1.241,0.183 -2.45,0.363 -3.619,0.536 -1.163,0.218 -2.285,0.428 -3.364,0.63 -1.075,0.207 -2.108,0.388 -3.086,0.592 -0.974,0.23 -1.897,0.449 -2.765,0.655 -0.865,0.205 -1.674,0.396 -2.422,0.575 -0.75,0.17 -1.414,0.406 -2.027,0.576 -2.438,0.728 -3.831,1.142 -3.831,1.142 0,0 1.427,-0.274 3.926,-0.754 0.627,-0.109 1.313,-0.279 2.073,-0.372 0.757,-0.102 1.576,-0.212 2.452,-0.329 0.871,-0.116 1.799,-0.242 2.778,-0.373 0.983,-0.103 2.023,-0.181 3.103,-0.279 1.079,-0.091 2.204,-0.189 3.369,-0.288 1.168,-0.055 2.375,-0.112 3.617,-0.171 2.476,-0.156 5.101,-0.153 7.806,-0.194 1.35,-0.036 2.73,0.008 4.122,0.028 1.391,0.027 2.8,0.053 4.219,0.08 2.841,0.145 5.72,0.203 8.598,0.437 1.438,0.099 2.875,0.199 4.305,0.3 1.429,0.132 2.852,0.264 4.264,0.393 1.412,0.121 2.808,0.272 4.187,0.441 1.378,0.16 2.738,0.318 4.077,0.473 2.665,0.391 5.25,0.688 7.673,1.117 1.213,0.199 2.393,0.392 3.534,0.579 1.132,0.217 2.226,0.425 3.275,0.625 2.107,0.375 3.986,0.846 5.669,1.207 1.672,0.383 3.081,0.796 4.262,1.094 1.157,0.328 2.019,0.631 2.626,0.814 l 0.921,0.292 0.014,-0.047 c 0.15,1.037 0.293,2.062 0.426,3.077 -1.174,-0.186 -2.515,-0.408 -3.987,-0.581 -1.955,-0.222 -4.16,-0.519 -6.555,-0.7 -1.197,-0.101 -2.445,-0.209 -3.736,-0.318 -1.288,-0.08 -2.621,-0.163 -3.99,-0.248 -1.369,-0.097 -2.775,-0.156 -4.211,-0.205 -1.436,-0.053 -2.902,-0.109 -4.395,-0.164 -2.983,-0.03 -6.059,-0.141 -9.187,-0.088 -1.563,0.012 -3.137,0.023 -4.719,0.036 -1.579,0.048 -3.166,0.094 -4.752,0.142 l -2.376,0.074 c -0.792,0.043 -1.582,0.086 -2.372,0.129 -1.576,0.085 -3.145,0.17 -4.703,0.255 -1.556,0.126 -3.099,0.25 -4.623,0.374 -1.523,0.119 -3.027,0.24 -4.503,0.421 -1.476,0.163 -2.927,0.324 -4.347,0.481 -1.419,0.141 -2.801,0.388 -4.148,0.569 -1.345,0.197 -2.653,0.389 -3.918,0.573 -1.258,0.233 -2.474,0.458 -3.641,0.674 -1.165,0.224 -2.283,0.404 -3.341,0.637 -1.055,0.245 -2.055,0.477 -2.995,0.696 -0.937,0.217 -1.814,0.422 -2.625,0.611 -0.809,0.19 -1.531,0.435 -2.195,0.617 -2.645,0.771 -4.156,1.213 -4.156,1.213 0,0 1.545,-0.301 4.25,-0.826 0.678,-0.121 1.421,-0.298 2.243,-0.414 0.82,-0.111 1.707,-0.233 2.654,-0.363 0.944,-0.131 1.95,-0.269 3.01,-0.413 1.06,-0.133 2.189,-0.209 3.358,-0.324 1.168,-0.107 2.387,-0.218 3.648,-0.332 1.265,-0.069 2.572,-0.138 3.916,-0.209 1.346,-0.056 2.719,-0.174 4.134,-0.184 1.412,-0.025 2.855,-0.052 4.321,-0.079 1.464,-0.045 2.957,-0.026 4.466,-0.004 1.508,0.017 3.034,0.033 4.572,0.051 1.538,0.058 3.088,0.117 4.645,0.176 0.776,0.029 1.555,0.058 2.335,0.088 l 2.339,0.141 c 1.558,0.098 3.116,0.195 4.667,0.293 1.551,0.131 3.094,0.26 4.624,0.39 3.062,0.229 6.062,0.618 8.964,0.915 1.448,0.187 2.87,0.373 4.263,0.554 1.392,0.176 2.752,0.359 4.067,0.576 1.318,0.204 2.6,0.403 3.838,0.595 1.231,0.221 2.42,0.433 3.562,0.638 2.289,0.386 4.341,0.861 6.169,1.24 1.828,0.386 3.361,0.823 4.65,1.128 0.727,0.193 1.333,0.376 1.854,0.537 0.107,1.131 0.206,2.241 0.293,3.322 -0.817,-0.122 -1.677,-0.244 -2.594,-0.345 -2.102,-0.239 -4.471,-0.537 -7.044,-0.731 -1.288,-0.104 -2.628,-0.242 -4.015,-0.33 -1.385,-0.084 -2.818,-0.171 -4.291,-0.261 -1.47,-0.105 -2.983,-0.153 -4.527,-0.211 -1.545,-0.054 -3.121,-0.132 -4.725,-0.168 -3.209,-0.04 -6.517,-0.144 -9.882,-0.091 -1.682,0.016 -3.375,0.006 -5.075,0.044 -1.7,0.048 -3.407,0.098 -5.113,0.146 -1.705,0.033 -3.41,0.13 -5.106,0.222 -1.696,0.092 -3.385,0.185 -5.061,0.275 -1.674,0.133 -3.334,0.265 -4.974,0.395 -0.819,0.065 -1.633,0.131 -2.442,0.193 -0.807,0.088 -1.608,0.174 -2.403,0.259 -1.588,0.173 -3.149,0.343 -4.677,0.51 -1.527,0.166 -3.014,0.415 -4.464,0.61 -1.448,0.212 -2.857,0.393 -4.216,0.615 -1.355,0.246 -2.663,0.484 -3.92,0.712 -1.254,0.24 -2.459,0.42 -3.596,0.681 -1.135,0.26 -2.212,0.506 -3.224,0.737 -1.009,0.231 -1.953,0.448 -2.827,0.647 -0.869,0.21 -1.65,0.462 -2.365,0.659 -2.85,0.815 -4.479,1.283 -4.479,1.283 0,0 1.662,-0.327 4.573,-0.896 0.728,-0.135 1.53,-0.32 2.412,-0.454 0.883,-0.124 1.837,-0.258 2.857,-0.401 1.018,-0.143 2.099,-0.295 3.24,-0.454 1.139,-0.161 2.357,-0.237 3.613,-0.368 1.26,-0.119 2.572,-0.243 3.929,-0.371 1.359,-0.105 2.77,-0.164 4.216,-0.251 1.447,-0.07 2.929,-0.19 4.45,-0.225 1.52,-0.035 3.074,-0.07 4.654,-0.106 0.789,-0.018 1.584,-0.035 2.385,-0.052 0.803,0.005 1.611,0.011 2.424,0.016 1.624,0.01 3.268,0.02 4.925,0.03 1.656,0.052 3.327,0.104 5.003,0.155 1.675,0.052 3.356,0.101 5.035,0.213 1.68,0.095 3.359,0.191 5.032,0.285 1.67,0.107 3.333,0.26 4.983,0.385 3.298,0.23 6.535,0.61 9.664,0.918 1.564,0.168 3.095,0.377 4.597,0.559 1.5,0.186 2.969,0.359 4.39,0.583 1.422,0.21 2.804,0.414 4.142,0.611 1.336,0.2 2.613,0.443 3.845,0.65 2.472,0.399 4.694,0.877 6.67,1.274 1.732,0.341 3.205,0.729 4.485,1.033 0.038,1.285 0.055,2.504 0.052,3.647 -0.132,-0.014 -0.256,-0.033 -0.388,-0.046 -2.247,-0.255 -4.78,-0.556 -7.534,-0.76 -2.753,-0.261 -5.734,-0.433 -8.883,-0.617 -1.575,-0.112 -3.193,-0.151 -4.845,-0.219 -1.654,-0.054 -3.34,-0.147 -5.057,-0.171 -3.433,-0.05 -6.974,-0.145 -10.576,-0.094 -1.799,0.02 -3.611,-0.003 -5.432,0.051 -1.819,0.051 -3.645,0.102 -5.472,0.152 -1.825,0.033 -3.651,0.15 -5.467,0.24 -1.816,0.101 -3.624,0.17 -5.417,0.297 -1.792,0.139 -3.569,0.278 -5.325,0.415 -0.877,0.069 -1.748,0.139 -2.614,0.209 -0.864,0.091 -1.722,0.183 -2.573,0.274 -1.699,0.183 -3.372,0.361 -5.007,0.536 -1.635,0.192 -3.227,0.442 -4.78,0.651 -1.55,0.229 -3.061,0.408 -4.514,0.658 -1.451,0.258 -2.852,0.51 -4.198,0.751 -1.343,0.256 -2.634,0.437 -3.852,0.725 -1.216,0.274 -2.369,0.533 -3.453,0.778 -1.081,0.244 -2.094,0.471 -3.03,0.682 -0.929,0.231 -1.768,0.49 -2.535,0.699 -3.056,0.862 -4.803,1.355 -4.803,1.355 0,0 1.781,-0.352 4.896,-0.968 0.781,-0.146 1.64,-0.338 2.582,-0.494 0.947,-0.135 1.968,-0.28 3.061,-0.436 1.09,-0.156 2.249,-0.322 3.471,-0.496 1.217,-0.187 2.523,-0.264 3.869,-0.412 1.348,-0.132 2.754,-0.269 4.207,-0.411 1.454,-0.132 2.968,-0.188 4.516,-0.292 1.549,-0.084 3.138,-0.205 4.766,-0.265 1.629,-0.043 3.293,-0.089 4.985,-0.133 0.846,-0.024 1.698,-0.046 2.557,-0.069 h 2.596 c 1.741,0.003 3.502,0.007 5.278,0.011 1.776,0.017 3.566,0.091 5.362,0.135 1.795,0.055 3.597,0.081 5.397,0.195 1.8,0.093 3.601,0.187 5.393,0.28 1.792,0.09 3.575,0.255 5.343,0.377 3.537,0.231 7.008,0.605 10.363,0.921 1.679,0.159 3.322,0.382 4.934,0.564 1.608,0.195 3.185,0.359 4.71,0.591 3.053,0.425 5.938,0.823 8.576,1.289 2.653,0.41 5.046,0.893 7.169,1.307 1.067,0.194 2.045,0.416 2.945,0.628 0.902,0.207 1.73,0.398 2.479,0.569 1.49,0.348 2.59,0.705 3.373,0.905 0.771,0.214 1.183,0.327 1.183,0.327 0,0 1.897,-9.052 1.013,-9.224 M 486.984,285.279 c -0.445,0.037 -0.683,0.055 -0.683,0.055 0,0 0.238,0.004 0.687,0.01 0.448,0.011 1.104,0.004 1.94,0.043 1.67,0.056 4.054,0.156 6.912,0.359 2.857,0.188 6.185,0.475 9.742,0.824 1.777,0.198 3.615,0.369 5.475,0.61 0.929,0.113 1.867,0.228 2.808,0.341 0.94,0.131 1.881,0.26 2.824,0.391 1.885,0.246 3.758,0.568 5.604,0.854 1.84,0.308 3.645,0.642 5.387,0.97 1.728,0.375 3.416,0.674 4.978,1.073 1.569,0.384 3.061,0.714 4.391,1.125 1.342,0.38 2.584,0.722 3.58,1.095 0.51,0.176 0.988,0.34 1.43,0.491 0.222,0.078 0.429,0.142 0.638,0.222 0.211,0.09 0.416,0.176 0.608,0.256 1.541,0.65 2.424,1.02 2.424,1.02 l 0.521,-1.405 2.607,0.051 0.153,-7.918 0.383,-20.006 -1.325,-0.025 0.711,-1.916 c 0,0 -0.91,-0.287 -2.508,-0.791 -0.199,-0.063 -0.408,-0.131 -0.628,-0.199 -0.241,-0.061 -0.491,-0.125 -0.752,-0.192 -0.526,-0.129 -1.092,-0.269 -1.7,-0.418 -1.226,-0.328 -2.548,-0.56 -3.996,-0.83 -1.447,-0.297 -3.015,-0.494 -4.672,-0.742 -1.654,-0.258 -3.402,-0.402 -5.205,-0.621 -1.804,-0.17 -3.668,-0.336 -5.56,-0.475 -1.893,-0.113 -3.813,-0.261 -5.735,-0.33 -0.96,-0.045 -1.919,-0.086 -2.877,-0.129 -0.955,-0.027 -1.908,-0.052 -2.853,-0.08 -1.887,-0.066 -3.746,-0.066 -5.543,-0.097 -3.598,-0.018 -6.949,0.005 -9.822,0.087 -2.871,0.063 -5.262,0.186 -6.936,0.286 -0.834,0.039 -1.492,0.107 -1.937,0.138 -0.448,0.037 -0.686,0.055 -0.686,0.055 0,0 0.24,0.004 0.688,0.01 0.449,0.011 1.103,0.002 1.941,0.041 1.668,0.058 4.055,0.158 6.91,0.361 2.858,0.186 6.186,0.475 9.744,0.824 1.776,0.196 3.614,0.369 5.473,0.61 0.932,0.113 1.869,0.226 2.811,0.341 0.937,0.131 1.878,0.26 2.822,0.391 1.887,0.246 3.758,0.568 5.603,0.854 1.842,0.308 3.647,0.642 5.387,0.968 1.731,0.377 3.418,0.676 4.981,1.075 1.566,0.382 3.058,0.714 4.388,1.123 0.453,0.129 0.885,0.252 1.309,0.373 -0.078,-0.014 -0.153,-0.028 -0.231,-0.043 -1.447,-0.297 -3.015,-0.494 -4.672,-0.743 -1.654,-0.257 -3.402,-0.402 -5.205,-0.621 -1.804,-0.168 -3.668,-0.334 -5.56,-0.472 -1.893,-0.114 -3.813,-0.264 -5.735,-0.332 -0.96,-0.043 -1.919,-0.086 -2.877,-0.127 -0.955,-0.028 -1.908,-0.055 -2.853,-0.082 -1.887,-0.065 -3.746,-0.067 -5.543,-0.096 -3.598,-0.018 -6.949,0.006 -9.822,0.086 -2.871,0.064 -5.262,0.186 -6.936,0.285 -0.834,0.041 -1.492,0.108 -1.937,0.141 -0.448,0.035 -0.686,0.054 -0.686,0.054 0,0 0.24,0.002 0.688,0.01 0.449,0.01 1.103,0.002 1.941,0.039 1.668,0.059 4.055,0.158 6.91,0.364 2.858,0.185 6.186,0.472 9.744,0.824 1.776,0.195 3.614,0.367 5.473,0.607 0.932,0.113 1.869,0.227 2.811,0.344 0.937,0.129 1.878,0.26 2.822,0.391 1.887,0.244 3.758,0.566 5.603,0.851 1.842,0.311 3.647,0.643 5.387,0.969 1.731,0.379 3.418,0.678 4.981,1.074 1.566,0.387 3.058,0.717 4.388,1.123 1.344,0.383 2.584,0.725 3.58,1.098 0.377,0.129 0.729,0.25 1.067,0.367 -1.106,-0.273 -2.287,-0.488 -3.569,-0.727 -1.447,-0.296 -3.015,-0.496 -4.672,-0.742 -1.654,-0.258 -3.402,-0.402 -5.205,-0.621 -1.804,-0.168 -3.668,-0.334 -5.56,-0.473 -1.893,-0.115 -3.813,-0.263 -5.735,-0.332 -0.96,-0.043 -1.919,-0.085 -2.877,-0.127 -0.955,-0.027 -1.908,-0.054 -2.853,-0.082 -1.887,-0.064 -3.746,-0.066 -5.543,-0.097 -3.598,-0.016 -6.949,0.008 -9.822,0.088 -2.871,0.062 -5.262,0.185 -6.936,0.285 -0.834,0.039 -1.492,0.107 -1.937,0.14 -0.448,0.036 -0.686,0.055 -0.686,0.055 0,0 0.24,0.002 0.688,0.01 0.449,0.01 1.103,0.002 1.941,0.039 1.668,0.057 4.055,0.158 6.91,0.363 2.858,0.184 6.186,0.473 9.744,0.824 1.776,0.196 3.614,0.368 5.473,0.608 0.932,0.113 1.869,0.226 2.811,0.344 0.937,0.129 1.878,0.259 2.822,0.39 1.887,0.244 3.758,0.567 5.603,0.852 1.842,0.308 3.647,0.642 5.387,0.969 1.731,0.379 3.418,0.677 4.981,1.074 1.566,0.387 3.058,0.715 4.388,1.123 0.561,0.16 1.096,0.31 1.61,0.461 -1.42,-0.287 -2.956,-0.483 -4.575,-0.723 -1.654,-0.258 -3.404,-0.404 -5.205,-0.623 -1.804,-0.168 -3.67,-0.334 -5.56,-0.473 -1.895,-0.113 -3.813,-0.261 -5.737,-0.332 -0.959,-0.043 -1.92,-0.086 -2.875,-0.127 -0.955,-0.027 -1.908,-0.054 -2.853,-0.08 -1.889,-0.066 -3.748,-0.068 -5.545,-0.097 -3.596,-0.018 -6.947,0.006 -9.82,0.088 -2.873,0.062 -5.264,0.183 -6.936,0.283 -0.836,0.041 -1.492,0.109 -1.937,0.14 -0.448,0.036 -0.686,0.055 -0.686,0.055 0,0 0.238,0.002 0.688,0.01 0.447,0.01 1.103,0.002 1.939,0.041 1.67,0.057 4.055,0.156 6.912,0.361 2.858,0.186 6.186,0.473 9.742,0.824 1.778,0.196 3.616,0.368 5.475,0.61 0.93,0.111 1.867,0.226 2.809,0.342 0.939,0.129 1.88,0.259 2.824,0.39 1.884,0.244 3.756,0.567 5.603,0.852 1.842,0.31 3.647,0.642 5.387,0.971 1.728,0.376 3.416,0.675 4.98,1.072 1.567,0.387 3.057,0.717 4.389,1.125 1.188,0.338 2.285,0.644 3.215,0.97 -0.684,-0.138 -1.393,-0.267 -2.137,-0.406 -1.447,-0.297 -3.017,-0.496 -4.672,-0.742 -1.654,-0.258 -3.404,-0.404 -5.205,-0.623 -1.804,-0.166 -3.67,-0.334 -5.56,-0.471 -1.895,-0.115 -3.813,-0.263 -5.737,-0.334 -0.959,-0.041 -1.92,-0.084 -2.875,-0.125 -0.955,-0.027 -1.908,-0.054 -2.853,-0.082 -1.889,-0.064 -3.748,-0.066 -5.545,-0.097 -3.596,-0.016 -6.947,0.007 -9.82,0.088 -0.516,0.011 -1.01,0.025 -1.493,0.041 -2.488,0.064 -4.57,0.173 -6.072,0.261 -0.834,0.041 -1.492,0.108 -1.937,0.141 -0.448,0.035 -0.686,0.055 -0.686,0.055 0,0 0.24,0.002 0.688,0.009 0.449,0.01 1.103,0.002 1.941,0.039 1.668,0.059 4.055,0.159 6.91,0.364 2.858,0.185 6.186,0.472 9.744,0.824 1.776,0.195 3.614,0.367 5.473,0.607 0.932,0.114 1.869,0.227 2.811,0.344 0.937,0.129 1.878,0.26 2.822,0.391 1.887,0.244 3.758,0.566 5.603,0.851 1.842,0.311 3.647,0.643 5.387,0.969 1.731,0.379 3.418,0.678 4.981,1.074 1.566,0.387 3.058,0.717 4.388,1.123 1.051,0.301 2.033,0.574 2.891,0.86 -0.906,-0.202 -1.862,-0.373 -2.881,-0.563 -1.447,-0.299 -3.018,-0.496 -4.672,-0.742 -1.656,-0.26 -3.404,-0.404 -5.205,-0.623 -1.807,-0.168 -3.67,-0.336 -5.561,-0.473 -1.894,-0.115 -3.814,-0.261 -5.736,-0.332 -0.959,-0.043 -1.92,-0.086 -2.875,-0.129 -0.955,-0.025 -1.908,-0.052 -2.853,-0.078 -1.889,-0.068 -3.748,-0.068 -5.545,-0.097 -3.596,-0.02 -6.95,0.005 -9.821,0.087 -2.873,0.063 -5.263,0.184 -6.935,0.284 -0.836,0.039 -1.492,0.109 -1.94,0.138 M 285.618,483.724 c -0.967,3.656 -1.269,7.658 -0.518,11.331 0.705,3.687 2.436,6.814 4.308,9.153 1.926,2.33 3.977,4.007 5.878,5.25 0.462,0.33 0.942,0.595 1.39,0.866 0.453,0.266 0.879,0.533 1.314,0.747 0.867,0.426 1.635,0.846 2.371,1.144 0.73,0.308 1.379,0.576 1.948,0.795 0.575,0.209 1.072,0.365 1.472,0.495 0.804,0.246 1.232,0.377 1.232,0.377 0,0 -0.296,-0.337 -0.851,-0.968 -0.277,-0.306 -0.62,-0.683 -1.025,-1.125 -0.386,-0.459 -0.835,-0.972 -1.334,-1.537 -0.496,-0.57 -1.011,-1.225 -1.582,-1.908 -0.535,-0.719 -1.145,-1.448 -1.707,-2.28 -1.168,-1.621 -2.3,-3.515 -3.137,-5.561 -0.377,-1.037 -0.767,-2.076 -0.939,-3.169 -0.224,-1.077 -0.316,-2.173 -0.27,-3.29 0.03,-1.11 0.178,-2.25 0.479,-3.419 0.309,-1.165 0.657,-2.375 1.204,-3.61 0.542,-1.23 1.119,-2.505 1.835,-3.796 0.363,-0.646 0.718,-1.294 1.125,-1.948 0.375,-0.661 0.785,-1.327 1.193,-1.996 0.566,-0.895 1.157,-1.804 1.758,-2.72 1.191,-1.814 2.435,-3.667 3.695,-5.571 1.897,-2.87 3.804,-5.859 5.538,-9.029 0.88,-1.582 1.696,-3.214 2.429,-4.906 0.736,-1.695 1.406,-3.437 1.917,-5.244 1.038,-3.605 1.501,-7.521 0.926,-11.217 -0.267,-1.838 -0.793,-3.591 -1.477,-5.163 -0.182,-0.387 -0.361,-0.77 -0.54,-1.15 -0.191,-0.371 -0.404,-0.723 -0.604,-1.076 -0.386,-0.716 -0.855,-1.344 -1.3,-1.963 -1.828,-2.438 -3.871,-4.153 -5.741,-5.45 -0.459,-0.338 -0.923,-0.63 -1.375,-0.902 -0.446,-0.276 -0.876,-0.54 -1.298,-0.774 -0.866,-0.442 -1.627,-0.864 -2.362,-1.185 -0.732,-0.322 -1.381,-0.599 -1.948,-0.824 -0.565,-0.218 -1.056,-0.372 -1.452,-0.507 -0.801,-0.255 -1.228,-0.39 -1.228,-0.39 0,0 0.292,0.338 0.841,0.974 0.279,0.31 0.622,0.693 1.026,1.143 0.38,0.462 0.82,0.977 1.308,1.541 0.469,0.58 0.987,1.223 1.552,1.924 0.509,0.737 1.127,1.455 1.655,2.307 1.115,1.645 2.223,3.543 2.951,5.611 0.735,2.066 1.12,4.237 0.922,6.469 -0.148,2.233 -0.873,4.58 -1.961,7.066 -0.586,1.234 -1.225,2.511 -1.951,3.803 -0.74,1.291 -1.565,2.601 -2.4,3.947 -0.262,0.407 -0.536,0.821 -0.807,1.232 -1.502,2.289 -3.113,4.638 -4.729,7.081 -1.906,2.886 -3.822,5.895 -5.533,9.105 -0.427,0.808 -0.853,1.611 -1.256,2.443 -0.398,0.822 -0.764,1.685 -1.126,2.535 -0.718,1.711 -1.355,3.498 -1.816,5.339 m -39.406,26.541 c -0.175,2.505 -0.005,5.04 0.586,7.38 1.136,4.716 3.559,8.504 6.094,11.304 2.561,2.826 5.215,4.886 7.641,6.506 2.446,1.59 4.646,2.788 6.501,3.67 0.928,0.437 1.757,0.82 2.484,1.139 0.735,0.302 1.365,0.547 1.875,0.744 1.024,0.384 1.569,0.588 1.569,0.588 0,0 -0.413,-0.41 -1.19,-1.181 -0.39,-0.374 -0.87,-0.836 -1.436,-1.38 -0.549,-0.562 -1.183,-1.195 -1.892,-1.895 -1.404,-1.418 -3.061,-3.162 -4.82,-5.203 -1.736,-2.053 -3.555,-4.439 -5.054,-7.123 -0.396,-0.664 -0.691,-1.37 -1.053,-2.057 -0.158,-0.352 -0.288,-0.714 -0.434,-1.071 -0.146,-0.358 -0.298,-0.714 -0.394,-1.086 -0.518,-1.454 -0.785,-2.962 -0.893,-4.478 -0.252,-3.027 0.52,-6.165 1.958,-9.446 0.739,-1.629 1.637,-3.304 2.689,-4.981 0.249,-0.42 0.529,-0.839 0.809,-1.259 0.279,-0.42 0.551,-0.842 0.855,-1.263 0.566,-0.851 1.174,-1.703 1.79,-2.558 2.511,-3.408 5.302,-6.883 8.115,-10.474 2.814,-3.593 5.634,-7.324 8.227,-11.249 2.604,-3.916 4.947,-8.072 6.736,-12.425 0.865,-2.194 1.651,-4.4 2.185,-6.654 0.141,-0.56 0.246,-1.134 0.367,-1.692 0.122,-0.559 0.229,-1.12 0.305,-1.688 0.081,-0.563 0.164,-1.123 0.244,-1.68 0.044,-0.563 0.087,-1.122 0.13,-1.678 0.318,-4.453 -0.345,-8.696 -1.476,-12.309 -1.147,-3.628 -2.781,-6.639 -4.428,-9.085 -0.802,-1.241 -1.666,-2.306 -2.446,-3.291 -0.819,-0.958 -1.588,-1.808 -2.297,-2.559 -0.744,-0.735 -1.407,-1.376 -1.988,-1.919 -0.578,-0.544 -1.109,-0.953 -1.526,-1.306 -0.848,-0.689 -1.3,-1.056 -1.3,-1.056 0,0 0.262,0.521 0.756,1.494 0.243,0.487 0.578,1.076 0.921,1.778 0.33,0.709 0.716,1.508 1.146,2.387 0.386,0.915 0.839,1.905 1.286,2.99 0.393,1.114 0.905,2.259 1.27,3.542 0.815,2.525 1.517,5.39 1.766,8.463 0.036,0.772 0.135,1.544 0.112,2.338 0.003,0.392 0.006,0.789 0.009,1.19 -0.026,0.398 -0.052,0.8 -0.078,1.206 -0.027,0.805 -0.171,1.62 -0.249,2.439 -0.057,0.411 -0.15,0.822 -0.221,1.234 -0.074,0.413 -0.145,0.827 -0.262,1.241 -0.375,1.656 -0.922,3.334 -1.568,5.017 -0.689,1.675 -1.466,3.377 -2.372,5.073 -0.945,1.687 -1.952,3.396 -3.06,5.105 -1.137,1.7 -2.344,3.406 -3.595,5.137 -2.545,3.435 -5.328,6.905 -8.136,10.488 -2.806,3.59 -5.649,7.292 -8.249,11.265 -0.649,0.999 -1.292,1.999 -1.91,3.03 -0.307,0.509 -0.598,1.043 -0.89,1.571 -0.293,0.525 -0.583,1.051 -0.856,1.6 -1.113,2.149 -2.138,4.388 -2.877,6.771 -0.748,2.369 -1.322,4.841 -1.476,7.356 M 234.109,247.814 h 4.277 v -28.007 h -0.726 l 0.141,-1.633 -57.609,-2.135 53.917,7.381 v 6.592 l -47.665,-1.473 47.665,6.826 v 6.625 l -41.413,-0.949 41.413,6.268 z m 106.194,153.028 c 0.088,0.32 0.03,0.659 -0.203,1.024 -3.327,5.189 -72.841,6.298 -86.921,3.208 42.199,0.668 47.139,-4.137 48.8,-7.004 -3.746,-0.084 -7.65,-0.132 -11.724,-0.132 -36.112,0 -59.752,3.571 -64.089,6.302 4.337,2.73 27.977,6.302 64.089,6.302 36.112,0 59.753,-3.572 64.089,-6.302 -1.735,-1.092 -6.567,-2.319 -14.041,-3.398 m 120.035,36.581 8.609,-3.954 c -3.203,-7.384 -5.461,-14.849 -4.078,-28.041 1.697,-16.21 20.797,-46.93 28.813,-46.93 9.744,0 1.369,26.474 3.861,45.863 0.541,4.206 1.943,8.434 4.15,12.571 l 7.256,-4.396 c -20.929,-39.773 11.133,-94.616 -17.84,-94.616 30.985,9.705 -57.25,76.057 -30.771,119.503 m 89.141,-128.515 c -0.065,2.735 -0.612,5.865 -3.327,7.842 l 19.946,6.879 c 1.474,-0.733 2.611,-2.135 3.056,-3.775 0.381,-1.407 0.2,-2.803 -0.5,-3.842 -0.797,-0.551 -8.9,-3.494 -19.175,-7.104 m -33.61,-1.847 c -9.482,1.15 -22.201,1.919 -36.398,2.095 -0.188,0.002 -1.844,-3.472 -5.379,-3.443 -3.299,0.027 -5.477,3.461 -5.852,3.457 -25.681,-0.254 -46.752,-2.447 -52.962,-5.352 0.003,0.002 0.013,0.012 0.013,0.012 h -18.383 c 2.412,1.229 7.752,2.904 19.551,4.451 14.207,1.865 33.266,2.946 53.676,3.045 0.15,-0.127 0.418,-0.58 0.597,-0.885 0.616,-1.041 1.457,-2.466 3.079,-2.502 h 0.084 c 2.005,0 2.734,1.485 3.218,2.469 0.209,0.426 0.446,0.91 0.629,0.91 16.494,-0.119 31.867,-0.894 44.295,-2.132 z m 20.447,-3.487 c 2.235,0.772 4.561,1.576 6.897,2.387 2.25,-0.547 4.113,-1.125 5.517,-1.729 z m 14.7,-2.541 c -3.662,-4.117 -27.125,-8.537 -66.735,-9.357 -1.385,-0.028 -2.275,-1.252 -3.304,-2.672 -1.457,-2.004 -3.27,-4.5 -7.129,-4.5 h -0.002 c -0.184,0 -0.375,0.006 -0.569,0.017 -2.832,0.167 -4.66,2.358 -6.273,4.29 -1.383,1.656 -2.576,3.085 -4.234,3.085 -0.813,-0.005 -1.616,-0.007 -2.42,-0.007 -16.942,0 -33.481,1.254 -46.575,3.531 -10.52,1.83 -15.584,3.762 -17.65,5.176 3.41,-0.059 13.596,-0.229 19.166,-0.366 -0.441,0.157 -0.735,0.352 -0.94,0.565 4.489,-2.926 24.534,-5.018 48.512,-5.33 5.393,-0.07 5.971,-8.113 11.139,-8.104 6.287,0.012 4.68,7.524 9.314,7.627 7.7,0.174 14.875,0.51 21.254,0.981 0.27,-0.02 0.922,0.068 0.922,0.068 13.649,1.043 23.461,2.705 26.541,4.674 l 18.309,0.594 c 0.189,-0.16 0.416,-0.262 0.674,-0.272 m -5.541,14.446 c 1.767,-1.387 2.355,-3.43 2.523,-5.506 0.043,-0.522 0.059,-1.045 0.061,-1.561 -9.258,-3.244 -20.032,-6.949 -28.784,-9.926 0,0 -13.88,-1.834 -13.925,-1.834 -3.842,0 -8.534,2.01 -9.182,2.858 l 48.494,16.726 -0.088,-0.164 c 0.332,-0.179 0.627,-0.379 0.901,-0.593 m -183.112,4.253 c 4.924,0 9.924,2.436 14.463,7.043 7.934,8.055 13.351,21.712 13.176,33.21 -0.103,6.674 -4.672,12.104 -10.186,12.104 -4.056,0 -8.099,-2.867 -11.382,-8.072 -0.862,-1.365 -1.606,-2.77 -2.325,-4.13 -1.95,-3.685 -3.658,-6.916 -7.107,-8.637 0.699,5.413 1.649,14.512 1.484,19.823 3.465,6.763 10.911,11.125 19.026,11.125 5.535,0 10.525,-2.011 14.049,-5.661 3.828,-3.967 5.724,-9.704 5.481,-16.591 -1.407,-39.837 -28.044,-51.374 -45.67,-59.01 -5.041,-2.184 -9.443,-4.088 -12.399,-6.27 3.291,5.611 10.086,18.035 12.066,28.094 2.992,-2.01 6.125,-3.028 9.324,-3.028 m 189.539,-54.287 c 0,-2.088 -7.066,-5.541 -22.855,-8.545 -16.082,-3.058 -35.902,-4.746 -55.813,-4.746 -19.908,0 -39.729,1.688 -55.812,4.746 -15.788,3.004 -22.856,6.457 -22.856,8.545 v 34.596 c 2.962,-2.721 11.542,-4.734 18.965,-6.025 13.172,-2.291 29.799,-3.553 46.819,-3.553 0.806,0 1.615,0.002 2.439,0.008 0.971,0 1.967,-1.194 3.121,-2.575 1.709,-2.046 3.836,-4.595 7.283,-4.798 0.223,-0.012 0.44,-0.02 0.653,-0.02 4.588,0 6.724,2.942 8.285,5.088 0.807,1.111 1.504,2.07 2.18,2.084 27.921,0.578 61.416,3.457 67.591,9.66 z m -396.378,-19.504 84.906,5.02 v -33.535 l -85.352,-10.045 z m -45.047,16.291 70.474,5.844 55.266,-14.492 -80.667,-5.387 0.002,0.139 z m 41.761,-53.781 -94.448,40.154 17.685,21.434 77.201,-23.801 z m -107.413,76.852 9.446,-36.477 -15.009,-4.01 -8.897,34.754 z m 13.196,-6.893 0.065,-0.027 -0.08,0.025 z m 12.348,0.352 0.11,0.002 9.987,-5.229 -4.845,-0.373 -15.667,6.031 c 2.747,2.364 7.603,2.315 10.415,-0.431 m 8.103,1.623 2.396,-1.119 c 0.062,-0.049 0.129,-0.092 0.188,-0.143 l 0.103,0.006 10.18,-4.756 -9.532,-0.734 -10.106,5.291 c 1.192,1.41 4.204,2.072 6.771,1.455 m 22.719,-5.252 -8.405,-0.649 -10.149,4.743 c 0.59,1.861 5.059,3.439 9.145,1.121 l -0.067,-0.125 z m 8.296,0.637 -6.979,-0.538 -8.157,4.383 c 1.678,2.6 5.304,2.692 8.465,0.244 z m 3.404,4.429 0.324,0.012 c 2.24,3.846 6.249,3.935 11.73,0.383 l 6.997,-3.094 -8.182,-0.631 z m -56.376,-28.66 -6.852,26.457 22.864,-7.049 z m 93.936,24.535 28.428,-7.455 -70.229,-5.824 -26.085,8.041 67.887,5.228 z m -6.58,2.344 -2.235,-0.172 -1.854,8.662 -91.644,-3.025 -0.433,1.672 93.566,2.424 z m 161.518,-45.34 c -0.44,-0.596 -1.22,-1.139 -1.91,-1.621 -0.993,-0.691 -1.776,-1.24 -1.85,-2.045 -0.01,-0.092 0,-0.203 0.02,-0.324 l -14.648,3.67 c -0.208,0.025 -0.41,0.049 -0.603,0.068 0.02,0.014 0.037,0.022 0.057,0.035 0.062,0 0.126,-0.009 0.188,-0.013 l -0.148,0.037 c 0.668,0.406 1.476,0.941 2.32,1.502 1.621,1.072 4.068,2.693 4.73,2.756 1.512,0.136 11.621,-2.598 11.844,-4.065 m -3.039,-14.971 c 0.056,0.127 0.105,0.272 0.163,0.459 0.05,0.2 0.118,0.44 0.143,0.725 0.045,0.281 0.042,0.607 0.022,0.953 -0.026,0.172 -0.051,0.352 -0.078,0.539 -0.047,0.18 -0.11,0.365 -0.168,0.553 -0.049,0.191 -0.163,0.359 -0.25,0.545 -0.09,0.183 -0.191,0.359 -0.325,0.515 -0.125,0.161 -0.246,0.331 -0.384,0.481 -0.149,0.139 -0.299,0.275 -0.451,0.414 -0.292,0.291 -0.657,0.471 -0.98,0.703 -0.343,0.197 -0.702,0.35 -1.042,0.52 -0.35,0.154 -0.705,0.257 -1.038,0.381 -0.671,0.24 -1.324,0.345 -1.863,0.494 l -1.834,0.299 c 0,0 0.695,-0.249 1.738,-0.62 0.498,-0.24 1.104,-0.455 1.691,-0.797 0.292,-0.171 0.605,-0.328 0.894,-0.523 0.277,-0.211 0.574,-0.404 0.836,-0.627 0.232,-0.25 0.518,-0.451 0.695,-0.721 0.098,-0.127 0.192,-0.252 0.285,-0.375 0.08,-0.13 0.138,-0.265 0.205,-0.39 0.077,-0.123 0.118,-0.254 0.151,-0.381 0.029,-0.129 0.094,-0.244 0.092,-0.369 0.013,-0.119 0.025,-0.235 0.039,-0.346 -0.006,-0.111 -0.012,-0.221 -0.018,-0.322 -0.031,-0.205 -0.059,-0.391 -0.119,-0.549 -0.045,-0.16 -0.117,-0.289 -0.162,-0.397 -0.007,-0.013 -0.014,-0.023 -0.02,-0.035 -0.013,0.078 -0.027,0.16 -0.049,0.241 -0.06,0.183 -0.123,0.373 -0.187,0.57 -0.178,0.359 -0.359,0.75 -0.641,1.062 -0.247,0.348 -0.57,0.616 -0.886,0.893 -0.321,0.268 -0.686,0.465 -1.025,0.693 -0.362,0.174 -0.725,0.348 -1.083,0.518 -0.364,0.141 -0.728,0.26 -1.074,0.383 -0.342,0.134 -0.691,0.199 -1.015,0.285 -0.321,0.08 -0.628,0.156 -0.908,0.224 -1.138,0.192 -1.896,0.321 -1.896,0.321 0,0 0.718,-0.256 1.799,-0.641 0.261,-0.115 0.543,-0.24 0.841,-0.373 0.295,-0.135 0.616,-0.256 0.917,-0.441 0.306,-0.174 0.626,-0.342 0.936,-0.528 0.293,-0.211 0.589,-0.422 0.887,-0.634 0.25,-0.252 0.536,-0.471 0.75,-0.731 0.206,-0.264 0.422,-0.508 0.542,-0.783 0.166,-0.254 0.219,-0.527 0.295,-0.766 0.018,-0.123 0.034,-0.242 0.049,-0.357 0.01,-0.115 -0.008,-0.227 -0.006,-0.33 -0.019,-0.209 -0.048,-0.401 -0.107,-0.561 -0.045,-0.164 -0.115,-0.295 -0.16,-0.404 -0.014,-0.023 -0.024,-0.039 -0.035,-0.061 -0.061,0.309 -0.16,0.62 -0.285,0.936 -0.196,0.369 -0.405,0.752 -0.702,1.066 -0.258,0.354 -0.614,0.596 -0.935,0.887 -0.347,0.244 -0.71,0.469 -1.071,0.682 -0.375,0.176 -0.75,0.351 -1.119,0.523 -0.378,0.133 -0.75,0.262 -1.11,0.387 -0.353,0.139 -0.716,0.199 -1.047,0.291 -0.334,0.082 -0.649,0.162 -0.939,0.234 -1.175,0.207 -1.959,0.344 -1.959,0.344 0,0 0.745,-0.266 1.862,-0.664 0.27,-0.117 0.562,-0.246 0.872,-0.383 0.304,-0.142 0.64,-0.258 0.953,-0.447 0.318,-0.176 0.645,-0.356 0.978,-0.539 0.306,-0.213 0.617,-0.428 0.928,-0.645 0.283,-0.24 0.559,-0.484 0.81,-0.732 0.208,-0.277 0.468,-0.514 0.596,-0.799 0.178,-0.262 0.256,-0.539 0.346,-0.785 0.043,-0.256 0.091,-0.488 0.068,-0.707 0.007,-0.106 -0.013,-0.207 -0.033,-0.303 -0.017,-0.096 -0.027,-0.185 -0.062,-0.267 -0.044,-0.166 -0.111,-0.301 -0.161,-0.413 -0.015,-0.027 -0.027,-0.044 -0.04,-0.068 -0.064,0.344 -0.191,0.695 -0.35,1.037 -0.108,0.184 -0.219,0.371 -0.332,0.565 -0.13,0.173 -0.28,0.336 -0.422,0.505 -0.138,0.178 -0.303,0.321 -0.474,0.459 -0.168,0.139 -0.338,0.282 -0.509,0.422 -0.372,0.225 -0.734,0.479 -1.118,0.672 -0.389,0.178 -0.772,0.367 -1.155,0.528 -0.39,0.134 -0.773,0.267 -1.145,0.396 -0.365,0.139 -0.74,0.201 -1.081,0.299 -0.344,0.086 -0.669,0.166 -0.969,0.242 -1.211,0.219 -2.019,0.365 -2.019,0.365 0,0 0.769,-0.273 1.922,-0.685 0.28,-0.121 0.583,-0.252 0.903,-0.391 0.314,-0.148 0.663,-0.267 0.99,-0.457 0.329,-0.18 0.669,-0.363 1.016,-0.551 0.329,-0.207 0.649,-0.437 0.972,-0.652 0.313,-0.23 0.582,-0.5 0.868,-0.736 0.221,-0.287 0.5,-0.526 0.649,-0.815 0.08,-0.14 0.17,-0.271 0.24,-0.404 0.051,-0.137 0.102,-0.27 0.151,-0.4 0.064,-0.262 0.122,-0.502 0.102,-0.723 0.014,-0.219 -0.042,-0.416 -0.081,-0.586 -0.047,-0.168 -0.108,-0.307 -0.163,-0.418 -0.013,-0.025 -0.025,-0.045 -0.038,-0.068 -0.03,0.179 -0.083,0.359 -0.155,0.533 -0.078,0.201 -0.145,0.416 -0.271,0.595 -0.116,0.19 -0.225,0.389 -0.359,0.569 -0.145,0.166 -0.294,0.334 -0.446,0.506 -0.31,0.328 -0.675,0.597 -1.035,0.867 -0.385,0.225 -0.755,0.492 -1.156,0.674 -0.404,0.177 -0.794,0.379 -1.193,0.529 -0.402,0.139 -0.798,0.275 -1.18,0.406 -0.379,0.135 -0.762,0.207 -1.114,0.307 -0.356,0.088 -0.689,0.182 -0.999,0.252 -1.249,0.232 -2.081,0.387 -2.081,0.387 0,0 0.794,-0.284 1.984,-0.707 0.292,-0.118 0.603,-0.26 0.934,-0.401 0.326,-0.15 0.684,-0.279 1.025,-0.467 0.342,-0.181 0.695,-0.369 1.054,-0.562 0.35,-0.201 0.677,-0.443 1.016,-0.662 0.34,-0.219 0.615,-0.504 0.916,-0.744 0.259,-0.274 0.521,-0.541 0.712,-0.821 0.089,-0.14 0.176,-0.279 0.262,-0.414 0.071,-0.14 0.113,-0.281 0.171,-0.412 0.068,-0.127 0.075,-0.262 0.102,-0.385 0.033,-0.123 0.048,-0.24 0.038,-0.355 0.017,-0.225 -0.031,-0.424 -0.066,-0.596 -0.049,-0.172 -0.106,-0.312 -0.165,-0.424 -0.014,-0.029 -0.029,-0.052 -0.043,-0.078 -0.001,0.002 -0.001,0.006 -0.002,0.01 -0.029,0.211 -0.116,0.408 -0.197,0.615 -0.04,0.104 -0.083,0.207 -0.125,0.313 -0.054,0.097 -0.116,0.191 -0.175,0.289 -0.22,0.406 -0.536,0.736 -0.854,1.076 -0.339,0.303 -0.699,0.603 -1.083,0.855 -0.4,0.221 -0.776,0.502 -1.197,0.672 -0.416,0.18 -0.816,0.391 -1.231,0.535 -0.414,0.141 -0.82,0.282 -1.214,0.418 -0.392,0.131 -0.784,0.213 -1.148,0.313 -0.366,0.092 -0.708,0.191 -1.028,0.26 -1.287,0.246 -2.143,0.412 -2.143,0.412 0,0 0.818,-0.293 2.045,-0.733 0.303,-0.117 0.623,-0.263 0.964,-0.408 0.338,-0.152 0.705,-0.289 1.062,-0.474 0.354,-0.186 0.719,-0.379 1.091,-0.575 0.369,-0.195 0.707,-0.449 1.061,-0.672 0.363,-0.212 0.644,-0.511 0.963,-0.753 0.294,-0.264 0.542,-0.555 0.771,-0.829 0.193,-0.293 0.389,-0.564 0.479,-0.843 l 0.085,-0.2 0.038,-0.197 c 0.026,-0.127 0.066,-0.246 0.054,-0.363 0.02,-0.231 -0.02,-0.434 -0.052,-0.607 -0.052,-0.176 -0.103,-0.321 -0.164,-0.432 -0.018,-0.033 -0.034,-0.061 -0.051,-0.09 l -0.02,0.094 c -0.118,0.412 -0.282,0.857 -0.552,1.232 -0.231,0.414 -0.58,0.725 -0.902,1.076 -0.368,0.282 -0.724,0.614 -1.133,0.844 -0.408,0.229 -0.801,0.506 -1.235,0.674 -0.428,0.18 -0.838,0.404 -1.268,0.541 -0.425,0.146 -0.843,0.289 -1.249,0.43 -0.406,0.127 -0.807,0.218 -1.181,0.32 -0.377,0.096 -0.729,0.199 -1.06,0.27 -1.322,0.259 -2.204,0.433 -2.204,0.433 0,0 0.843,-0.301 2.107,-0.754 0.313,-0.117 0.643,-0.269 0.996,-0.418 0.348,-0.156 0.725,-0.299 1.096,-0.482 0.366,-0.192 0.744,-0.387 1.129,-0.588 0.388,-0.191 0.734,-0.457 1.104,-0.68 0.378,-0.217 0.68,-0.515 1.009,-0.763 0.329,-0.254 0.564,-0.571 0.831,-0.834 0.193,-0.307 0.428,-0.577 0.523,-0.866 0.066,-0.138 0.132,-0.269 0.147,-0.404 0.02,-0.133 0.083,-0.254 0.07,-0.373 -0.002,-0.119 0.016,-0.229 0.006,-0.332 -0.018,-0.104 -0.031,-0.199 -0.042,-0.291 -0.056,-0.174 -0.102,-0.322 -0.166,-0.436 -0.019,-0.037 -0.038,-0.07 -0.058,-0.103 -0.013,0.06 -0.022,0.119 -0.037,0.182 -0.14,0.419 -0.323,0.865 -0.609,1.242 -0.067,0.099 -0.134,0.197 -0.203,0.299 -0.077,0.089 -0.16,0.171 -0.242,0.259 -0.167,0.17 -0.329,0.354 -0.509,0.514 -0.384,0.273 -0.746,0.623 -1.175,0.84 -0.419,0.236 -0.829,0.502 -1.273,0.676 -0.442,0.181 -0.862,0.414 -1.306,0.546 -0.438,0.149 -0.868,0.297 -1.284,0.44 -0.419,0.127 -0.831,0.225 -1.216,0.33 -0.388,0.1 -0.749,0.207 -1.088,0.279 -1.361,0.272 -2.267,0.455 -2.267,0.455 0,0 0.867,-0.31 2.169,-0.775 0.323,-0.119 0.662,-0.277 1.026,-0.428 0.36,-0.158 0.745,-0.31 1.132,-0.492 0.379,-0.195 0.769,-0.394 1.166,-0.6 0.406,-0.187 0.763,-0.464 1.147,-0.689 0.389,-0.221 0.716,-0.514 1.055,-0.773 0.357,-0.248 0.594,-0.581 0.881,-0.844 0.123,-0.147 0.218,-0.303 0.325,-0.445 l 0.151,-0.215 0.101,-0.219 c 0.16,-0.283 0.209,-0.559 0.258,-0.799 0.006,-0.117 0.011,-0.23 0.017,-0.34 -0.02,-0.105 -0.033,-0.203 -0.042,-0.293 -0.051,-0.179 -0.099,-0.33 -0.162,-0.445 -0.053,-0.104 -0.124,-0.217 -0.14,-0.223 -0.039,-0.049 -0.061,-0.076 -0.061,-0.076 l 1.736,-1.25 c 0,0 0.041,0.07 0.117,0.203 0.1,0.178 0.172,0.348 0.261,0.619 0.088,0.262 0.149,0.59 0.178,0.965 -0.004,0.188 -0.009,0.389 -0.013,0.598 -0.007,0.039 -0.017,0.082 -0.024,0.119 l 1.544,-1.08 c 0,0 0.039,0.068 0.111,0.195 0.094,0.172 0.162,0.342 0.247,0.602 0.086,0.25 0.143,0.566 0.18,0.928 -0.003,0.181 -0.005,0.375 -0.008,0.578 -0.005,0.058 -0.018,0.121 -0.027,0.179 l 1.562,-1.058 c 0,0 0.035,0.064 0.103,0.189 0.089,0.164 0.153,0.332 0.237,0.58 0.078,0.243 0.138,0.545 0.173,0.895 0.01,0.248 -0.002,0.523 -0.038,0.806 l 1.589,-1.046 c 0,0 0.033,0.064 0.096,0.183 0.083,0.158 0.144,0.322 0.224,0.563 0.073,0.232 0.136,0.521 0.168,0.857 0.016,0.256 0.009,0.545 -0.029,0.844 l 1.605,-1.024 c 0,0 0.031,0.061 0.089,0.176 0.078,0.153 0.135,0.315 0.211,0.543 0.067,0.227 0.132,0.502 0.163,0.824 0.019,0.266 0.022,0.569 -0.019,0.883 l 1.62,-1 c 0,0 0.029,0.059 0.083,0.17 0.073,0.145 0.126,0.305 0.2,0.524 0.058,0.216 0.127,0.48 0.155,0.791 0.026,0.15 0.025,0.318 0.023,0.492 0.002,0.135 -0.006,0.275 -0.024,0.42 l 1.627,-0.973 c 0,0 0.027,0.057 0.076,0.164 0.069,0.139 0.119,0.295 0.188,0.504 0.052,0.209 0.122,0.461 0.15,0.758 0.041,0.279 0.038,0.605 0.004,0.949 l 1.561,-0.9 -17.732,-14.377 c 0.051,0.613 -0.034,1.226 -0.234,1.832 0.027,1.199 -0.257,2.388 -0.858,3.463 -0.885,1.584 -2.337,2.728 -4.084,3.22 l -17.382,4.914 c -0.606,0.172 -1.229,0.258 -1.853,0.258 -0.097,0 -0.192,-0.006 -0.289,-0.012 l 23.831,14.229 c 0.126,0.021 0.35,0.045 0.727,0.045 5.472,0 20.645,-3.68 21.596,-5.609 1.041,-2.108 -0.556,-5.088 -0.885,-5.663 z m -46.789,-6.355 c 0.564,1.998 2.407,3.393 4.48,3.393 0.428,0 0.855,-0.059 1.27,-0.176 l 17.384,-4.914 c 1.197,-0.338 2.191,-1.123 2.799,-2.209 0.606,-1.086 0.755,-2.344 0.416,-3.541 -0.564,-1.998 -2.406,-3.393 -4.479,-3.393 -0.428,0 -0.856,0.059 -1.271,0.176 l -17.382,4.914 c -2.472,0.699 -3.916,3.277 -3.217,5.75 m 54.312,13.662 c -0.287,-0.85 -0.539,-1.586 -2.951,-3.537 0.002,0.035 0.006,0.068 0.009,0.102 1.047,2.392 0.393,4.037 -0.308,4.56 -0.684,0.512 -1.363,0.887 -1.963,1.219 -0.947,0.523 -1.694,0.939 -1.987,1.605 -0.009,0.02 -0.181,0.475 1.931,1.498 0.052,0.026 0.15,0.055 0.322,0.055 1.148,0 3.336,-1.203 3.811,-1.846 0.167,-0.224 1.617,-2.24 1.136,-3.656 m 292.098,98.6 c -1.033,31.389 -39.129,65.648 -89.924,93.698 7.09,10.51 18.543,19.654 36.724,25.985 13.989,4.871 -52.134,43.183 -53.031,80.789 -3.558,-41.883 57.739,-69.763 38.028,-79.368 -13.069,-6.369 -22.957,-14.567 -29.123,-23.409 -10.749,5.675 -21.987,11.064 -33.504,16.089 8.4,14.415 24.668,21.721 46.361,29.597 -28.996,-6.105 -45.795,-15.278 -54.469,-26.139 -50.679,21.126 -105.674,34.984 -147.178,34.931 18.54,-14.904 21.959,-50.363 -0.148,-62 -7.973,0.415 -16.581,0.633 -25.452,0.633 -17.895,0 -34.731,-0.884 -47.409,-2.489 -18.804,-2.38 -21.397,-5.295 -21.397,-8.091 0,-1.095 0.405,-2.208 2.019,-3.302 2.508,-1.695 7.942,-3.341 19.378,-4.788 12.678,-1.606 29.514,-2.489 47.409,-2.489 17.895,0 34.731,0.883 47.409,2.489 11.336,1.434 16.775,3.064 19.313,4.744 2.603,-99.833 -33.435,-119.529 -35.276,-133.466 -13.703,-10.592 -49.452,-9.533 -62.958,0 -1.176,8.898 -16.287,20.146 -26.387,53.08 -7.211,-17.422 -13.32,-32.072 -17.095,-40.906 l -56.364,12.757 c 0,0 -5.895,32.829 -8.555,41.424 L 9.186,295.285 25.939,232.906 56.907,231.48 154.113,191.557 c 9.067,-0.668 64.738,10.347 85.224,8.285 22.104,-3.901 39.685,-12.088 46.166,-12.086 4.719,0.002 73.31,44.986 81.614,44.502 235.401,-13.731 237.092,23.709 234.854,91.756"
           style="fill:#fff;fill-opacity:1;fill-rule:nonzero;stroke:none"
           id="path1688"
           inkscape:connector-curvature="0" /></g></g></g></svg>