<svg xmlns="http://www.w3.org/2000/svg" xmlns:xlink="http://www.w3.org/1999/xlink" version="1.1" width="256" height="256" viewBox="0 0 256 256" xml:space="preserve">

<defs>
</defs>
<g style="stroke: none; stroke-width: 0; stroke-dasharray: none; stroke-linecap: butt; stroke-linejoin: miter; stroke-miterlimit: 10; fill: none; fill-rule: nonzero; opacity: 1;" transform="translate(1.4065934065934016 1.4065934065934016) scale(2.81 2.81)" >
	<path d="M 84.108 21.62 c -0.349 0 -0.688 -0.183 -0.871 -0.508 C 77.347 10.691 66.26 4.217 54.302 4.217 c -10.208 0 -19.703 4.595 -26.05 12.606 c -0.343 0.433 -0.971 0.504 -1.405 0.163 c -0.433 -0.343 -0.506 -0.972 -0.163 -1.405 C 33.413 7.089 43.479 2.217 54.302 2.217 c 12.678 0 24.432 6.863 30.676 17.91 c 0.272 0.481 0.103 1.091 -0.378 1.363 C 84.444 21.578 84.275 21.62 84.108 21.62 z" style="stroke: none; stroke-width: 1; stroke-dasharray: none; stroke-linecap: butt; stroke-linejoin: miter; stroke-miterlimit: 10; fill: rgb(248,204,29); fill-rule: nonzero; opacity: 1;" transform=" matrix(1 0 0 1 0 0) " stroke-linecap="round" />
	<path d="M 33.773 88.338 c -10.823 0 -20.889 -4.871 -27.617 -13.364 c -0.343 -0.433 -0.27 -1.062 0.163 -1.405 c 0.432 -0.343 1.061 -0.271 1.405 0.163 c 6.347 8.012 15.842 12.606 26.05 12.606 c 11.957 0 23.044 -6.474 28.936 -16.895 c 0.272 -0.481 0.883 -0.649 1.362 -0.378 c 0.48 0.271 0.65 0.882 0.378 1.362 C 58.204 81.476 46.45 88.338 33.773 88.338 z" style="stroke: none; stroke-width: 1; stroke-dasharray: none; stroke-linecap: butt; stroke-linejoin: miter; stroke-miterlimit: 10; fill: rgb(248,204,29); fill-rule: nonzero; opacity: 1;" transform=" matrix(1 0 0 1 0 0) " stroke-linecap="round" />
	<path d="M 88.736 26.119 h -0.955 v -0.956 c 0 -0.552 -0.447 -1 -1 -1 s -1 0.448 -1 1 v 0.956 h -0.956 c -0.553 0 -1 0.448 -1 1 s 0.447 1 1 1 h 0.956 v 0.956 c 0 0.552 0.447 1 1 1 s 1 -0.448 1 -1 v -0.956 h 0.955 c 0.553 0 1 -0.448 1 -1 S 89.289 26.119 88.736 26.119 z" style="stroke: none; stroke-width: 1; stroke-dasharray: none; stroke-linecap: butt; stroke-linejoin: miter; stroke-miterlimit: 10; fill: rgb(248,204,29); fill-rule: nonzero; opacity: 1;" transform=" matrix(1 0 0 1 0 0) " stroke-linecap="round" />
	<path d="M 26.947 6.032 c -0.806 0 -1.563 -0.314 -2.133 -0.884 c -0.57 -0.569 -0.884 -1.327 -0.884 -2.133 c 0 -0.806 0.314 -1.563 0.884 -2.133 c 1.176 -1.176 3.09 -1.175 4.266 0 c 1.176 1.177 1.176 3.09 0 4.266 C 28.51 5.718 27.753 6.032 26.947 6.032 z M 26.947 2 c -0.26 0 -0.521 0.099 -0.719 0.297 c -0.192 0.191 -0.298 0.447 -0.298 0.718 s 0.106 0.527 0.298 0.718 c 0.396 0.396 1.041 0.397 1.438 0 c 0.396 -0.396 0.396 -1.041 0 -1.438 C 27.468 2.099 27.208 2 26.947 2 z" style="stroke: none; stroke-width: 1; stroke-dasharray: none; stroke-linecap: butt; stroke-linejoin: miter; stroke-miterlimit: 10; fill: rgb(248,204,29); fill-rule: nonzero; opacity: 1;" transform=" matrix(1 0 0 1 0 0) " stroke-linecap="round" />
	<path d="M 15.939 63.824 c -0.218 0 -0.437 -0.07 -0.621 -0.216 C 6.826 56.88 1.955 46.814 1.955 35.99 c 0 -12.677 6.863 -24.432 17.91 -30.676 c 0.482 -0.272 1.091 -0.102 1.363 0.378 c 0.271 0.481 0.102 1.091 -0.378 1.363 C 10.428 12.945 3.955 24.033 3.955 35.99 c 0 10.209 4.595 19.704 12.606 26.05 c 0.433 0.344 0.506 0.973 0.163 1.405 C 16.526 63.695 16.234 63.824 15.939 63.824 z" style="stroke: none; stroke-width: 1; stroke-dasharray: none; stroke-linecap: butt; stroke-linejoin: miter; stroke-miterlimit: 10; fill: rgb(248,204,29); fill-rule: nonzero; opacity: 1;" transform=" matrix(1 0 0 1 0 0) " stroke-linecap="round" />
	<path d="M 74.091 84.353 c -0.295 0 -0.588 -0.13 -0.785 -0.379 c -0.343 -0.433 -0.27 -1.062 0.163 -1.405 c 8.012 -6.347 12.606 -15.841 12.606 -26.049 c 0 -11.958 -6.474 -23.045 -16.895 -28.936 c -0.48 -0.272 -0.65 -0.882 -0.378 -1.363 c 0.271 -0.481 0.883 -0.65 1.362 -0.378 c 11.047 6.245 17.91 17.999 17.91 30.677 c 0 10.822 -4.871 20.889 -13.364 27.617 C 74.527 84.282 74.308 84.353 74.091 84.353 z" style="stroke: none; stroke-width: 1; stroke-dasharray: none; stroke-linecap: butt; stroke-linejoin: miter; stroke-miterlimit: 10; fill: rgb(248,204,29); fill-rule: nonzero; opacity: 1;" transform=" matrix(1 0 0 1 0 0) " stroke-linecap="round" />
	<path d="M 67.756 89.999 c -0.807 0 -1.563 -0.313 -2.134 -0.884 c -1.175 -1.175 -1.175 -3.089 0 -4.266 c 1.178 -1.176 3.089 -1.175 4.267 -0.001 l 0.001 0.001 c 1.175 1.177 1.175 3.091 -0.001 4.266 C 69.318 89.686 68.562 89.999 67.756 89.999 z M 67.756 85.967 c -0.261 0 -0.521 0.099 -0.719 0.297 c -0.396 0.396 -0.396 1.041 0 1.438 c 0.385 0.385 1.053 0.385 1.438 0 c 0.396 -0.396 0.396 -1.04 0 -1.437 l 0 0 C 68.276 86.067 68.016 85.967 67.756 85.967 z" style="stroke: none; stroke-width: 1; stroke-dasharray: none; stroke-linecap: butt; stroke-linejoin: miter; stroke-miterlimit: 10; fill: rgb(248,204,29); fill-rule: nonzero; opacity: 1;" transform=" matrix(1 0 0 1 0 0) " stroke-linecap="round" />
	<path d="M 5.174 67.515 H 4.219 v -0.956 c 0 -0.553 -0.448 -1 -1 -1 s -1 0.447 -1 1 v 0.956 H 1.264 c -0.552 0 -1 0.447 -1 1 s 0.448 1 1 1 h 0.956 v 0.955 c 0 0.553 0.448 1 1 1 s 1 -0.447 1 -1 v -0.955 h 0.955 c 0.552 0 1 -0.447 1 -1 S 5.727 67.515 5.174 67.515 z" style="stroke: none; stroke-width: 1; stroke-dasharray: none; stroke-linecap: butt; stroke-linejoin: miter; stroke-miterlimit: 10; fill: rgb(248,204,29); fill-rule: nonzero; opacity: 1;" transform=" matrix(1 0 0 1 0 0) " stroke-linecap="round" />
</g>
</svg>