<svg xmlns="http://www.w3.org/2000/svg" xmlns:xlink="http://www.w3.org/1999/xlink" version="1.1" width="256" height="256" viewBox="0 0 256 256" xml:space="preserve">

<defs>
</defs>
<g style="stroke: none; stroke-width: 0; stroke-dasharray: none; stroke-linecap: butt; stroke-linejoin: miter; stroke-miterlimit: 10; fill: none; fill-rule: nonzero; opacity: 1;" transform="translate(1.4065934065934016 1.4065934065934016) scale(2.81 2.81)" >
	<circle cx="45" cy="45" r="18" style="stroke: none; stroke-width: 1; stroke-dasharray: none; stroke-linecap: butt; stroke-linejoin: miter; stroke-miterlimit: 10; fill: rgb(248,204,29); fill-rule: nonzero; opacity: 1;" transform="  matrix(1 0 0 1 0 0) "/>
	<path d="M 49.277 70.999 h -8.555 c -1.116 0 -2.024 -0.908 -2.024 -2.024 v -1.273 c 0 -0.677 -0.41 -1.273 -1.019 -1.483 c -0.851 -0.294 -1.696 -0.646 -2.512 -1.044 c -0.575 -0.282 -1.279 -0.151 -1.753 0.321 l -0.913 0.913 c -0.79 0.789 -2.073 0.788 -2.862 0.001 l -6.049 -6.05 c -0.382 -0.383 -0.593 -0.891 -0.593 -1.432 s 0.21 -1.049 0.593 -1.432 l 0.913 -0.912 c 0.473 -0.473 0.602 -1.178 0.321 -1.754 c -0.397 -0.813 -0.749 -1.657 -1.043 -2.51 c -0.21 -0.61 -0.807 -1.021 -1.483 -1.021 h -1.274 C 19.908 51.3 19 50.393 19 49.277 v -8.555 c 0 -1.116 0.908 -2.024 2.024 -2.024 h 1.274 c 0.677 0 1.273 -0.41 1.483 -1.02 c 0.295 -0.853 0.646 -1.698 1.043 -2.511 c 0.281 -0.576 0.152 -1.28 -0.321 -1.753 l -0.913 -0.913 c -0.789 -0.789 -0.789 -2.073 0 -2.862 l 6.049 -6.049 c 0.789 -0.789 2.073 -0.789 2.862 0 l 0.913 0.913 c 0.473 0.473 1.178 0.602 1.753 0.321 c 0.813 -0.397 1.658 -0.749 2.511 -1.043 c 0.61 -0.21 1.02 -0.807 1.02 -1.483 v -1.274 c 0 -1.116 0.908 -2.024 2.024 -2.024 h 8.554 c 1.116 0 2.023 0.908 2.023 2.024 v 1.274 c 0 0.677 0.41 1.273 1.02 1.483 c 0.854 0.295 1.698 0.646 2.512 1.043 c 0.575 0.281 1.279 0.152 1.753 -0.321 l 0.913 -0.913 c 0.764 -0.765 2.097 -0.764 2.862 0 l 6.049 6.049 c 0.788 0.789 0.788 2.073 0.001 2.862 l -0.914 0.914 c -0.473 0.474 -0.603 1.178 -0.321 1.753 c 0.396 0.808 0.746 1.653 1.044 2.51 c 0.21 0.61 0.807 1.02 1.483 1.02 h 1.273 c 1.116 0 2.024 0.908 2.024 2.024 v 8.555 c 0 1.116 -0.908 2.023 -2.024 2.023 h -1.273 c -0.677 0 -1.273 0.41 -1.483 1.02 c -0.293 0.849 -0.644 1.693 -1.043 2.511 c -0.281 0.576 -0.153 1.28 0.32 1.754 l 0.913 0.913 c 0.788 0.788 0.789 2.072 0.001 2.861 l -6.05 6.05 c -0.788 0.787 -2.071 0.789 -2.861 0.001 l -0.914 -0.914 c -0.474 -0.474 -1.178 -0.602 -1.754 -0.321 c -0.808 0.396 -1.652 0.746 -2.51 1.044 c -0.61 0.21 -1.021 0.807 -1.021 1.483 v 1.273 C 51.301 70.091 50.394 70.999 49.277 70.999 z M 34.529 63.027 c 0.517 0 1.036 0.115 1.518 0.351 c 0.743 0.363 1.512 0.683 2.286 0.95 c 1.416 0.488 2.367 1.844 2.367 3.374 v 1.273 l 8.579 0.024 l 0.023 -1.298 c 0 -1.529 0.951 -2.886 2.367 -3.374 c 0.78 -0.271 1.549 -0.59 2.285 -0.95 c 1.344 -0.656 2.969 -0.373 4.046 0.704 l 0.913 0.913 l 6.083 -6.049 l -0.913 -0.947 c -1.077 -1.077 -1.36 -2.703 -0.703 -4.046 c 0.363 -0.744 0.683 -1.514 0.949 -2.285 c 0.488 -1.416 1.845 -2.367 3.374 -2.367 h 1.273 L 69 40.722 l -0.024 -0.024 h -1.273 c -1.53 0 -2.886 -0.951 -3.374 -2.367 c -0.271 -0.78 -0.59 -1.549 -0.95 -2.285 c -0.656 -1.343 -0.373 -2.968 0.704 -4.046 l 0.913 -0.913 l -6.049 -6.083 l -0.947 0.913 c -1.075 1.077 -2.701 1.361 -4.045 0.704 c -0.741 -0.362 -1.51 -0.681 -2.287 -0.95 c -1.415 -0.489 -2.366 -1.845 -2.366 -3.374 v -1.274 l -8.578 -0.024 l -0.024 1.298 c 0 1.529 -0.951 2.885 -2.366 3.374 c -0.776 0.269 -1.545 0.588 -2.286 0.95 c -1.342 0.657 -2.969 0.374 -4.045 -0.704 l -0.913 -0.913 l -6.083 6.049 L 25.918 32 c 1.077 1.077 1.36 2.703 0.704 4.045 c -0.362 0.741 -0.681 1.51 -0.95 2.286 c -0.489 1.415 -1.845 2.366 -3.374 2.366 h -1.274 L 21 49.277 l 1.298 0.023 c 1.529 0 2.885 0.951 3.374 2.367 c 0.269 0.776 0.588 1.545 0.95 2.285 c 0.656 1.344 0.374 2.97 -0.704 4.046 l -0.913 0.913 l 6.049 6.083 l 0.947 -0.913 C 32.691 63.391 33.607 63.027 34.529 63.027 z M 45.017 59.194 c -3.766 0 -7.379 -1.482 -10.054 -4.157 c -2.942 -2.941 -4.441 -7.02 -4.113 -11.187 c 0.542 -6.87 6.131 -12.458 13 -13 c 4.169 -0.326 8.244 1.171 11.188 4.113 c 2.941 2.942 4.44 7.019 4.111 11.187 c -0.541 6.869 -6.13 12.459 -13 13 C 45.771 59.178 45.394 59.194 45.017 59.194 z M 44.981 32.805 c -0.323 0 -0.648 0.013 -0.974 0.039 c -5.899 0.465 -10.699 5.265 -11.164 11.164 c -0.283 3.583 1.005 7.088 3.533 9.615 c 2.527 2.527 6.033 3.822 9.616 3.532 l 0 0 c 5.899 -0.465 10.698 -5.264 11.163 -11.164 c 0.283 -3.583 -1.005 -7.087 -3.532 -9.615 C 51.325 34.078 48.22 32.805 44.981 32.805 z" style="stroke: none; stroke-width: 1; stroke-dasharray: none; stroke-linecap: butt; stroke-linejoin: miter; stroke-miterlimit: 10; fill: rgb(0,0,0); fill-rule: nonzero; opacity: 1;" transform=" matrix(1 0 0 1 0 0) " stroke-linecap="round" />
</g>
</svg>