<?xml version="1.0" encoding="utf-8"?>

<!DOCTYPE svg PUBLIC "-//W3C//DTD SVG 1.1//EN" "http://www.w3.org/Graphics/SVG/1.1/DTD/svg11.dtd">
<svg version="1.1" id="Layer_1" xmlns="http://www.w3.org/2000/svg" xmlns:xlink="http://www.w3.org/1999/xlink" x="0px" y="0px"
	 viewBox="0 0 2029.079 1641.178" enable-background="new 0 0 2029.079 1641.178" xml:space="preserve">
<g>
	<path d="M408.863,331.264c-4.892,16.61-30.094,71.898-30.311,90.368c-2.252,192.276-12.004,157.774-5.283,178.011
		c16.975,51.115,119.197,61.248,165.91,132.231c0.506,0.77,0.916,1.799,1.934,1.573c3.705-0.825-2.215-16.047-2.814-18.887
		c-23.524-111.534,12.774-110.239,43.973-134.027c16.58-12.641,44.956-11.145,51.694-11.505
		c57.568-3.078,103.397,116.536,121.519,171.073c45.562,137.126,44.244,139.707,89.88,165.725
		c85.474,48.73,111.755,105.639,117.824,201.038c1.439,22.628,111.408,270.354,74.67,458.675
		c-13.407,68.73-28.462,56.248-56.667,50.142c-134.74-29.163-225.409-65.245-339.547-115.547c-1.899-0.837-3.999-1.426-4.232-3.697
		c-0.103-1.001-18.301-103.329-43.519-173.645c-32.448-90.477-71.567-130.445-130.373-182.43
		c-65.678-58.059-86.557-81.258-116.719-105.114c-43.003-34.013-65.499-45.153-93.409-80.463
		c-24.463-30.948-26.657-49.809-45.265-107.086c-9.124-28.086-29.705-90.7-51.118-115.388
		c-36.262-41.808-107.291-69.74-113.237-121.341c-9.692-84.105-15.919-192.939-15.919-192.939
		c-3.935-30.056-4.54-89.601,7.882-167.658c11.353-71.341-1.951-80.972,13.591-86.669c7.496-2.747,14.397-7.322,22.576-7.982
		c20.738-1.673,42.548,17.341,46.331,21.876c3.827,4.587,5.997-2.028,5.961-3.351c-0.25-9.317,3.584-18.203,3.299-27.407
		c-0.447-14.419,2.316-28.499,3.504-42.737c1.776-21.292,27.858-20.959,49.849-19.201c20.333,1.626,54.757,42.654,65.775,59.914
		c13.704,21.467,22.671,54.708,17.062,94.865c-4.02,28.779-7.521,9.612-14.38,93.247c-0.188,2.296-1.736,6.159,1.11,6.681
		c2.617,0.48,0.76,1.329,17.759-34.676c17.19-36.408,26.834-55.821,31.489-70.407c6.932-21.72,4.022-28.942,11.674-40.644
		c11.359-17.373,50.352-13.958,71.73,19.487c6.831,10.687,16.532,14.561,26.922,50.263
		C412.39,271.892,416.201,306.351,408.863,331.264z M380.863,1039.928c28.46,23.784,38.183,36.122,64.014,57.792
		c106.442,89.296,130.904,60.374,221.28,376.015c7.447,26.008,6.738,32.578,15.36,35.044c0,0,30.895,14.131,54.764,23.832
		c110.27,44.816,212.69,68.155,220.486,70.398c2.552,0.734,6.773,2.659,7.679-1.83c10.436-51.682,10.939-54.522,16.679-97.978
		c7.429-56.231,9.903-315.338-23.707-345.281c-4.625,21.794-19.149,52.218-36.858,61.607c-1.452,0.77-2.842,3.061-4.626,0.93
		c-1.434-1.713-0.846-3.831,0.297-5.582c35.986-55.153,23.918-92.786,23.946-97.571c0.065-11.257-7.937-71.984-16.677-108.79
		c-1.98,1.055-2.027,2.209-2.085,3.264c-2.286,41.239-26.698,75.358-20.216,52.809c20.88-72.631-10.075-100.8-9.701-85.673
		c1.52,61.564-20.881,98.959-26.926,95.958c-3.184-1.581-0.199-7.103,0.228-11.267c15.481-151.196-44.812-96.254-85.772-215.396
		c-17.804-51.787-59.769-179.784-87.684-212.904c2.574,10.952,7.236,21.397,6.966,32.818c-1.979-8.275-5.979-15.792-8.863-23.645
		c-2.279-6.205-5.612-27.463-33.397-23.258c-1.021,0.155-20.96,1.578-44.823,12.663c-5.647,2.623-9.087,3.384-12.12,2.32
		c18.924-10.224,37.838-19.157,59.413-21.051c9-0.79,16.509,1.686,18.726,0.109c2.489-1.77-14.627-19.968-32.448-26.482
		c-16.563-6.054-32.854-2.297-48.122,3.8c-16.227,6.48-28.139,19.684-38.768,32.971c-12.751,15.94-13.372,38.271,2.43,107.041
		c26.496,115.311,65.637,142.686,86.482,191.156c12.045,28.007,7.633,48.625,15.642,90.412
		c5.605,29.244,12.448,61.917,33.251,105.648c2.576,5.415,7.578,9.672,8.229,16.205c-5.652,0.177-46.089-29.377-48.125-120.063
		c-0.12-5.334,0.252-11.038-2.98-15.806c-18.726-27.624-36.045-32.635-45.254-37.135c-8.324-4.067,8.145-6.718,15.84-3.273
		c8.894,3.981,17.809,8.001,24.85,15.096c0.795,0.801,1.852,1.828,3.473,0.897c-2.945-11.524-1.958-26.062-14.621-54.594
		c-7.888-17.774-4.697-13.246-25.21-23.508c-69.672-34.854-74.263-40.275-87.624-33.79c-15.303,7.427-1.188,10.492,19.88,33.531
		c11.304,12.361,22.973,24.672,26.672,41.95c0.316,1.475,1.824,3.087-0.504,4.176c-2.291,1.073-3.027-0.658-4.194-2.164
		c-8.326-10.749-17.819-19.995-31.583-23.438c-1.621-0.406-3.541-2.38-4.831-0.257c-1.009,1.659,0.656,3.227,1.773,4.718
		c27.199,36.298,59.301,63.251,88.557,88.877c2.778,2.434,7.763,14.079-46.062-32.257c-76.109-65.519-70.849-78.938-78.092-63.832
		c-1.917,3.998-4.169,7.713-8.477,10.15c-0.2-0.97-0.548-1.588-0.373-1.96c31.293-66.556-0.846-106.471-4.938-105.611
		c-1.889,0.397-1.128,2.373-1.18,3.712c-0.735,18.779-9.155,44.016-10.041,28.654c-0.075-1.3,12.936-42.466-29.418-93.104
		c-2.957,3.971,0.314,20.273-18.775,40.412c-0.915,0.965-1.903,2.663-3.567,1.429c-1.142-0.847-0.971-2.364-0.281-3.501
		c22.583-37.183,2.462-65.383-50.773-172.818c-3.363-6.786-3.373-6.739-10.674-3.688c-3.768,1.575-26.531,9.88-27.672,5.608
		c-0.614-2.298-0.81,0.901,25.758-13.264c9.841-5.247-0.287-9.072,0.633-23.336c0.216-3.342,16.507-36.804,12.422-150.441
		c-0.119-3.324-0.554-5.413-4.633-3.56c-6.559,2.98-13.216,0.654-19.822-0.014c-1.202-0.122-2.784-0.331-2.76-2.013
		c0.046-3.141,4.025-0.526,12.304-4.168c26.482-11.647,9.607-9.935,31.686-63.299c12.078-29.192,24.973-68.885,16.338-99.397
		c-4.979-17.594-25.998-51.212-53.671-55.258c-16.02-2.342,1.81,9.478-7.993,48.103c-3.882-3.967,0.293-23.116-5.042-38.553
		c-0.593-1.716,0.447-4.435-2.678-4.382c-3.091,0.051-3.089,2.569-3.175,4.745c-1.587,40.439-26.468,84.466-38.819,109.644
		c-14.779,30.127-17.862,46.646-27.474,73.197c-6.831,18.871-10.305,48.352-12.02,68.063
		c-4.398,50.548-41.925,100.989-33.819,140.966c7.773,38.334,22.836,58.08,27.945,82.67
		c25.568,123.057,29.437,101.099,48.044,196.81c2.851,14.665,10.435,52.243,16.119,66.084c8.649,21.06,48.519,59.954,68.587,73.404
		c6.456,4.328,12.76,8.884,19.964,13.916C390.752,1046.11,387.697,1039.04,380.863,1039.928z M315.693,988.926
		c-0.131-0.475-0.115-1.093-0.415-1.404c-37.118-38.388-31.056-91.166-44.868-152.502c-9.425-41.852-19.601-47.473-33.904-102.9
		c-8.428-32.663-6.628-60.537-27.079-92.701c-14.574-22.921-8.595-51.217,1.452-76.393c42.69-106.969,34.063-105.37,31.301-160.235
		c-4.9-97.338,4.651-43.966-33.966-59.367c0.298-1.449,1.105-1.626,1.774-1.622c10.644,0.069,18.074-6.362,25.767-12.444
		c2.41-1.905,3.352-3.992,3.389-6.917c1.002-78.609,50.563-146.73-34.063-202.468c-10.696-7.045-22.547-9.177-35.233-7.219
		c-5.46,0.843-3.611,1.685,2.053,15.154c3.466,8.242,2.028,17.216,4.876,25.507c1.083,3.153,0.84,6.979-1.042,11.02
		c-8.317-30.208-12.302-46.312-18.033-45.182c-1.537,0.303-2.02,1.32-1.555,6.251c4.164,44.132-7.749,76.854-25.879,159.655
		c-21.792,99.524-11.752,193.785-15.594,217.787c-18.665,116.588,65.501,220.635,82.776,251.674
		c66.759,119.952,22.516,119.859,98.607,215.232C301.73,976.963,308.032,983.564,315.693,988.926z M67.305,190.177
		c-2.567,8.611,0.901,9.543,2.112,24.557c1.896,23.501-7.248,88.712-9.741,105.172c-2.394,15.804-1.907,31.796-4.439,47.536
		c-1.697,10.551,1.172,20.922,1.397,31.408c2.635,123.071,4.968,55.389,12.094,152.882c6.562,89.773-8.251,80.69,77.707,146.132
		c0.833,0.634,1.507,1.868,2.655,0.745c0.974-0.953,0.335-2.128-0.263-2.972c-5.757-8.123-18.935-32.513-27.592-55.451
		c-26.129-69.227-20.106-100.102-12.348-281.14c0.952-22.204,5.237-55.502,16.207-100.021c13.525-54.892,20.123-50.603,2.764-64.985
		c-15.153-12.555-30.407-18.342-48.768-10.533c-4.761,2.025-5.295,3.295-2.481,7.842c6.471,10.457,8.322,22.189,9.274,34.272
		C78.422,214.915,75.754,201.731,67.305,190.177z M532.09,902.446c-5.209-7.991-13.496-11.938-21.279-16.537
		c-3.051-1.803-5.684,6.755,0.78,7.794C518.413,894.8,526.197,899.998,532.09,902.446z M568.433,808.499
		c-0.517,0.192-1.034,0.383-1.551,0.575c2.064,9.256,6.253,17.725,11.715,25.723C575.209,826.031,571.821,817.265,568.433,808.499z"
		/>
	<path d="M1516.554,685.514c18.77-32.857,59.533-62.459,91.844-82.194c33.175-20.262,37.244-26.325,48.766-34.496
		c8.914-6.322,11.678-15.89,15.362-25.3c5.222-13.339-0.39-25.747-2.31-38.453c-29.411-194.569,7.754-88.989-49.283-220.717
		c-15.529-35.864-15.966-90.697,9.589-121.596c7.848-9.489,21.43-45.657,65.749-37.734c7.665,1.37,11.771,7.884,13.711,14.704
		c17.792,62.553,49.867,98.372,62.569,128.442c0.76,1.799,2.17,3.167,4.21,4.368c2.512-5.639-1.455-6.243-2.24-23.044
		c-0.926-19.815-16.447-67.447-19.251-78.294c-7.513-29.061-4.218-76.631,16.686-104.186c35.303-46.535,40.705-48.893,50.682-45.335
		c0.777,0.277,53.589,12.778,57.12,13.369c6.583,1.103,6.298,1.6,5.141,7.893c-3.582,19.482-3.838,39.278,13.678,52.263
		c9.295,6.891,15.276-4.275,38.778,4.027c21.369,7.549,11.348,6.716,18.189,7.06c11.908,0.599,4.291,0.79,12.956,28.601
		c0.984,3.16,13.723,67.23,15.685,72.683c10.495,29.163,17.39,280.901,17.4,281.903c0.467,50.253,6.267,50.577-5.204,68.152
		c-20.709,31.728-45.545,48.333-85.277,86.516c-45.431,43.659-54.859,174.195-80.934,227.258
		c-27.092,55.134-51.914,51.515-155.724,164.028c-28.352,30.73-82.06,83.002-103.738,111.998
		c-82.164,109.903-84.067,277.131-94.288,305.164c-5.235,14.358-244.092,128.924-373.655,158.897
		c-8.954,2.072-8.132-17.48-11.314-31.355c-0.375-1.635-7.244-39.274-8.722-50.951c-9.64-76.207-20.759-61.024-10.395-150.948
		c0.115-1,1.762-78.178,31.914-207.421c9.792-41.972,20.902-61.988,18.396-87.685c-1.498-15.361,1.226-52.924,11.438-86.036
		c11.22-36.375,30.733-69.939,79.121-106.298c31.559-23.713,40.833-22.678,54.815-55.633
		c28.663-67.556,43.673-238.905,115.07-292.712c24.33-18.336,66.404-19.027,88.43-0.377c12.187,10.319,24.489,4.366,40.458,30.352
		c15.985,26.011,10.163,83.577,4.502,104.947C1515.768,680.056,1515.778,682.65,1516.554,685.514z M1584.692,874.656
		c-2.499,0.507-3.488-0.756-4.455-2.115c-2.39-3.358-5.37-6.239-7.245-10.039c-3.159-6.405-4.683-2.629-20.333,15.86
		c-78.41,92.637-109.823,105.97-92.709,89.137c57.565-56.623,82.989-95.598,81.878-97.294c-1.446-2.209-17.327-0.422-35.248,25.86
		c-0.839,1.23-1.366,2.801-3.163,2.282c-2.122-0.612-1.859-2.391-1.443-4.039c12.815-50.82,60.172-68.344,43.421-77.397
		c-15.81-8.545-19.775-2.985-96.29,43.808c-7.939,4.855-9.584-0.403-19.437,34.689c-3.482,12.4-3.591,25.394-5.696,38.052
		c-0.173,1.039-0.832,2.324,0.241,3.031c1.314,0.866,2.473-0.201,3.278-1.113c13.241-14.989,40.336-24.761,40.906-16.89
		c0.301,4.15-4.522,3.589-7.251,5.14c-18.178,10.333-39.455,31.314-38.283,53.572c5.394,102.4-46.602,134.83-38.149,119.037
		c6.476-12.102,11.235-24.973,15.061-38.021c29.263-99.789,7.866-136.347,29.701-186.257
		c17.558-40.136,48.236-78.549,63.374-162.057c24.468-134.968-1.548-126.343-21.223-146.058
		c-16.203-16.236-47.683-21.378-68.302-13.602c-13.786,5.199-23.081,15.761-31.929,26.823c-0.758,0.948-1.953,2.249-0.49,3.859
		c20.742-10.44,65.294,3.848,84.119,15.58c-1.966,1.122-3.451,1.133-4.794,0.61c-18.032-7.021-51.751-16.952-70.795-11.638
		c-13.108,3.658-13.27,10.635-18.503,27.093c-5.052,15.886-3.622,19.209-6.846,18.502c-1.032-9.129,2.909-17.725,2.301-26.867
		c0,0-17.687,24.915-50.522,146.217c-25.056,92.566-27.89,115.011-72.113,164.423c-17.992,20.103-24.177,44.022-22.954,70.02
		c0.924,19.653,3.241,39.268,8.021,58.485c6.11,24.567-29.433-9.126-32.91-84.743c-0.077-1.666,1.287-3.844-0.932-4.929
		c-2.382-1.165-3.597,1.1-5.009,2.33c-17.622,15.356-7.627,64.675,1.126,86.605c1.054,2.64,2.665,5.264,2.226,8.622
		c-8.192-3.044-23.53-36.127-24.744-57.927c-0.129-2.315-0.609-4.483-3.182-5.594c-7.926,39.474-7.24,96.457-8.571,109.594
		c-3.722,36.737,9.42,70.344,30.852,97.345c3.716,4.681-0.001,7.575-4.425,5.302c-11.601-5.96-30.602-26.935-38.747-54.258
		c-1.146-3.846-3.521-3.661-4.643-1.535c-36.882,69.885,7.818,408.053,20.459,439.901c2.853,7.187,5.211,3.826,22.406-1.883
		c80.879-26.858,173.881-63.643,256.676-111.267c11.03-6.346,9.329,2.703,17.145-34.822
		c69.725-334.763,75.842-272.149,249.879-454.102c-7.587,2.501-13.308,8.726-21.452,9.737
		c26.286-22.443,39.291-26.078,77.988-78.817c22.558-30.744,19.34-115.078,37.902-183.736c10.669-39.462,10.97-61.477,14.98-89.046
		c6.702-46.072,16.583-55.065,22.965-89.367c10.272-55.217-25.202-59.304-48.372-174.877
		c-18.728-93.414-75.321-135.939-92.142-217.656c-0.327-1.588,0.582-4.326-2.009-4.279c-8.274,0.151-0.229,39.805-6.167,44.287
		c-0.878-4.225-1.502-7.934-2.43-11.565c-7.19-28.126,5.753-36.237-3.819-36.551c-9.231-0.303-24.052,5.809-36.594,24.037
		c-45.018,65.434,5.302,112.551,23.868,177.705c1.05,3.685,1.45,8.423,5.208,10.266c7.179,3.521,14.237,7.947,22.927,6.734
		c1.746-0.244,3.908-0.247,5.287,1.827c-17.122,12.105-27.784-1.515-27.824,6.822c-0.023,4.892-2.122,47.543,10.036,106.31
		c8.261,39.93,18.32,45.774,10.641,61.395c-1.329,2.703,1.159,4.165,2.932,4.965c29.927,13.507,30.505,9.471,30.016,12.826
		c-0.27,1.85-2.329,1.246-3.695,1.258c-21.915,0.204-32.051-13.411-35.497-2.197c-2.938,9.56-18.493,42.927-28.947,69.662
		c-25.045,64.05-23.302,70.439-17.555,90.044c4.773,16.281,11.073,18.355,7.19,21.057c-1.046,0.728-2.069,0.257-2.914-0.572
		c-9.841-9.647-17.882-20.288-19.282-34.644c-0.144-1.475,0.579-3.638-1.597-4.036c-3.829-0.702-24.063,37.178-24.825,49.645
		c-0.954,15.588-3.836,31.382,2.379,46.659c0.452,1.111,0.589,2.802-0.686,3.47c-2.078,1.089-2.234-1.15-2.921-2.201
		c-6.321-9.665-7.373-20.863-9.178-31.84c-0.197-1.2,0.402-2.916-1.03-3.398c-1.59-0.535-2.794,0.971-3.417,2.11
		c-10.438,19.082-22.606,36.458-1.934,88.128C1578.923,862.314,1582.953,867.766,1584.692,874.656z M1838.228,90.697
		c-8.539-37.407,15.351-51.707-3.093-51.157c-23.147,0.69-42.825,19.284-56.755,37.665c-33.508,44.217-5.668,105.456,3.068,147.067
		c5.83,27.768,0.895,32.263,11.789,39.421c6.165,4.05,12.511,7.062,19.874,7.857c4.763,0.515,3.625,4.196,1.218,4.412
		c-7.505,0.673-15.19,2.505-22.333-1.215c-6.481-3.375-5.829-7.247-1.819,101.352c2.616,70.857,76.96,138.661,51.237,189.424
		c-14.91,29.423-15.902,43.543-18.812,75.465c-4.89,53.66-17.146,76.872-23.323,101.992c-17.338,70.51-3.335,132.503-32.52,171.712
		c-0.615,0.827-1.09,1.93,0.512,3.514c5.381-6.225,42.121-54.881,51.384-95.136c4.731-20.563,6.103-38.697,15.593-72.34
		c27.279-96.709,68.978-128.05,85.146-201.053c18.672-84.305,5.506-110.178,3.753-129.38c-5.993-65.64-3.566-64.233-8.971-95.571
		c-6.845-39.69-7.269-60.849-13.066-82.358c-24.027-89.156-45.926-144.793-46.21-170.748c-0.271-24.771-0.62-25.083-2.951-25.658
		c-3.957-0.976-8.544,20.584-9.2,24.652C1841.67,77.324,1839.845,83.941,1838.228,90.697z M1933.896,145.997
		c-5.314-4.112,0.642-23.562,2.058-28.517c1.088-3.807,5.401-7.301,4.14-10.965c-1.53-4.448-7.459-2.297-11.146-4.207
		c-11.673-6.049-34.081,6.154-49.859,25.955c-4.514,5.665,19.507,54.475,31.664,108.191c10.209,45.107,8.711,59.174,18.959,143.377
		c8.206,67.421,25.168,138.425-20.969,232.939c-1.274,2.609-4.419,5.001-3.172,8.713c0.615-0.047,1.077,0.062,1.299-0.12
		c86.199-70.812,65.939-74.404,66.518-158.601c0.498-72.334,12.262-124.496-12.844-247.218c-9.848-48.135-14.239-70.792-12.5-94.214
		c0.415-5.598,1.629-9.146-1.224-9.297c-1.181-0.063-1.393,1.048-1.569,1.891c-1.403,6.746-5.05,12.666-7.084,19.231
		C1936.901,137.249,1936.402,141.883,1933.896,145.997z M1537.878,853.135c4.594,0.682,10.329-7.193,21.894-9.633
		c2.847-0.601,1.793-9.028-3.215-5.606C1550.099,842.311,1543.46,846.519,1537.878,853.135z"/>
	<path d="M558.882,678.872c6.495,16.748,15.608,31.353,26.328,45.046c2.742,3.503,4.487,3.865,7.837,0.386
		c27.069-28.109,105.592-42.078,104.885-31.258c-0.18,2.751-2.542,1.77-4.245,1.757c-29.546-0.223-72.656,15.465-96.542,33.155
		c-10.697,7.922,26.505,34.337,86.55-4.13c-4.192,11.164-28.854,23.075-47.637,26.101c-18.871,3.04-44.226,9.838-74.673-55.474
		C559.356,690.102,555.99,684.976,558.882,678.872z"/>
	<path d="M749.195,864.121c-11.568,13.538-35.394,23.079-51.969,29.209c-29.596,10.945-66.649-14.223-61.225-20.219
		c4.737-5.237,14.778,5.572,26.105,9.85c10.966,4.142,44.711,4.833,79.057-15.86C743.246,865.846,745.349,863.734,749.195,864.121z"
		/>
	<path d="M735.12,892.406c-13.421,11.319-42.179,22.011-65.378,17.439c-5.616-1.107-10.227-4.26-15.052-6.966
		c-1.626-0.912-1.778-2.943-0.824-4.345c2.691-3.954,8.007,3.476,23.261,5.533C697.327,906.791,725.23,895.095,735.12,892.406z"/>
	<path d="M1495.08,630.503c1.622,2.977,1.734,5.358,1.17,7.503c-6.059,23.068-15.607,44.435-32.393,61.786
		c-29.814,30.818-95.433-6.044-90.67-11.475c0.682-0.778,1.633-0.36,2.422,0.234c20.396,15.331,61.517,22.692,82.613,5.921
		c5.754-4.575,5.764-6.072-0.655-9.985c-22.44-13.681-64.611-26.856-92.846-24.85c-2.912,0.207-7.855,2.118-8.537-1.672
		c-0.529-2.943,4.731-1.629,7.155-2.906c14.319-7.541,81.395,8.562,100.757,26.641c3.746,3.497,5.817,4.192,19.856-23.183
		C1488.419,649.809,1491.995,640.738,1495.08,630.503z"/>
	<path d="M1319.398,833.561c3.895-2.166,6.136,1.076,8.176,2.12c9.857,5.049,20.317,8.615,30.97,10.513
		c44.279,7.89,52.941-4.247,65.844-12.736c24.076-15.84-8.76,60.451-98.759,5.383
		C1323.388,837.471,1325.235,839.116,1319.398,833.561z"/>
	<path d="M1335.33,861.979c6.859-5.328,6.896,3.614,44.05,6.47c17.782,1.367,27.876-7.785,32.402-8.722
		c15.678-3.251-8.708,21.774-37.064,14.681c-6.276-1.57-12.705-2.022-18.987-4.04C1348.859,868.16,1342.698,864.843,1335.33,861.979
		z"/>
</g>
</svg>
