<?xml version="1.0" encoding="UTF-8" standalone="no"?>
<!-- Created with Inkscape (http://www.inkscape.org/) -->

<svg
   xmlns:dc="http://purl.org/dc/elements/1.1/"
   xmlns:cc="http://creativecommons.org/ns#"
   xmlns:rdf="http://www.w3.org/1999/02/22-rdf-syntax-ns#"
   xmlns:svg="http://www.w3.org/2000/svg"
   xmlns="http://www.w3.org/2000/svg"
   xmlns:sodipodi="http://sodipodi.sourceforge.net/DTD/sodipodi-0.dtd"
   xmlns:inkscape="http://www.inkscape.org/namespaces/inkscape"
   version="1.1"
   id="svg3726"
   xml:space="preserve"
   width="800"
   height="800"
   viewBox="0 0 800 800"
   sodipodi:docname="panda-bear-pdv.svg"
   inkscape:version="0.92.4 (5da689c313, 2019-01-14)"><metadata
     id="metadata3732"><rdf:RDF><cc:Work
         rdf:about=""><dc:format>image/svg+xml</dc:format><dc:type
           rdf:resource="http://purl.org/dc/dcmitype/StillImage" /><dc:title></dc:title></cc:Work></rdf:RDF></metadata><defs
     id="defs3730"><clipPath
       clipPathUnits="userSpaceOnUse"
       id="clipPath3742"><path
         d="M 0,600 H 600 V 0 H 0 Z"
         id="path3740"
         inkscape:connector-curvature="0" /></clipPath></defs><sodipodi:namedview
     pagecolor="#ffffff"
     bordercolor="#666666"
     borderopacity="1"
     objecttolerance="10"
     gridtolerance="10"
     guidetolerance="10"
     inkscape:pageopacity="0"
     inkscape:pageshadow="2"
     inkscape:window-width="724"
     inkscape:window-height="480"
     id="namedview3728"
     showgrid="false"
     inkscape:zoom="0.295"
     inkscape:cx="400"
     inkscape:cy="400"
     inkscape:window-x="0"
     inkscape:window-y="0"
     inkscape:window-maximized="0"
     inkscape:current-layer="g3734" /><g
     id="g3734"
     inkscape:groupmode="layer"
     inkscape:label="panda-bear-pdv"
     transform="matrix(1.3333333,0,0,-1.3333333,0,800)"><g
       id="g3736"><g
         id="g3738"
         clip-path="url(#clipPath3742)"><path
           d="m 407.123,212.434 c -0.944,-0.112 -1.833,0 -2.641,0.261 -2.475,1.309 -4.963,2.748 -7.367,4.313 15.065,41.836 11.585,117.783 9.008,180.168 -2.637,63.752 -47.497,130.756 -62.095,144.277 -3.611,3.348 -7.165,6.343 -10.584,8.982 30.161,-1.652 109.88,-12.274 135.342,-77.677 l 0.83,0.326 c 7.878,-21.795 11.133,-47.757 3.838,-59.492 -11.711,-18.831 -6.51,-38.59 -3.117,-79.944 3.39,-41.355 4.334,-47.021 -16.787,-88.58 -21.12,-41.562 -40.522,-32.666 -46.427,-32.634 M 362.238,52.811 c -0.098,-0.668 -0.44,-1.186 -0.592,-1.635 -0.384,-0.885 -0.623,-1.365 -0.623,-1.365 0,0 0.085,0.548 0.269,1.468 0.062,0.467 0.293,0.998 0.257,1.659 -0.005,0.648 0.085,1.365 0.043,2.138 -0.054,0.385 -0.108,0.785 -0.163,1.197 -0.041,0.415 -0.086,0.838 -0.25,1.25 -0.128,0.415 -0.264,0.842 -0.4,1.278 -0.164,0.422 -0.406,0.824 -0.606,1.248 l -0.319,0.635 -0.435,0.58 c -0.31,0.375 -0.546,0.804 -0.897,1.158 l -1.055,1.053 c -0.365,0.343 -0.809,0.601 -1.203,0.91 -0.382,0.332 -0.826,0.57 -1.274,0.804 -0.446,0.225 -0.862,0.526 -1.342,0.665 -0.471,0.167 -0.931,0.349 -1.385,0.533 -0.476,0.111 -0.949,0.222 -1.411,0.328 -0.458,0.144 -0.93,0.142 -1.383,0.193 -0.461,0.022 -0.913,0.141 -1.346,0.082 -0.871,-0.072 -1.722,-0.049 -2.464,-0.281 -0.38,-0.082 -0.744,-0.162 -1.093,-0.236 -0.327,-0.131 -0.632,-0.254 -0.923,-0.369 -0.595,-0.215 -1.121,-0.442 -1.504,-0.741 -0.801,-0.513 -1.274,-0.785 -1.274,-0.785 0,0 0.372,0.402 1.047,1.068 0.312,0.362 0.784,0.694 1.38,1.059 0.292,0.188 0.605,0.389 0.936,0.602 0.359,0.138 0.738,0.285 1.133,0.435 0.784,0.365 1.7,0.487 2.671,0.649 0.489,0.103 0.992,0.035 1.51,0.06 0.518,0.006 1.048,0.014 1.575,-0.103 0.53,-0.092 1.071,-0.184 1.613,-0.282 0.529,-0.171 1.059,-0.349 1.594,-0.529 0.552,-0.152 1.031,-0.474 1.548,-0.724 0.514,-0.258 1.024,-0.524 1.475,-0.889 0.452,-0.36 0.941,-0.672 1.352,-1.072 l 1.198,-1.241 c 0.393,-0.412 0.664,-0.922 0.983,-1.379 l 0.451,-0.697 0.328,-0.756 c 0.199,-0.502 0.457,-0.974 0.588,-1.476 0.106,-0.512 0.207,-1.008 0.308,-1.494 0.247,-0.957 0.079,-1.909 0.117,-2.746 -0.062,-0.842 -0.299,-1.594 -0.434,-2.252 m -29.126,7.845 -0.431,0.578 c -0.309,0.375 -0.55,0.807 -0.896,1.157 l -1.058,1.054 c -0.363,0.344 -0.806,0.604 -1.2,0.91 -0.384,0.333 -0.828,0.573 -1.275,0.805 -0.449,0.225 -0.862,0.526 -1.347,0.664 -0.466,0.168 -0.926,0.348 -1.382,0.531 -0.475,0.114 -0.948,0.225 -1.411,0.333 -0.461,0.144 -0.931,0.14 -1.386,0.191 -0.457,0.021 -0.911,0.141 -1.344,0.082 -0.869,-0.072 -1.722,-0.049 -2.462,-0.279 -0.382,-0.084 -0.745,-0.162 -1.094,-0.241 -0.324,-0.127 -0.633,-0.252 -0.924,-0.367 -0.593,-0.217 -1.122,-0.441 -1.502,-0.74 -0.799,-0.514 -1.276,-0.785 -1.276,-0.785 0,0 0.37,0.402 1.049,1.068 0.309,0.363 0.784,0.694 1.378,1.059 0.295,0.187 0.607,0.388 0.937,0.599 0.359,0.141 0.736,0.288 1.131,0.438 0.784,0.367 1.703,0.486 2.673,0.646 0.489,0.106 0.991,0.037 1.51,0.061 0.518,0.008 1.05,0.018 1.575,-0.102 0.529,-0.089 1.069,-0.181 1.616,-0.279 0.525,-0.174 1.057,-0.353 1.594,-0.531 0.548,-0.153 1.029,-0.475 1.544,-0.725 0.515,-0.258 1.025,-0.525 1.475,-0.888 0.456,-0.356 0.943,-0.67 1.357,-1.071 l 1.192,-1.242 c 0.396,-0.412 0.665,-0.92 0.983,-1.377 l 0.452,-0.697 0.329,-0.758 c 0.2,-0.502 0.46,-0.973 0.589,-1.477 0.104,-0.511 0.207,-1.007 0.305,-1.492 0.247,-0.959 0.081,-1.91 0.118,-2.748 -0.063,-0.842 -0.298,-1.592 -0.432,-2.25 -0.1,-0.672 -0.438,-1.187 -0.595,-1.638 -0.383,-0.883 -0.619,-1.364 -0.619,-1.364 0,0 0.083,0.549 0.27,1.469 0.063,0.467 0.288,1 0.256,1.658 -0.006,0.647 0.082,1.365 0.038,2.137 -0.05,0.387 -0.104,0.789 -0.161,1.199 -0.042,0.414 -0.082,0.838 -0.249,1.25 -0.128,0.414 -0.261,0.842 -0.395,1.277 -0.169,0.422 -0.409,0.827 -0.613,1.249 z M 280.926,253.26 c 0,0 -33.603,12.459 -35.945,5.107 -7.28,-22.846 -50.141,-16.967 -60,-1.976 -9.86,14.988 -14.182,-0.873 -39.238,0.498 -25.053,1.371 -35.721,28.152 -45.622,42.396 -14.932,25.1 -9.784,89.33 -0.612,109.891 7.304,14.835 13.296,23.707 22.364,32.597 4.337,4.614 23.848,11.25 30.733,16.346 0,0 1.95,1.388 1.989,1.484 7.583,5.587 9.601,8.103 9.601,8.103 0.675,0.513 2.439,1.554 3.721,2.3 5.041,2.372 11.311,4.544 18.623,6.108 10.869,2.328 44.266,7.188 74.626,-11.755 2.069,-2.666 4.387,-4.984 7.09,-7.977 10.425,-9.267 16.088,-15.944 23.702,-23.486 7.216,-12.36 25.714,-38.708 29.939,-58.44 l 1.416,-3.99 c 0.978,-5.128 1.953,-9.031 2.96,-11.793 2.458,-6.732 10.674,-97.644 -45.347,-105.413 M 303.658,54.525 c -0.102,-0.671 -0.441,-1.185 -0.595,-1.636 -0.384,-0.885 -0.621,-1.366 -0.621,-1.366 0,0 0.085,0.549 0.267,1.471 0.064,0.467 0.293,0.996 0.257,1.656 -0.005,0.649 0.084,1.368 0.042,2.141 -0.051,0.383 -0.106,0.783 -0.162,1.197 -0.042,0.414 -0.08,0.838 -0.25,1.25 -0.128,0.412 -0.261,0.84 -0.397,1.278 -0.168,0.42 -0.406,0.822 -0.607,1.246 l -0.319,0.634 -0.438,0.583 c -0.309,0.373 -0.546,0.804 -0.894,1.154 l -1.057,1.055 c -0.365,0.345 -0.807,0.603 -1.201,0.912 -0.385,0.332 -0.828,0.57 -1.274,0.804 -0.448,0.223 -0.862,0.526 -1.344,0.662 -0.47,0.168 -0.929,0.35 -1.383,0.534 -0.477,0.111 -0.951,0.224 -1.411,0.33 -0.462,0.142 -0.933,0.142 -1.386,0.193 -0.459,0.022 -0.912,0.141 -1.346,0.082 -0.869,-0.074 -1.721,-0.049 -2.461,-0.279 -0.384,-0.088 -0.747,-0.166 -1.094,-0.24 -0.325,-0.129 -0.634,-0.252 -0.923,-0.368 -0.596,-0.216 -1.123,-0.443 -1.503,-0.74 -0.803,-0.514 -1.274,-0.787 -1.274,-0.787 0,0 0.369,0.402 1.047,1.07 0.312,0.362 0.783,0.694 1.378,1.057 0.294,0.189 0.607,0.391 0.937,0.602 0.358,0.138 0.737,0.287 1.131,0.435 0.785,0.367 1.702,0.486 2.672,0.649 0.49,0.105 0.994,0.035 1.51,0.06 0.517,0.008 1.05,0.018 1.575,-0.101 0.531,-0.092 1.072,-0.186 1.615,-0.282 0.525,-0.174 1.059,-0.351 1.595,-0.531 0.549,-0.152 1.032,-0.473 1.546,-0.723 0.514,-0.257 1.024,-0.525 1.475,-0.892 0.452,-0.356 0.942,-0.668 1.355,-1.071 l 1.194,-1.236 c 0.393,-0.414 0.666,-0.924 0.983,-1.381 l 0.451,-0.697 0.33,-0.756 c 0.199,-0.504 0.457,-0.974 0.59,-1.478 0.102,-0.51 0.205,-1.006 0.305,-1.491 0.246,-0.959 0.08,-1.91 0.115,-2.748 -0.059,-0.843 -0.297,-1.593 -0.43,-2.252 M 195.149,83.84 c 0.526,-0.174 1.056,-0.352 1.594,-0.529 0.549,-0.157 1.028,-0.475 1.546,-0.725 0.513,-0.258 1.024,-0.525 1.473,-0.889 0.454,-0.359 0.944,-0.672 1.356,-1.074 l 1.193,-1.238 c 0.394,-0.414 0.668,-0.922 0.986,-1.379 l 0.451,-0.697 0.327,-0.756 c 0.199,-0.504 0.457,-0.975 0.59,-1.479 0.106,-0.51 0.207,-1.008 0.307,-1.494 0.246,-0.957 0.079,-1.91 0.114,-2.746 -0.058,-0.842 -0.296,-1.592 -0.43,-2.252 -0.101,-0.67 -0.442,-1.184 -0.596,-1.637 -0.382,-0.882 -0.62,-1.363 -0.62,-1.363 0,0 0.086,0.549 0.269,1.471 0.062,0.465 0.291,0.996 0.258,1.656 -0.007,0.648 0.08,1.367 0.04,2.141 -0.051,0.382 -0.106,0.783 -0.16,1.197 -0.044,0.414 -0.084,0.836 -0.251,1.25 -0.13,0.412 -0.261,0.842 -0.399,1.275 -0.164,0.42 -0.408,0.826 -0.609,1.248 l -0.317,0.635 -0.435,0.582 c -0.31,0.373 -0.548,0.803 -0.896,1.154 l -1.058,1.055 c -0.362,0.344 -0.803,0.604 -1.2,0.912 -0.383,0.332 -0.825,0.571 -1.273,0.803 -0.45,0.227 -0.864,0.527 -1.347,0.664 -0.469,0.17 -0.927,0.35 -1.383,0.531 -0.477,0.114 -0.948,0.225 -1.41,0.332 -0.462,0.143 -0.93,0.141 -1.387,0.192 -0.456,0.023 -0.91,0.142 -1.345,0.084 -0.87,-0.075 -1.72,-0.049 -2.461,-0.282 -0.38,-0.086 -0.745,-0.164 -1.094,-0.24 -0.324,-0.127 -0.632,-0.25 -0.923,-0.367 -0.596,-0.213 -1.123,-0.443 -1.505,-0.738 -0.8,-0.516 -1.272,-0.789 -1.272,-0.789 0,0 0.368,0.404 1.045,1.072 0.314,0.361 0.787,0.693 1.38,1.055 0.293,0.191 0.607,0.392 0.937,0.603 0.358,0.139 0.737,0.285 1.132,0.438 0.784,0.365 1.701,0.482 2.674,0.644 0.487,0.108 0.989,0.039 1.508,0.063 0.517,0.006 1.05,0.015 1.575,-0.102 0.531,-0.094 1.071,-0.183 1.616,-0.281 M 176.487,63.959 c -0.101,-0.67 -0.442,-1.184 -0.596,-1.637 -0.382,-0.883 -0.62,-1.365 -0.62,-1.365 0,0 0.085,0.551 0.269,1.471 0.062,0.467 0.29,1 0.258,1.658 -0.006,0.646 0.08,1.365 0.04,2.141 -0.05,0.382 -0.107,0.783 -0.162,1.197 -0.042,0.412 -0.083,0.836 -0.25,1.248 -0.128,0.416 -0.261,0.842 -0.399,1.277 -0.166,0.422 -0.405,0.824 -0.61,1.248 l -0.315,0.637 -0.435,0.58 c -0.31,0.373 -0.549,0.803 -0.896,1.154 l -1.058,1.055 c -0.363,0.344 -0.805,0.602 -1.2,0.91 -0.384,0.332 -0.827,0.572 -1.275,0.803 -0.449,0.227 -0.862,0.527 -1.345,0.668 -0.468,0.166 -0.927,0.348 -1.382,0.529 -0.477,0.113 -0.949,0.225 -1.41,0.334 -0.463,0.143 -0.932,0.139 -1.388,0.19 -0.456,0.021 -0.91,0.14 -1.345,0.084 -0.868,-0.077 -1.72,-0.051 -2.461,-0.284 -0.381,-0.082 -0.747,-0.162 -1.094,-0.236 -0.326,-0.131 -0.632,-0.252 -0.922,-0.371 -0.598,-0.213 -1.124,-0.439 -1.505,-0.736 -0.801,-0.514 -1.275,-0.787 -1.275,-0.787 0,0 0.371,0.4 1.048,1.07 0.313,0.361 0.784,0.691 1.38,1.055 0.293,0.191 0.606,0.39 0.937,0.601 0.357,0.139 0.736,0.287 1.13,0.438 0.785,0.367 1.702,0.486 2.673,0.648 0.487,0.106 0.992,0.037 1.509,0.061 0.518,0.005 1.051,0.015 1.575,-0.104 0.531,-0.092 1.072,-0.183 1.616,-0.279 0.526,-0.174 1.058,-0.354 1.595,-0.529 0.549,-0.155 1.03,-0.477 1.546,-0.725 0.513,-0.258 1.023,-0.527 1.476,-0.891 0.451,-0.359 0.942,-0.672 1.354,-1.072 l 1.194,-1.24 c 0.392,-0.41 0.666,-0.92 0.982,-1.379 l 0.451,-0.695 0.328,-0.758 c 0.201,-0.502 0.46,-0.973 0.592,-1.479 0.103,-0.51 0.205,-1.006 0.305,-1.492 0.246,-0.957 0.08,-1.908 0.116,-2.746 -0.06,-0.842 -0.298,-1.592 -0.431,-2.252 m -45.035,12.484 c -0.382,-0.236 -0.613,-0.371 -0.613,-0.371 0,0 0.213,0.229 0.603,0.625 0.13,0.133 0.278,0.282 0.445,0.446 0.313,0.363 0.784,0.695 1.379,1.058 0.294,0.19 0.607,0.389 0.938,0.6 0.358,0.138 0.737,0.287 1.132,0.437 0.783,0.367 1.701,0.485 2.674,0.647 0.485,0.107 0.99,0.037 1.507,0.062 0.518,0.006 1.05,0.016 1.576,-0.101 0.529,-0.094 1.07,-0.186 1.615,-0.282 0.525,-0.173 1.057,-0.353 1.592,-0.531 0.552,-0.154 1.032,-0.472 1.549,-0.724 0.512,-0.256 1.022,-0.524 1.474,-0.891 0.453,-0.355 0.943,-0.668 1.355,-1.07 l 0.62,-0.643 0.575,-0.596 c 0.393,-0.414 0.665,-0.921 0.981,-1.379 l 0.452,-0.697 0.326,-0.758 c 0.202,-0.504 0.462,-0.972 0.593,-1.478 0.105,-0.51 0.205,-1.006 0.305,-1.49 0.246,-0.959 0.081,-1.911 0.116,-2.748 -0.059,-0.844 -0.298,-1.594 -0.431,-2.252 -0.1,-0.668 -0.442,-1.186 -0.594,-1.637 C 151.237,61.787 151,61.305 151,61.305 c 0,0 0.084,0.55 0.269,1.47 0.063,0.467 0.29,0.998 0.257,1.657 -0.005,0.65 0.08,1.369 0.041,2.14 -0.053,0.383 -0.105,0.785 -0.163,1.199 -0.041,0.413 -0.083,0.836 -0.25,1.249 -0.128,0.412 -0.261,0.841 -0.398,1.277 -0.166,0.422 -0.407,0.824 -0.61,1.248 l -0.316,0.635 -0.435,0.58 c -0.31,0.375 -0.548,0.804 -0.895,1.158 l -0.372,0.369 -0.687,0.684 c -0.361,0.343 -0.805,0.601 -1.2,0.91 -0.383,0.332 -0.827,0.572 -1.275,0.805 -0.449,0.226 -0.862,0.525 -1.345,0.664 -0.468,0.168 -0.927,0.349 -1.383,0.531 -0.477,0.113 -0.947,0.224 -1.409,0.33 -0.462,0.144 -0.93,0.143 -1.388,0.193 -0.456,0.022 -0.91,0.141 -1.344,0.084 -0.868,-0.074 -1.72,-0.05 -2.462,-0.281 -0.381,-0.086 -0.745,-0.164 -1.093,-0.238 -0.326,-0.131 -0.633,-0.254 -0.924,-0.369 -0.594,-0.213 -1.124,-0.442 -1.504,-0.741 -0.262,-0.168 -0.474,-0.3 -0.662,-0.416 m -26.602,5.323 c -0.594,-0.215 -1.122,-0.442 -1.502,-0.741 -0.802,-0.511 -1.275,-0.787 -1.275,-0.787 0,0 0.37,0.403 1.046,1.071 0.313,0.363 0.785,0.693 1.379,1.056 0.295,0.192 0.607,0.391 0.939,0.604 0.357,0.138 0.736,0.283 1.131,0.435 0.783,0.366 1.701,0.485 2.674,0.647 0.485,0.107 0.99,0.037 1.508,0.06 0.518,0.006 1.049,0.018 1.575,-0.101 0.529,-0.09 1.071,-0.184 1.615,-0.28 0.525,-0.173 1.057,-0.353 1.594,-0.531 0.548,-0.154 1.03,-0.474 1.547,-0.724 0.512,-0.258 1.023,-0.524 1.475,-0.889 0.452,-0.359 0.942,-0.672 1.354,-1.07 l 1.194,-1.243 c 0.003,-0.003 0.006,-0.009 0.011,-0.011 0.386,-0.41 0.658,-0.912 0.971,-1.367 l 0.452,-0.696 0.327,-0.756 c 0.201,-0.505 0.461,-0.974 0.592,-1.48 0.105,-0.51 0.206,-1.008 0.305,-1.492 0.246,-0.959 0.081,-1.91 0.118,-2.746 -0.061,-0.842 -0.3,-1.594 -0.433,-2.252 -0.1,-0.67 -0.441,-1.184 -0.594,-1.635 -0.384,-0.883 -0.621,-1.365 -0.621,-1.365 0,0 0.085,0.548 0.268,1.468 0.064,0.467 0.291,1 0.259,1.659 -0.005,0.646 0.079,1.365 0.039,2.14 -0.05,0.383 -0.105,0.783 -0.162,1.198 -0.041,0.41 -0.081,0.835 -0.249,1.248 -0.129,0.414 -0.262,0.839 -0.398,1.277 -0.167,0.422 -0.408,0.824 -0.61,1.248 l -0.317,0.637 -0.434,0.578 c -0.285,0.345 -0.518,0.732 -0.824,1.068 -0.027,0.027 -0.045,0.063 -0.072,0.09 l -1.058,1.053 c -0.362,0.343 -0.806,0.601 -1.199,0.91 -0.384,0.332 -0.829,0.572 -1.276,0.805 -0.449,0.224 -0.863,0.523 -1.345,0.666 -0.469,0.164 -0.928,0.345 -1.383,0.531 -0.478,0.111 -0.947,0.221 -1.41,0.33 -0.462,0.144 -0.93,0.142 -1.388,0.191 -0.455,0.02 -0.909,0.141 -1.343,0.084 -0.87,-0.074 -1.721,-0.049 -2.463,-0.283 -0.382,-0.082 -0.745,-0.162 -1.093,-0.236 -0.324,-0.131 -0.634,-0.254 -0.924,-0.369 m 104.296,484.165 c 19.749,0.552 27.937,-2.205 33.916,-4.221 2.928,-0.985 5.452,-1.837 8.465,-2.001 2.032,-0.111 4.93,0.354 8.935,0.998 13.694,2.198 38.96,6.247 57.58,-9.161 15.428,-24.644 40.074,-79.506 19.629,-126.263 -6.998,-16.006 -11.22,-27.702 -13.635,-36.425 -4.358,11.473 -10.454,23.154 -15.932,32.661 26.895,4.044 45.776,53.587 14.274,72.588 -34.21,20.64 -56.661,-0.058 -60.639,-21.317 -31.752,18.026 -65.522,13.098 -76.775,10.686 -6.214,-1.331 -11.936,-3.095 -16.963,-5.168 -1.889,12.334 -11.686,28.199 -27.812,31.837 20.636,45.011 48.817,55.224 68.957,55.786 m 60.52,-505.46 c -0.1,-0.672 -0.439,-1.186 -0.595,-1.639 -0.383,-0.881 -0.62,-1.363 -0.62,-1.363 0,0 0.085,0.549 0.271,1.469 0.062,0.466 0.289,1 0.256,1.658 -0.004,0.646 0.081,1.365 0.039,2.14 -0.049,0.383 -0.103,0.784 -0.162,1.198 -0.04,0.41 -0.082,0.836 -0.249,1.248 -0.128,0.414 -0.262,0.839 -0.398,1.277 -0.165,0.422 -0.408,0.824 -0.607,1.248 l -0.32,0.637 -0.432,0.578 c -0.31,0.375 -0.551,0.807 -0.896,1.158 l -1.058,1.053 c -0.364,0.346 -0.807,0.601 -1.201,0.908 -0.384,0.334 -0.829,0.574 -1.275,0.805 -0.45,0.226 -0.862,0.527 -1.346,0.668 -0.467,0.164 -0.927,0.347 -1.384,0.531 -0.475,0.111 -0.947,0.223 -1.409,0.33 -0.461,0.145 -0.931,0.143 -1.386,0.191 -0.457,0.022 -0.912,0.139 -1.345,0.084 -0.866,-0.074 -1.721,-0.048 -2.461,-0.283 -0.383,-0.082 -0.747,-0.162 -1.093,-0.238 -0.327,-0.129 -0.636,-0.252 -0.923,-0.367 -0.597,-0.213 -1.126,-0.44 -1.506,-0.741 -0.8,-0.511 -1.274,-0.787 -1.274,-0.787 0,0 0.369,0.405 1.048,1.073 0.313,0.361 0.784,0.691 1.378,1.054 0.296,0.19 0.607,0.391 0.938,0.604 0.359,0.139 0.737,0.283 1.133,0.437 0.782,0.366 1.7,0.483 2.673,0.647 0.487,0.105 0.99,0.035 1.506,0.058 0.518,0.008 1.052,0.018 1.577,-0.101 0.53,-0.09 1.07,-0.184 1.616,-0.279 0.525,-0.174 1.056,-0.354 1.593,-0.53 0.549,-0.154 1.031,-0.476 1.545,-0.724 0.514,-0.258 1.024,-0.528 1.475,-0.893 0.454,-0.357 0.943,-0.668 1.354,-1.068 l 1.194,-1.242 c 0.395,-0.411 0.668,-0.92 0.983,-1.377 l 0.454,-0.698 0.327,-0.756 c 0.198,-0.503 0.46,-0.974 0.591,-1.478 0.104,-0.512 0.204,-1.008 0.305,-1.494 0.245,-0.959 0.081,-1.91 0.117,-2.746 -0.06,-0.842 -0.3,-1.594 -0.433,-2.25 M 515.5,183.252 c 7.877,29.094 6.61,86.332 -7.88,108.484 -14.492,22.152 -2.526,68.613 -10.131,124.8 -5.546,40.986 -27.655,78.39 -39.053,88.566 -16.758,20.389 -41.379,35.527 -72.776,44.45 -31.537,8.965 -59.109,8.791 -63.589,8.695 -0.503,0.3 -0.997,0.59 -1.48,0.868 -20.875,15.512 -46.958,11.334 -61.325,9.024 -3.137,-0.506 -6.103,-0.982 -7.329,-0.914 -1.987,0.108 -3.871,0.742 -6.472,1.618 -6.149,2.072 -15.438,5.204 -36.529,4.612 -22.581,-0.63 -54.182,-11.915 -76.481,-62.105 -0.069,-0.157 -0.128,-0.291 -0.191,-0.433 -6.109,-0.181 -12.914,-2.043 -20.353,-6.209 C 80.07,486.881 90.771,454.69 109.153,442.17 102.434,431.627 94.376,417.168 90.337,404.189 80.73,377.292 81.714,328.632 89.442,307.086 c 0.154,-20.109 -5.239,-61.279 2.676,-83.07 7.917,-21.791 11.762,-66.293 14.456,-85.914 2.697,-19.623 -0.655,-49.358 -8.787,-60.219 -4.886,-6.526 -0.599,-12.16 6.404,-16.592 -0.115,-0.607 -0.245,-1.217 -0.337,-1.814 -0.347,-2.266 -0.512,-4.485 -0.281,-6.428 0.117,-0.967 0.303,-1.846 0.618,-2.584 0.129,-0.367 0.294,-0.697 0.485,-0.983 0.166,-0.287 0.33,-0.533 0.526,-0.732 0.339,-0.412 0.663,-0.648 0.89,-0.799 0.214,-0.146 0.326,-0.224 0.326,-0.224 0.044,0.011 -0.226,0.548 -0.161,1.431 -0.006,0.207 0.042,0.446 0.107,0.694 0.045,0.24 0.126,0.488 0.255,0.753 0.201,0.508 0.558,1.053 0.983,1.594 1.173,1.5 3.118,3.051 5.356,4.596 2.335,-0.996 4.694,-1.889 6.926,-2.658 2.947,-1.022 7.61,-2.098 13.276,-3.016 0.033,-0.59 0.043,-1.191 0.106,-1.771 0.144,-1.172 0.321,-2.291 0.592,-3.348 0.261,-1.049 0.576,-2.022 0.97,-2.875 0.361,-0.85 0.794,-1.588 1.214,-2.184 0.404,-0.603 0.833,-1.062 1.178,-1.422 0.336,-0.363 0.666,-0.589 0.854,-0.759 0.195,-0.158 0.3,-0.246 0.3,-0.246 0,0 -0.014,0.138 -0.043,0.394 -0.016,0.256 -0.09,0.606 -0.074,1.069 0.003,0.457 0.02,0.99 0.136,1.585 0.1,0.59 0.266,1.227 0.537,1.887 0.785,2.069 2.456,4.215 4.523,6.326 4.13,-0.42 8.503,-0.726 12.957,-0.865 0.534,-1.334 1.106,-2.613 1.746,-3.767 1.058,-1.879 2.15,-3.491 3.266,-4.752 0.518,-0.633 1.091,-1.174 1.571,-1.625 0.472,-0.454 0.99,-0.788 1.345,-1.059 0.387,-0.266 0.741,-0.412 0.946,-0.523 0.21,-0.104 0.325,-0.161 0.325,-0.161 0,0 -0.185,0.51 -0.333,1.317 -0.035,0.445 -0.118,0.906 -0.099,1.496 0.013,0.588 0.025,1.201 0.135,1.906 0.153,1.365 0.558,2.959 1.103,4.533 0.317,0.905 0.718,1.799 1.157,2.676 8.216,0.328 16.205,1.381 22.914,3.502 1.952,-2.611 3.486,-5.473 3.848,-7.699 0.242,-1.27 0.022,-2.334 -0.435,-3.043 -0.443,-0.727 -0.963,-0.99 -0.937,-1.022 0,0 0.134,-0.009 0.385,-0.023 0.265,-0.029 0.644,-0.023 1.159,0.086 1.015,0.18 2.55,1.053 3.71,2.627 1.208,1.547 2.152,3.586 2.86,5.787 0.722,2.217 1.217,4.605 1.534,7.039 0.128,1 0.208,2.004 0.276,3.002 13.936,13.463 1.611,39.492 -3.053,49.602 -5.055,10.957 -4.114,51.111 20.724,57.291 24.84,6.177 4.411,12.32 26.261,-7.723 21.85,-20.041 26.677,-12.137 26.942,-36.025 0.263,-23.887 8.483,-27.479 -20.808,-41.581 -14.339,-6.902 -17.247,-15.181 -13.293,-22.453 -0.266,-1.002 -0.515,-2.029 -0.735,-3.07 -0.474,-2.205 -0.82,-4.494 -0.896,-6.705 -0.089,-2.19 0.147,-4.354 0.752,-6.061 0.584,-1.726 1.545,-2.877 2.268,-3.457 0.342,-0.312 0.669,-0.48 0.867,-0.607 0.199,-0.115 0.305,-0.18 0.305,-0.18 0,0 -0.021,0.123 -0.068,0.354 -0.033,0.228 -0.112,0.541 -0.098,0.955 -0.033,0.805 0.196,1.879 0.841,2.887 1.249,2.027 3.98,3.941 7.033,5.574 0.182,0.101 0.372,0.187 0.558,0.281 5.22,-2.992 11.723,-5.361 18.852,-6.734 0.852,-0.166 1.722,-0.336 2.614,-0.512 -0.011,-0.172 -0.04,-0.348 -0.046,-0.52 -0.09,-2.191 0.146,-4.353 0.749,-6.062 0.585,-1.723 1.545,-2.875 2.271,-3.455 0.339,-0.315 0.667,-0.483 0.866,-0.606 0.2,-0.119 0.306,-0.179 0.306,-0.179 0,0 -0.024,0.121 -0.068,0.349 -0.036,0.233 -0.113,0.545 -0.1,0.957 -0.032,0.805 0.195,1.881 0.841,2.887 1.01,1.635 2.989,3.195 5.318,4.598 6.71,-1.33 14.062,-2.705 21.651,-3.739 -0.004,-0.056 -0.01,-0.117 -0.011,-0.175 -0.108,-2.127 0.177,-4.262 0.83,-5.875 0.321,-0.811 0.744,-1.477 1.144,-2.002 0.438,-0.514 0.829,-0.887 1.193,-1.149 0.333,-0.277 0.653,-0.418 0.839,-0.533 0.192,-0.103 0.296,-0.158 0.296,-0.158 0,0 -0.021,0.117 -0.055,0.334 -0.027,0.219 -0.108,0.512 -0.087,0.904 -0.021,0.377 0.043,0.834 0.147,1.291 0.136,0.475 0.335,0.947 0.639,1.402 1.198,1.827 3.786,3.307 6.722,4.559 0.113,0.047 0.229,0.086 0.34,0.133 5.559,-0.406 11.111,-0.529 16.51,-0.217 -0.028,-1.906 0.137,-3.736 0.594,-5.279 0.243,-0.897 0.61,-1.701 0.995,-2.33 0.39,-0.631 0.788,-1.117 1.17,-1.45 0.724,-0.679 1.232,-0.869 1.21,-0.89 0.026,0.008 -0.187,0.523 -0.191,1.381 -0.024,0.416 0.044,0.924 0.193,1.447 0.152,0.525 0.379,1.07 0.733,1.629 1.338,2.213 4.227,4.476 7.415,6.437 0.565,0.35 1.146,0.678 1.725,1.01 9.046,2.164 17.108,6.158 23.208,12.904 22.734,25.141 6.316,103.94 11.91,114.313 5.078,9.416 13.211,44.014 14.674,50.328 3.811,-2.428 7.784,-4.533 11.558,-6.322 13.638,-25.918 34.15,-59.918 27.661,-80.881 -2.156,-6.965 -4.519,-11.494 -6.342,-14.891 l -0.944,0.772 c 0,0 -0.031,-0.119 -0.089,-0.344 -0.087,-0.246 0.219,-0.103 0.051,-0.57 -0.154,-0.715 -0.564,-1.926 -1.072,-3.42 -1.023,-3.01 -2.453,-7.172 -3.396,-11.598 -0.47,-2.209 -0.819,-4.498 -0.895,-6.709 -0.086,-2.189 0.148,-4.351 0.753,-6.06 0.586,-1.725 1.545,-2.877 2.27,-3.455 0.338,-0.313 0.666,-0.481 0.863,-0.608 0.201,-0.117 0.306,-0.18 0.306,-0.18 0,0 -0.019,0.123 -0.066,0.354 -0.035,0.23 -0.115,0.543 -0.101,0.955 -0.031,0.807 0.199,1.879 0.844,2.887 1.247,2.027 3.979,3.943 7.031,5.576 0.176,0.096 0.364,0.18 0.539,0.271 0.418,-0.441 0.837,-0.886 1.288,-1.355 2.184,-2.279 4.89,-4.076 7.958,-5.463 -0.1,-0.863 -0.198,-1.727 -0.228,-2.576 -0.089,-2.19 0.148,-4.354 0.75,-6.061 0.585,-1.726 1.545,-2.877 2.27,-3.457 0.341,-0.312 0.668,-0.48 0.866,-0.603 0.201,-0.119 0.307,-0.182 0.307,-0.182 0,0 -0.025,0.123 -0.068,0.354 -0.036,0.228 -0.113,0.541 -0.101,0.953 -0.03,0.808 0.197,1.881 0.842,2.887 1.24,2.015 3.95,3.921 6.981,5.548 2.238,-0.289 4.564,-0.425 6.939,-0.451 -0.071,-0.695 -0.161,-1.392 -0.182,-2.072 -0.092,-2.192 0.146,-4.354 0.749,-6.063 0.586,-1.724 1.545,-2.875 2.27,-3.455 0.34,-0.312 0.668,-0.48 0.863,-0.607 0.201,-0.117 0.309,-0.18 0.309,-0.18 0,0 -0.023,0.123 -0.068,0.354 -0.036,0.23 -0.113,0.541 -0.103,0.955 -0.027,0.806 0.199,1.879 0.846,2.887 1.25,2.027 3.98,3.943 7.031,5.576 3.048,1.636 6.381,2.978 8.972,4.031 0.317,0.129 0.59,0.248 0.889,0.369 0.132,-0.756 0.263,-1.523 0.433,-2.234 0.324,-1.086 0.534,-2.032 0.959,-2.985 0.377,-0.927 0.743,-1.754 1.232,-2.498 0.227,-0.353 0.439,-0.691 0.642,-1.011 0.255,-0.293 0.499,-0.575 0.727,-0.834 0.446,-0.5 0.825,-0.893 1.242,-1.147 0.768,-0.535 1.16,-0.771 1.16,-0.771 0,0 -0.091,0.529 -0.178,1.334 -0.077,0.38 -0.021,0.894 0.051,1.437 0.04,0.256 0.077,0.529 0.118,0.818 0.092,0.286 0.19,0.588 0.29,0.905 0.166,0.584 0.491,1.23 0.827,1.861 0.284,0.602 0.811,1.293 1.207,1.904 0.966,1.286 2.056,2.536 3.313,3.731 2.453,2.373 5.267,4.455 7.383,5.719 0.525,0.326 1.006,0.584 1.421,0.779 0.463,0.299 0.657,0.164 0.84,0.142 0.099,-0.126 0.537,0.213 0.703,0.282 0.201,0.115 0.31,0.174 0.31,0.174 l -2.406,1.777 c 7.156,4.248 12.782,9.469 15.513,15.266 10.661,22.66 -12.395,49.052 -4.521,78.148 m -258.6,98.625 c -4.351,-8.877 -13.807,-14.541 -28.096,-16.844 -0.145,0.016 -0.295,0.033 -0.439,0.047 -0.592,0.068 -1.174,0.129 -1.751,0.168 -0.578,0.092 -1.145,0.299 -1.707,0.43 -0.565,0.15 -1.13,0.254 -1.684,0.435 l -1.636,0.692 -1.627,0.674 -1.58,0.89 -1.581,0.869 c -0.54,0.25 -1.032,0.658 -1.546,0.992 -1.011,0.709 -2.052,1.37 -3.077,2.053 l -0.548,0.363 0.134,2.452 c 5.304,1.144 15.315,12.179 19.295,19.832 4.872,1.088 8.032,2.982 9.557,5.769 2.179,3.98 0.138,8.406 -0.533,9.86 -0.175,0.379 -0.42,0.851 -0.71,1.418 -2.753,5.32 -9.873,19.193 -1.629,42.437 7.359,-7.803 16.71,-28.532 15.177,-36.801 -0.361,-1.949 0.879,-3.381 2.974,-4.098 3.332,-8.601 5.995,-21.47 1.007,-31.638 m -48.758,-10.414 c -0.293,-0.25 -0.395,-0.582 -0.811,-0.854 -0.296,-0.308 -0.752,-0.564 -1.204,-0.824 -0.424,-0.279 -1.002,-0.463 -1.495,-0.713 -0.542,-0.203 -1.121,-0.367 -1.68,-0.562 l -1.79,-0.44 -1.857,-0.322 c -1.261,-0.152 -2.536,-0.281 -3.83,-0.338 -0.647,-0.049 -1.295,-0.01 -1.948,-0.035 -0.465,-0.021 -0.925,0.004 -1.389,0.025 -19.875,3.789 -26.645,16.211 -28.928,23.59 -2.989,9.66 -1.377,20.547 3.669,26.479 1.477,0.752 3.022,1.729 4.649,3.028 -4.646,13.183 7.253,27.352 12.801,33.024 1.889,-9.662 4.133,-28.114 -3.614,-37.895 -3.02,-3.814 -4.123,-7.685 -3.277,-11.504 1.157,-5.212 5.767,-9.153 9.818,-11.7 5.805,-7.535 17.605,-16.092 22.623,-17.276 l -0.125,-2.298 z m 40.341,106.386 c 0,0 -11.664,1.797 -13.62,-2.08 0,0 -4.726,-11.127 0.014,-18.186 -9.903,-25.932 -1.889,-41.467 1.151,-47.337 0.261,-0.504 0.479,-0.923 0.635,-1.263 1.309,-2.838 1.515,-4.898 0.65,-6.478 -0.728,-1.329 -2.308,-2.415 -4.635,-3.226 0.097,0.622 0.097,1.171 -0.031,1.617 -1.582,5.506 -45.799,2.509 -45.799,2.509 -1.92,-0.742 -2.811,-1.948 -2.922,-3.457 -1.342,1.48 -2.405,3.154 -2.813,4.99 -0.598,2.696 0.238,5.426 2.555,8.352 9.922,12.53 5.571,36.153 3.606,44.521 1.032,7.348 3.305,35.018 -24.245,18.435 -13.392,-8.063 -20.337,-25.901 -20.713,-32.79 -0.309,-5.647 5.175,-28.887 18.912,-27.717 -3.64,-7.057 -4.407,-16.835 -1.614,-25.858 2.469,-7.983 9.647,-21.233 30.041,-25.776 0.446,-0.14 0.887,-0.291 1.342,-0.398 0.704,-0.186 1.415,-0.357 2.136,-0.465 0.72,-0.115 1.44,-0.273 2.17,-0.318 1.458,-0.172 2.934,-0.211 4.423,-0.186 l 2.242,0.164 2.261,0.362 c 0.755,0.201 1.512,0.386 2.27,0.629 0.758,0.322 1.524,0.517 2.272,0.966 0.75,0.411 1.497,0.832 2.211,1.471 0.013,0.008 0.025,0.024 0.038,0.033 0.449,-0.287 0.892,-0.58 1.347,-0.855 0.591,-0.344 1.132,-0.744 1.786,-1.02 l 1.9,-0.877 1.902,-0.859 c 0.674,-0.221 1.373,-0.398 2.056,-0.598 l 2.054,-0.554 c 0.706,-0.121 1.441,-0.161 2.153,-0.237 0.72,-0.05 1.428,-0.142 2.144,-0.131 0.72,0.061 1.436,0.141 2.144,0.229 0.147,0.019 0.29,0.041 0.436,0.055 l 0.042,-0.274 c 15.799,2.465 26.331,8.85 31.299,18.979 5.21,10.628 3.158,23.441 -0.167,32.817 8.229,0.48 20.255,8.072 18.074,28.007 -3.347,30.65 -29.707,36.804 -29.707,36.804"
           style="fill:#000000;fill-opacity:1;fill-rule:nonzero;stroke:none"
           id="path3744"
           inkscape:connector-curvature="0" /></g></g></g></svg>