<?xml version="1.0" encoding="UTF-8" standalone="no"?>
<!DOCTYPE svg PUBLIC "-//W3C//DTD SVG 20010904//EN"
              "http://www.w3.org/TR/2001/REC-SVG-20010904/DTD/svg10.dtd">

<svg xmlns="http://www.w3.org/2000/svg"
     width="7.5in" height="13.3333in"
     viewBox="0 0 540 960">
  <path id="Sélection #1"
        fill="none" stroke="black" stroke-width="1"
        d="M 258.00,156.42
           C 258.00,156.42 270.40,161.84 270.40,161.84
             270.40,161.84 272.00,170.00 272.00,170.00
             272.00,170.00 271.00,193.00 271.00,193.00
             271.00,193.00 271.00,256.00 271.00,256.00
             271.00,256.00 275.00,254.00 275.00,254.00
             275.00,254.00 270.00,260.00 270.00,260.00
             269.97,256.95 270.17,253.82 268.26,251.21
             265.04,246.81 247.83,242.30 242.00,240.33
             238.77,239.24 233.07,237.57 231.17,234.61
             229.76,232.39 230.01,228.58 230.00,226.00
             230.00,226.00 270.00,240.00 270.00,240.00
             270.00,240.00 270.00,236.00 270.00,236.00
             269.83,226.98 263.61,227.05 256.00,224.86
             251.38,223.53 234.44,218.56 231.95,215.35
             230.31,213.23 230.12,208.62 230.00,206.00
             241.81,209.94 259.44,216.01 270.00,222.00
             269.99,218.55 270.27,215.07 268.26,212.05
             264.58,206.53 247.68,202.23 241.00,200.00
             237.77,198.92 233.02,197.84 231.17,194.78
             229.78,192.46 230.01,188.66 230.00,186.00
             230.00,186.00 270.00,200.00 270.00,200.00
             270.00,200.00 268.98,190.42 268.98,190.42
             268.98,190.42 259.00,185.67 259.00,185.67
             259.00,185.67 242.00,180.31 242.00,180.31
             242.00,180.31 231.00,176.00 231.00,176.00
             231.00,176.00 230.00,166.00 230.00,166.00
             230.00,166.00 270.00,181.00 270.00,181.00
             269.86,178.06 269.76,174.75 268.07,172.21
             264.41,166.71 248.49,162.66 242.00,160.31
             239.64,159.45 233.43,157.14 231.95,155.30
             230.30,153.25 230.12,148.57 230.00,146.00
             230.00,146.00 258.00,156.42 258.00,156.42 Z
           M 276.00,197.00
           C 276.00,197.00 276.00,225.00 276.00,225.00
             276.00,225.00 275.00,241.00 275.00,241.00
             275.00,241.00 275.00,183.00 275.00,183.00
             275.00,183.00 276.00,197.00 276.00,197.00 Z
           M 295.00,360.00
           C 295.00,360.00 295.00,341.00 295.00,341.00
             295.00,341.00 295.00,240.00 295.00,240.00
             295.01,237.44 294.63,233.77 296.60,231.84
             297.96,230.50 303.89,228.61 306.00,227.81
             306.00,227.81 323.00,221.58 323.00,221.58
             326.62,220.22 330.10,218.29 334.00,219.00
             334.00,219.00 312.00,227.31 312.00,227.31
             305.31,229.69 300.31,229.93 299.00,238.00
             299.00,238.00 329.99,226.01 329.99,226.01
             329.99,226.01 336.00,221.00 336.00,221.00
             335.74,228.40 334.81,227.73 323.00,231.67
             317.36,233.55 302.04,237.60 298.93,242.21
             297.25,244.72 297.14,248.09 297.00,251.00
             297.00,251.00 305.00,249.00 305.00,249.00
             300.65,251.39 299.63,252.27 298.00,257.00
             298.00,257.00 321.00,249.33 321.00,249.33
             321.00,249.33 332.42,244.30 332.42,244.30
             332.42,244.30 335.00,238.00 335.00,238.00
             335.00,238.00 316.00,245.00 316.00,245.00
             316.00,245.00 306.00,247.00 306.00,247.00
             306.00,247.00 337.00,236.00 337.00,236.00
             337.00,238.31 337.30,242.60 335.98,244.49
             334.45,246.68 326.73,249.05 324.00,250.00
             318.77,251.82 301.66,257.52 298.73,261.27
             297.25,263.18 296.64,266.63 296.00,269.00
             296.00,269.00 337.00,256.00 337.00,256.00
             337.00,258.43 337.29,262.57 335.98,264.61
             334.18,267.39 328.11,268.96 325.00,270.00
             318.83,272.06 301.00,276.74 298.02,282.10
             296.80,284.31 297.01,287.53 297.00,290.00
             297.00,290.00 322.00,280.67 322.00,280.67
             322.00,280.67 334.00,278.00 334.00,278.00
             334.00,278.00 312.00,286.19 312.00,286.19
             312.00,286.19 302.11,290.51 302.11,290.51
             302.11,290.51 298.00,296.00 298.00,296.00
             298.00,296.00 323.00,287.72 323.00,287.72
             326.79,286.59 331.11,284.91 335.00,286.00
             335.00,286.00 311.00,294.57 311.00,294.57
             307.14,295.75 301.13,296.89 298.60,300.22
             296.71,302.70 297.01,306.05 297.00,309.00
             297.00,309.00 297.00,380.00 297.00,380.00
             297.03,393.86 303.46,390.37 308.25,405.00
             311.16,413.87 309.02,416.74 311.17,420.99
             311.17,420.99 323.90,436.00 323.90,436.00
             332.87,449.52 337.26,467.97 334.20,484.00
             333.12,489.60 332.02,495.77 328.00,500.00
             329.46,490.57 333.53,485.15 333.96,474.00
             334.37,463.47 330.09,452.15 325.22,443.00
             323.22,439.25 315.65,427.46 311.09,427.90
             309.44,428.05 307.31,429.99 306.00,431.00
             307.49,422.06 304.04,420.76 296.96,416.00
             296.96,416.00 296.96,426.00 296.96,426.00
             296.53,431.58 294.40,437.11 298.00,442.00
             298.00,442.00 298.00,444.00 298.00,444.00
             295.02,448.12 296.94,451.98 297.00,457.00
             297.00,457.00 297.00,491.00 297.00,491.00
             297.01,492.92 296.95,495.18 297.59,497.00
             298.97,500.85 310.41,512.83 314.00,518.00
             314.00,518.00 296.42,503.53 296.42,503.53
             294.26,503.03 292.47,504.81 290.99,506.12
             288.03,508.73 279.85,516.30 279.26,520.00
             278.84,522.70 280.51,524.52 280.00,528.00
             278.84,526.06 276.20,522.21 276.29,520.00
             276.44,516.61 282.60,511.47 284.96,509.00
             292.14,501.49 294.98,499.37 295.00,489.00
             295.00,489.00 295.00,442.00 295.00,442.00
             295.00,434.50 294.32,422.93 296.00,416.00
             296.00,416.00 287.00,413.00 287.00,413.00
             287.00,413.00 287.00,456.00 287.00,456.00
             287.00,456.00 286.00,476.00 286.00,476.00
             286.00,476.00 286.00,424.00 286.00,424.00
             286.00,421.23 286.21,417.57 284.83,415.11
             282.41,410.81 275.76,409.65 272.85,413.31
             270.21,416.64 270.95,428.48 271.00,433.00
             271.00,433.00 271.92,444.00 271.92,444.00
             271.92,444.00 271.00,457.00 271.00,457.00
             271.00,457.00 271.00,506.00 271.00,506.00
             271.00,506.00 271.00,522.00 271.00,522.00
             271.00,522.00 271.82,535.00 271.82,535.00
             271.82,535.00 271.00,545.00 271.00,545.00
             271.00,545.00 271.00,558.00 271.00,558.00
             271.01,564.11 271.13,568.74 274.80,574.00
             279.33,580.47 284.32,581.23 288.00,589.00
             283.62,592.14 273.76,602.09 271.89,607.00
             270.65,610.25 271.00,617.29 271.00,621.00
             271.00,621.00 271.00,648.00 271.00,648.00
             271.04,651.23 271.14,654.00 272.57,657.00
             274.94,661.98 291.11,677.11 296.00,682.00
             296.00,682.00 316.00,702.00 316.00,702.00
             318.51,704.51 323.04,708.41 323.58,712.00
             324.03,714.95 321.98,718.52 320.57,721.00
             320.57,721.00 311.00,737.00 311.00,737.00
             311.00,737.00 272.00,802.00 272.00,802.00
             267.01,799.36 264.83,793.72 262.00,789.00
             262.00,789.00 244.60,760.00 244.60,760.00
             242.32,756.20 237.72,750.38 238.00,746.00
             238.00,746.00 261.19,783.00 261.19,783.00
             262.75,785.55 267.74,795.00 270.17,795.80
             273.26,796.82 275.93,791.11 277.20,789.00
             277.20,789.00 292.80,763.00 292.80,763.00
             292.80,763.00 314.40,727.00 314.40,727.00
             316.46,723.57 322.13,715.89 321.13,712.00
             320.33,708.87 315.33,704.34 313.00,702.00
             313.00,702.00 293.00,682.00 293.00,682.00
             293.00,682.00 278.00,667.02 278.00,667.02
             276.15,665.25 273.78,662.68 271.00,662.82
             266.91,663.03 258.08,672.92 255.00,676.00
             255.00,676.00 218.00,713.00 218.00,713.00
             220.26,706.38 226.17,701.83 231.00,697.00
             231.00,697.00 257.00,671.00 257.00,671.00
             265.05,662.94 269.98,659.75 270.00,648.00
             270.00,648.00 270.00,612.00 270.00,612.00
             269.81,600.81 260.38,596.91 254.00,588.00
             257.46,584.46 267.99,573.15 269.42,569.00
             270.11,566.97 270.00,564.16 270.00,562.00
             270.00,562.00 270.00,450.00 270.00,450.00
             253.41,447.44 242.15,436.01 242.00,419.00
             222.84,428.34 208.08,451.45 208.08,473.00
             208.08,489.65 216.01,505.71 228.00,516.91
             232.27,520.90 240.39,527.34 246.00,528.99
             250.28,530.25 251.84,528.29 255.00,528.43
             259.48,528.63 262.60,532.69 265.00,536.00
             255.03,539.23 255.35,538.51 247.00,533.10
             247.00,533.10 238.00,527.99 238.00,527.99
             220.35,517.64 207.25,498.92 207.00,478.00
             207.00,478.00 207.00,468.00 207.00,468.00
             207.09,460.40 209.04,452.89 212.18,446.00
             215.82,438.01 219.51,432.14 226.00,426.09
             234.38,418.30 237.99,420.32 241.97,408.00
             243.66,402.80 244.00,400.59 247.53,396.00
             255.84,385.19 260.98,387.84 261.00,373.00
             261.00,373.00 261.00,297.00 261.00,297.00
             261.00,289.96 259.56,272.32 262.96,267.00
             262.96,267.00 262.96,283.00 262.96,283.00
             262.96,283.00 262.00,295.00 262.00,295.00
             262.00,295.00 262.00,384.00 262.00,384.00
             263.98,382.84 266.72,381.48 268.07,379.61
             270.97,375.60 270.00,359.55 270.00,354.00
             270.00,354.00 270.00,301.00 270.00,301.00
             270.00,295.34 269.18,281.60 271.00,277.00
             271.00,277.00 271.00,349.00 271.00,349.00
             271.00,349.00 271.58,371.00 271.58,371.00
             271.58,371.00 273.17,378.69 273.17,378.69
             273.17,378.69 281.00,382.15 281.00,382.15
             281.00,382.15 295.00,387.00 295.00,387.00
             297.41,377.09 295.11,369.49 295.00,360.00 Z
           M 312.00,266.00
           C 304.83,268.39 299.78,268.65 298.00,277.00
             298.00,277.00 324.00,268.77 324.00,268.77
             324.00,268.77 333.05,264.30 333.05,264.30
             333.05,264.30 335.00,258.00 335.00,258.00
             335.00,258.00 312.00,266.00 312.00,266.00 Z
           M 258.00,388.48
           C 251.90,392.16 243.09,402.48 243.40,410.00
             243.49,412.08 244.18,413.19 245.00,415.00
             255.13,410.64 258.66,409.03 270.00,409.00
             270.00,409.00 270.00,384.00 270.00,384.00
             265.82,384.95 261.70,386.24 258.00,388.48 Z
           M 294.98,390.33
           C 290.89,383.62 277.77,384.00 271.00,384.00
             271.00,384.00 272.00,408.00 272.00,408.00
             272.00,408.00 295.00,414.00 295.00,414.00
             295.00,414.00 296.00,411.00 296.00,411.00
             300.27,416.57 302.22,418.15 309.00,420.00
             308.90,408.78 306.41,398.08 297.00,391.00
             297.00,391.00 296.00,396.00 296.00,396.00
             295.93,394.05 296.04,392.07 294.98,390.33 Z
           M 245.69,416.42
           C 244.14,418.49 244.88,422.47 245.00,425.00
             245.67,438.75 257.74,446.20 270.00,449.00
             270.00,449.00 270.00,410.00 270.00,410.00
             264.65,410.12 248.91,412.11 245.69,416.42 Z
           M 230.00,430.00
           C 230.00,430.00 231.00,432.00 231.00,432.00
             231.00,432.00 230.00,433.00 230.00,433.00
             230.00,433.00 228.00,430.00 228.00,430.00
             228.00,430.00 230.00,430.00 230.00,430.00 Z
           M 305.00,433.00
           C 305.00,433.00 304.00,434.00 304.00,434.00
             304.00,434.00 304.00,433.00 304.00,433.00
             304.00,433.00 305.00,433.00 305.00,433.00 Z
           M 303.00,436.00
           C 303.00,436.00 302.00,437.00 302.00,437.00
             302.00,437.00 302.00,436.00 302.00,436.00
             302.00,436.00 303.00,436.00 303.00,436.00 Z
           M 326.00,503.00
           C 326.00,503.00 327.00,505.00 327.00,505.00
             327.00,505.00 326.00,506.00 326.00,506.00
             326.00,506.00 324.00,503.00 324.00,503.00
             324.00,503.00 326.00,503.00 326.00,503.00 Z
           M 299.00,521.00
           C 299.00,521.00 310.00,522.00 310.00,522.00
             310.00,522.00 297.00,545.00 297.00,545.00
             297.00,545.00 295.00,545.00 295.00,545.00
             295.00,545.00 281.00,521.00 281.00,521.00
             281.00,521.00 299.00,521.00 299.00,521.00 Z
           M 312.00,525.00
           C 312.00,525.00 311.00,526.00 311.00,526.00
             311.00,526.00 311.00,525.00 311.00,525.00
             311.00,525.00 312.00,525.00 312.00,525.00 Z
           M 304.00,538.00
           C 304.00,538.00 310.00,527.00 310.00,527.00
             310.49,531.37 307.05,535.18 304.00,538.00 Z
           M 283.00,530.00
           C 283.00,530.00 282.00,531.00 282.00,531.00
             282.00,531.00 282.00,530.00 282.00,530.00
             282.00,530.00 283.00,530.00 283.00,530.00 Z
           M 289.00,539.00
           C 289.00,539.00 288.00,540.00 288.00,540.00
             288.00,540.00 288.00,539.00 288.00,539.00
             288.00,539.00 289.00,539.00 289.00,539.00 Z
           M 304.00,539.00
           C 304.00,539.00 303.00,540.00 303.00,540.00
             303.00,540.00 303.00,539.00 303.00,539.00
             303.00,539.00 304.00,539.00 304.00,539.00 Z
           M 297.00,551.00
           C 292.16,551.00 290.69,544.92 289.00,541.00
             289.00,541.00 297.00,551.00 297.00,551.00 Z
           M 283.35,587.00
           C 282.91,584.22 279.86,580.97 277.96,579.00
             276.35,577.34 273.47,574.21 271.00,574.20
             266.92,574.18 257.04,584.48 257.96,589.00
             258.92,593.70 267.94,600.63 272.00,603.00
             275.33,599.67 284.14,592.06 283.35,587.00 Z
           M 237.00,735.00
           C 234.26,730.44 226.07,719.12 227.64,714.00
             228.63,710.78 233.72,706.11 236.15,703.49
             236.15,703.49 259.00,681.00 259.00,681.00
             261.90,678.10 267.55,671.17 272.00,671.95
             274.72,672.43 278.97,676.21 281.00,678.09
             281.00,678.09 298.00,695.00 298.00,695.00
             298.00,695.00 311.16,709.00 311.16,709.00
             312.81,710.86 315.67,713.44 315.91,716.00
             316.11,718.19 314.09,721.16 313.00,723.00
             313.00,723.00 305.20,736.00 305.20,736.00
             305.20,736.00 272.00,790.00 272.00,790.00
             272.00,790.00 270.00,790.00 270.00,790.00
             270.00,790.00 237.00,735.00 237.00,735.00 Z
           M 259.00,683.00
           C 259.00,683.00 237.09,704.00 237.09,704.00
             234.63,706.64 229.29,712.39 229.04,716.00
             228.75,720.17 235.32,730.19 237.60,734.00
             237.60,734.00 260.20,772.00 260.20,772.00
             263.32,777.20 266.70,785.03 272.00,788.00
             272.00,788.00 272.00,695.00 272.00,695.00
             272.00,695.00 272.96,685.00 272.96,685.00
             272.96,685.00 272.96,673.00 272.96,673.00
             266.47,674.06 263.51,678.49 259.00,683.00 Z
           M 220.00,716.00
           C 220.00,716.00 219.00,717.00 219.00,717.00
             219.00,717.00 219.00,716.00 219.00,716.00
             219.00,716.00 220.00,716.00 220.00,716.00 Z
           M 234.00,742.00
           C 234.00,742.00 220.00,718.00 220.00,718.00
             224.23,721.92 234.76,736.34 234.00,742.00 Z
           M 236.00,743.00
           C 236.00,743.00 235.00,744.00 235.00,744.00
             235.00,744.00 235.00,743.00 235.00,743.00
             235.00,743.00 236.00,743.00 236.00,743.00 Z" />
</svg>
