<svg version="1.0" xmlns="http://www.w3.org/2000/svg" width="300" height="300" viewBox="0 0 300.000000 169.000000" preserveAspectRatio="xMidYMid " style="height: 256px; width: 256px;" class="svg">
    <g transform="translate(0.000000,169.000000) scale(0.100000,-0.100000)" fill="#121212" stroke="none">
        <path d="M2286 1660 c-157 -28 -284 -154 -322 -319 -23 -97 17 -207 66 -181
20 11 29 37 54 164 28 141 81 228 166 271 65 33 116 40 196 26 151 -27 285
-128 351 -266 49 -103 52 -144 18 -229 -30 -74 -29 -104 5 -174 27 -55 25 -69
-10 -87 -23 -12 -30 -22 -30 -45 0 -16 -5 -32 -10 -35 -6 -4 -8 -15 -5 -25 4
-12 -1 -22 -13 -29 -12 -6 -22 -26 -25 -48 -8 -48 -32 -83 -58 -83 -11 0 -42
11 -69 25 -107 54 -142 23 -174 -153 -18 -95 -15 -132 9 -132 14 0 17 9 50
143 28 112 70 141 146 101 17 -8 51 -18 77 -21 56 -6 80 13 88 73 4 25 16 47
32 61 21 17 23 24 14 36 -10 12 -9 16 4 21 11 4 14 13 10 31 -6 25 1 35 52 73
l23 17 -30 65 c-38 79 -38 102 -5 185 21 52 25 77 22 118 -17 174 -158 342
-336 397 -76 24 -220 34 -296 20z" id="node1" class="node"></path>
        <path d="M755 745 c-15 -33 -44 -100 -64 -148 -20 -49 -40 -89 -46 -89 -11 0
-31 79 -41 155 -3 26 -10 47 -15 47 -5 0 -23 -30 -40 -67 -39 -88 -90 -176
-97 -169 -3 3 -8 60 -12 126 -7 121 -11 137 -29 126 -6 -4 -6 -18 0 -39 5 -17
9 -69 9 -114 0 -89 14 -136 39 -131 10 2 37 50 66 117 l50 113 8 -39 c23 -120
44 -173 67 -173 12 0 33 48 70 163 16 48 39 103 50 122 12 19 20 41 17 48 -3
6 -17 -15 -32 -48z" id="node2" class="node"></path>
        <path d="M1410 743 c-48 -85 -93 -142 -112 -143 -21 0 -32 -17 -16 -22 9 -3 5
-19 -15 -55 -15 -28 -27 -58 -27 -67 0 -25 26 -19 38 10 7 14 8 23 2 19 -17
-10 -11 10 13 46 21 32 47 45 118 62 25 6 27 4 33 -34 8 -52 42 -119 61 -119
13 0 85 70 133 130 28 35 36 21 22 -42 -23 -100 -12 -102 65 -11 38 45 71 80
73 78 2 -2 -4 -30 -13 -62 -17 -62 -17 -114 0 -120 6 -2 11 18 12 45 1 26 9
67 18 91 19 54 19 81 1 81 -14 0 -89 -77 -117 -120 -23 -35 -29 -23 -16 36 6
28 7 59 4 68 -6 16 -9 16 -34 -3 -16 -11 -44 -40 -63 -65 -19 -25 -38 -45 -41
-46 -4 0 -3 17 2 38 12 50 11 92 -1 92 -5 0 -10 -15 -11 -32 0 -18 -9 -55 -19
-83 l-18 -50 -15 35 c-8 19 -18 52 -22 72 -6 34 -5 38 19 44 33 8 34 24 0 24
l-25 0 7 80 c6 68 4 80 -9 80 -8 0 -30 -26 -47 -57z m22 -73 c-2 -27 -7 -50
-12 -50 -4 0 -22 -3 -40 -6 l-32 -7 37 57 c21 31 41 56 44 56 3 0 4 -22 3 -50z" id="node3" class="node"></path>
        <path d="M2106 758 c-50 -76 -95 -328 -58 -328 4 0 8 21 8 48 2 62 30 175 60
237 25 52 18 85 -10 43z" id="node4" class="node"></path>
        <path d="M797 613 c-26 -82 -47 -154 -47 -161 0 -26 23 -6 84 73 75 96 92 105
82 44 -16 -103 -18 -134 -8 -124 16 17 44 177 33 188 -17 17 -59 -12 -105 -70
-22 -29 -42 -49 -44 -44 -2 5 11 49 29 98 36 100 45 143 32 143 -5 0 -31 -66
-56 -147z" id="node5" class="node"></path>
        <path d="M1015 611 c-31 -18 -68 -76 -79 -123 -8 -36 25 -72 57 -63 60 18 111
115 91 174 -12 32 -30 35 -69 12z m55 -36 c0 -63 -47 -125 -94 -125 -16 0 -18
5 -13 41 6 45 33 83 54 75 9 -4 13 3 13 19 0 18 5 25 20 25 16 0 20 -7 20 -35z" id="node6" class="node"></path>
        <path d="M2397 202 c-22 -25 -21 -75 1 -95 42 -39 112 -9 112 46 0 57 -77 89
-113 49z" id="node7" class="node"></path>
    </g>
    <g transform="translate(0.000000,169.000000) scale(0.100000,-0.100000)" fill="#A0A0A0" stroke="none">
    </g>
</svg>